<svg width="23" height="23" viewBox="0 0 23 23" fill="none" xmlns="http://www.w3.org/2000/svg">
<g clip-path="url(#clip0_576_153)">
<path d="M7.71919 20.3595C7.71919 20.5343 7.58054 20.6727 7.40541 20.6727H5.72703C5.55189 20.6727 5.41324 20.5343 5.41324 20.3595C5.41324 20.1847 5.55189 20.0463 5.72703 20.0463H7.40541C7.57324 20.0463 7.71919 20.1847 7.71919 20.3595ZM22.1897 16.499V17.5916C22.1897 17.9631 21.8905 18.2617 21.5184 18.2617C21.0732 18.2617 20.8032 18.5458 20.6865 18.8153C20.577 19.0848 20.5697 19.4782 20.8835 19.7914C21.1462 20.0536 21.1462 20.4761 20.8835 20.7383L20.11 21.5104C19.9859 21.6342 19.8181 21.707 19.6357 21.707C19.4532 21.707 19.2854 21.6342 19.1614 21.5104C18.8476 21.1972 18.4535 21.2045 18.1835 21.3137C17.9135 21.423 17.6289 21.6998 17.6289 22.1441C17.6289 22.5156 17.3297 22.8142 16.9576 22.8142H15.863C15.4908 22.8142 15.1916 22.5156 15.1916 22.1441C15.1916 21.6998 14.907 21.423 14.637 21.3137C14.367 21.2045 13.973 21.1972 13.6592 21.5104C13.5351 21.6342 13.3673 21.707 13.1849 21.707C13.0827 21.707 12.9805 21.6852 12.8857 21.6342C12.6157 22.3262 11.937 22.8142 11.1562 22.8142H1.96162C0.94 22.8142 0.108109 21.9838 0.108109 20.9641V2.77606C0.108109 1.7563 0.94 0.925934 1.96162 0.925934H11.1635C12.1851 0.925934 13.017 1.7563 13.017 2.77606V12.4127C13.0754 12.3982 13.1265 12.3909 13.1849 12.3909C13.3673 12.3909 13.5351 12.4637 13.6592 12.5875C13.973 12.9007 14.367 12.8935 14.637 12.7842C14.907 12.6749 15.1916 12.3982 15.1916 11.9538C15.1916 11.5824 15.4908 11.2837 15.863 11.2837H16.9576C17.3297 11.2837 17.6289 11.5824 17.6289 11.9538C17.6289 12.3982 17.9135 12.6677 18.1835 12.7842C18.4535 12.8935 18.8476 12.9007 19.1614 12.5875C19.2854 12.4637 19.4532 12.3909 19.6357 12.3909C19.8181 12.3909 19.9859 12.4637 20.11 12.5875L20.8835 13.3596C21.0076 13.4835 21.0805 13.651 21.0805 13.8331C21.0805 14.0152 21.0076 14.1827 20.8835 14.3066C20.5697 14.6198 20.577 15.0131 20.6865 15.2826C20.7959 15.5521 21.0732 15.8362 21.5184 15.8362C21.8905 15.8362 22.1897 16.1348 22.1897 16.5063V16.499ZM12.3822 21.168L11.9443 20.731C11.6816 20.4688 11.6816 20.0463 11.9443 19.7841C12.2581 19.4709 12.2508 19.0775 12.1414 18.808C12.0319 18.5385 11.7546 18.2545 11.3095 18.2545C10.9373 18.2545 10.6381 17.9558 10.6381 17.5843V16.4917C10.6381 16.1203 10.9373 15.8216 11.3095 15.8216C11.7546 15.8216 12.0246 15.5375 12.1414 15.268C12.2508 14.9985 12.2581 14.6052 11.9443 14.292C11.6816 14.0298 11.6816 13.6073 11.9443 13.3451L12.3968 12.8935V2.77606C12.3968 2.09865 11.8422 1.54507 11.1635 1.54507H1.96162C1.28297 1.54507 0.728379 2.09865 0.728379 2.77606V20.9568C0.728379 21.6342 1.28297 22.1878 1.96162 22.1878H11.1635C11.7692 22.1878 12.28 21.7507 12.3822 21.168ZM21.5695 16.499C21.5695 16.499 21.5476 16.448 21.5184 16.448C20.8908 16.448 20.3581 16.0911 20.1173 15.5084C19.8765 14.9257 20.0005 14.2993 20.4457 13.8549C20.4676 13.8331 20.4676 13.804 20.4457 13.7894L19.6722 13.0173C19.6722 13.0173 19.6503 13.0027 19.6357 13.0027C19.6211 13.0027 19.6138 13.0027 19.5992 13.0173C19.1541 13.4616 18.5192 13.5854 17.9427 13.3451C17.3662 13.1047 17.0014 12.5657 17.0014 11.9466C17.0014 11.9174 16.9795 11.8956 16.9503 11.8956H15.8557C15.8557 11.8956 15.8046 11.9174 15.8046 11.9466C15.8046 12.573 15.447 13.1047 14.8632 13.3451C14.2868 13.5854 13.6519 13.4616 13.2068 13.0173C13.1922 13.0027 13.1849 13.0027 13.1703 13.0027C13.1557 13.0027 13.1484 13.0027 13.1338 13.0173L12.3603 13.7894C12.3603 13.7894 12.3384 13.8404 12.3603 13.8549C12.8054 14.2993 12.9295 14.933 12.6886 15.5084C12.4478 16.0838 11.9078 16.448 11.2876 16.448C11.2584 16.448 11.2365 16.4699 11.2365 16.499V17.5916C11.2365 17.5916 11.2584 17.6426 11.2876 17.6426C11.9151 17.6426 12.4478 17.9995 12.6886 18.5822C12.9295 19.1577 12.8054 19.7914 12.3603 20.2357C12.3384 20.2575 12.3384 20.2867 12.3603 20.3012L13.1338 21.0733C13.1338 21.0733 13.1557 21.0879 13.1703 21.0879C13.1849 21.0879 13.1922 21.0879 13.2068 21.0733C13.4987 20.782 13.8781 20.6217 14.2722 20.6217C14.4692 20.6217 14.6662 20.6582 14.8632 20.7383C15.4397 20.9786 15.8046 21.5177 15.8046 22.1368C15.8046 22.1659 15.8265 22.1878 15.8557 22.1878H16.9503C16.9503 22.1878 17.0014 22.1659 17.0014 22.1368C17.0014 21.5104 17.3589 20.9786 17.9427 20.7383C18.5192 20.4979 19.1541 20.6217 19.5992 21.0661C19.6138 21.0806 19.6211 21.0806 19.6357 21.0806C19.6503 21.0806 19.6576 21.0806 19.6722 21.0661L20.4457 20.294C20.4457 20.294 20.4676 20.243 20.4457 20.2284C20.0005 19.7841 19.8765 19.1504 20.1173 18.5749C20.3581 17.9995 20.8981 17.6353 21.5184 17.6353C21.5476 17.6353 21.5695 17.6135 21.5695 17.5843V16.4917V16.499ZM19.3949 17.0453C19.3949 18.6842 18.0595 20.0172 16.4176 20.0172C14.7757 20.0172 13.4403 18.6842 13.4403 17.0453C13.4403 15.4064 14.7757 14.0735 16.4176 14.0735C18.0595 14.0735 19.3949 15.4064 19.3949 17.0453ZM18.7746 17.0453C18.7746 15.7488 17.7165 14.6926 16.4176 14.6926C15.1187 14.6926 14.0605 15.7488 14.0605 17.0453C14.0605 18.3419 15.1187 19.398 16.4176 19.398C17.7165 19.398 18.7746 18.3419 18.7746 17.0453ZM10.193 11.8664C10.193 13.8622 8.56568 15.4866 6.56622 15.4866C4.56676 15.4866 2.93946 13.8622 2.93946 11.8664C2.93946 9.87063 4.56676 8.2463 6.56622 8.2463C8.56568 8.2463 10.193 9.87063 10.193 11.8664ZM9.5727 11.8664C9.5727 10.213 8.2227 8.86544 6.56622 8.86544C4.90973 8.86544 3.55973 10.213 3.55973 11.8664C3.55973 13.5199 4.90973 14.8674 6.56622 14.8674C8.2227 14.8674 9.5727 13.5199 9.5727 11.8664ZM6.56622 11.5751C6.16487 11.5751 5.84378 11.2983 5.84378 10.9632C5.84378 10.6282 6.17216 10.3514 6.56622 10.3514C6.77054 10.3514 7.1427 10.5116 7.22297 10.6354C7.31784 10.7811 7.50757 10.8175 7.65351 10.7228C7.79946 10.6282 7.83595 10.4388 7.74108 10.2931C7.57324 10.0309 7.19378 9.84877 6.86541 9.76865V9.46272C6.85081 9.28791 6.71216 9.1568 6.53703 9.1568C6.36189 9.1568 6.23054 9.30248 6.23054 9.47729V9.76137C5.64676 9.89248 5.20892 10.3805 5.20892 10.9632C5.20892 11.6406 5.8146 12.1942 6.55162 12.1942C6.95297 12.1942 7.27405 12.471 7.27405 12.8061C7.27405 13.1411 6.94568 13.4179 6.55162 13.4179C6.28162 13.4179 6.14297 13.3378 5.90216 13.1047C5.77811 12.9882 5.58108 12.9954 5.46433 13.1193C5.34757 13.2431 5.35487 13.4398 5.47892 13.5563C5.69054 13.753 5.90946 13.9424 6.25243 14.0079V14.2701C6.25973 14.4377 6.39838 14.5761 6.56622 14.5761H6.57351C6.74865 14.5761 6.88 14.4304 6.88 14.2556V14.0006C7.46378 13.8695 7.90162 13.3815 7.90162 12.7988C7.90162 12.1214 7.29595 11.5678 6.55892 11.5678L6.56622 11.5751Z" fill="#CAA55E"/>
</g>
<defs>
<clipPath id="clip0_576_153">
<rect width="22.0816" height="21.881" fill="white" transform="translate(0.108109 0.925934)"/>
</clipPath>
</defs>
</svg>
