<svg width="22" height="17" viewBox="0 0 22 17" fill="none" xmlns="http://www.w3.org/2000/svg">
<g clip-path="url(#clip0_576_134)">
<path d="M9.41667 11.2332H4.96452C4.74785 11.2332 4.57312 11.4084 4.57312 11.6257C4.57312 11.8429 4.74785 12.0181 4.96452 12.0181H9.41667C9.63334 12.0181 9.80807 11.8429 9.80807 11.6257C9.80807 11.4084 9.63334 11.2332 9.41667 11.2332ZM4.96452 9.7826H7.19409C7.41076 9.7826 7.58549 9.6074 7.58549 9.39016C7.58549 9.17291 7.41076 8.99772 7.19409 8.99772H4.96452C4.74785 8.99772 4.57312 9.17291 4.57312 9.39016C4.57312 9.6074 4.74785 9.7826 4.96452 9.7826ZM19.5581 9.92275V4.16929C19.5581 3.13913 18.7194 2.29819 17.6919 2.29819H17.5871V2.19307C17.5871 1.16291 16.7484 0.321968 15.721 0.321968H2.23172C1.2043 0.31496 0.365593 1.1559 0.365593 2.18606V10.3923C0.365593 11.4224 1.2043 12.2634 2.23172 12.2634H2.33656V12.3685C2.33656 13.3987 3.17527 14.2396 4.20269 14.2396H15.2317C15.7559 15.3398 16.8672 16.1037 18.1672 16.1037C19.9565 16.1037 21.4172 14.6461 21.4172 12.845C21.4172 11.5486 20.6554 10.4273 19.5581 9.90173V9.92275ZM17.6919 3.08307C18.293 3.08307 18.7753 3.57362 18.7753 4.16929V4.52669H3.12635V4.16929C3.12635 3.56661 3.61559 3.08307 4.20968 3.08307H17.6849H17.6919ZM18.7753 5.31858V6.76921H3.12635V5.31858H18.7753ZM2.34355 4.16929V11.4855H2.23871C1.63764 11.4855 1.15538 10.995 1.15538 10.3993V2.18606C1.15538 1.58338 1.64463 1.09984 2.23871 1.09984H15.714C16.3151 1.09984 16.7973 1.59039 16.7973 2.18606V2.29118H4.20968C3.18226 2.29118 2.34355 3.13212 2.34355 4.16228V4.16929ZM14.9871 13.4617H4.20968C3.6086 13.4617 3.12635 12.9712 3.12635 12.3755V7.54709H18.7753V9.66346C18.5796 9.62842 18.3769 9.6074 18.1742 9.6074C16.3849 9.6074 14.9242 11.065 14.9242 12.8661C14.9242 13.0763 14.9452 13.2725 14.9801 13.4687L14.9871 13.4617ZM18.1742 15.3258C16.8183 15.3258 15.707 14.2186 15.707 12.852C15.707 11.4855 16.8113 10.3783 18.1742 10.3783C19.5371 10.3783 20.6414 11.4855 20.6414 12.852C20.6414 14.2116 19.5371 15.3258 18.1742 15.3258ZM18.7263 12.852L19.5511 12.0251C19.7048 11.8709 19.7048 11.6257 19.5511 11.4715C19.3973 11.3173 19.1527 11.3173 18.9989 11.4715L18.1742 12.2984L17.3495 11.4715C17.1957 11.3173 16.9511 11.3173 16.7973 11.4715C16.6436 11.6257 16.6436 11.8709 16.7973 12.0251L17.622 12.852L16.7973 13.679C16.6436 13.8331 16.6436 14.0784 16.7973 14.2326C16.8742 14.3097 16.972 14.3447 17.0769 14.3447C17.1817 14.3447 17.2796 14.3097 17.3565 14.2326L18.1812 13.4057L19.0059 14.2326C19.0828 14.3097 19.1806 14.3447 19.2855 14.3447C19.3903 14.3447 19.4882 14.3097 19.5651 14.2326C19.7188 14.0784 19.7188 13.8331 19.5651 13.679L18.7403 12.852H18.7263Z" fill="#CAA55E"/>
</g>
<defs>
<clipPath id="clip0_576_134">
<rect width="21.0516" height="15.8028" fill="white" transform="translate(0.365593 0.31496)"/>
</clipPath>
</defs>
</svg>
