<svg width="348" height="125" viewBox="0 0 348 125" fill="none" xmlns="http://www.w3.org/2000/svg">
<g filter="url(#filter0_d_441_1330)">
<path d="M338 36V75.8293C338 88.8784 328.404 99.8881 315.451 101.472C258.96 108.382 117.602 124.329 142.258 107.636C164.785 92.3848 82.9485 94.6753 37.8462 96.971C22.7685 97.7384 10 85.7852 10 70.688V36C10 21.6406 21.6406 10 36 10L312 10C326.359 10 338 21.6406 338 36Z" fill="white"/>
<path d="M337.5 75.8293V36C337.5 21.9167 326.083 10.5 312 10.5L36 10.5C21.9167 10.5 10.5 21.9167 10.5 36V70.688C10.5 85.4945 23.0243 97.2247 37.8208 96.4716C60.3728 95.3238 92.1284 94.1759 115.436 95.2239C127.068 95.747 136.67 96.8188 141.961 98.7428C143.288 99.2255 144.377 99.7728 145.164 100.401C145.953 101.03 146.479 101.774 146.586 102.644C146.692 103.515 146.365 104.399 145.691 105.281C145.018 106.162 143.969 107.082 142.538 108.05C141.008 109.086 140.232 109.928 139.986 110.572C139.872 110.872 139.878 111.112 139.96 111.323C140.047 111.545 140.239 111.788 140.594 112.04C141.313 112.551 142.562 113.001 144.345 113.368C146.114 113.732 148.353 114.003 151.008 114.188C161.637 114.93 178.729 114.288 198.389 112.906C237.694 110.143 287.146 104.431 315.39 100.976C328.088 99.423 337.5 88.6298 337.5 75.8293Z" stroke="#CAA55E"/>
</g>
<defs>
<filter id="filter0_d_441_1330" x="0.22" y="0.22" width="347.56" height="124.56" filterUnits="userSpaceOnUse" color-interpolation-filters="sRGB">
<feFlood flood-opacity="0" result="BackgroundImageFix"/>
<feColorMatrix in="SourceAlpha" type="matrix" values="0 0 0 0 0 0 0 0 0 0 0 0 0 0 0 0 0 0 127 0" result="hardAlpha"/>
<feOffset/>
<feGaussianBlur stdDeviation="4.89"/>
<feColorMatrix type="matrix" values="0 0 0 0 0.576471 0 0 0 0 0.572549 0 0 0 0 0.572549 0 0 0 0.72 0"/>
<feBlend mode="normal" in2="BackgroundImageFix" result="effect1_dropShadow_441_1330"/>
<feBlend mode="normal" in="SourceGraphic" in2="effect1_dropShadow_441_1330" result="shape"/>
</filter>
</defs>
</svg>
