<svg width="348" height="125" viewBox="0 0 348 125" fill="none" xmlns="http://www.w3.org/2000/svg">
<g filter="url(#filter0_d_441_1351)">
<path d="M10 36L10 75.8293C10 88.8784 19.5964 99.8881 32.549 101.472C89.0399 108.382 230.398 124.329 205.742 107.636C183.215 92.3848 265.052 94.6753 310.154 96.971C325.232 97.7384 338 85.7852 338 70.688V36C338 21.6406 326.359 10 312 10L36 10C21.6406 10 10 21.6406 10 36Z" fill="white"/>
<path d="M10.5 75.8293L10.5 36C10.5 21.9167 21.9167 10.5 36 10.5L312 10.5C326.083 10.5 337.5 21.9167 337.5 36V70.688C337.5 85.4945 324.976 97.2247 310.179 96.4716C287.627 95.3238 255.872 94.1759 232.564 95.2239C220.932 95.747 211.33 96.8188 206.039 98.7428C204.712 99.2255 203.623 99.7728 202.836 100.401C202.047 101.03 201.521 101.774 201.414 102.644C201.308 103.515 201.635 104.399 202.309 105.281C202.982 106.162 204.031 107.082 205.462 108.05C206.992 109.086 207.768 109.928 208.014 110.572C208.128 110.872 208.122 111.112 208.04 111.323C207.953 111.545 207.761 111.788 207.406 112.04C206.687 112.551 205.438 113.001 203.655 113.368C201.886 113.732 199.647 114.003 196.992 114.188C186.363 114.93 169.271 114.288 149.611 112.906C110.306 110.143 60.8542 104.431 32.6097 100.976C19.912 99.423 10.5 88.6298 10.5 75.8293Z" stroke="#CAA55E"/>
</g>
<defs>
<filter id="filter0_d_441_1351" x="0.22" y="0.22" width="347.56" height="124.56" filterUnits="userSpaceOnUse" color-interpolation-filters="sRGB">
<feFlood flood-opacity="0" result="BackgroundImageFix"/>
<feColorMatrix in="SourceAlpha" type="matrix" values="0 0 0 0 0 0 0 0 0 0 0 0 0 0 0 0 0 0 127 0" result="hardAlpha"/>
<feOffset/>
<feGaussianBlur stdDeviation="4.89"/>
<feColorMatrix type="matrix" values="0 0 0 0 0.576471 0 0 0 0 0.572549 0 0 0 0 0.572549 0 0 0 0.72 0"/>
<feBlend mode="normal" in2="BackgroundImageFix" result="effect1_dropShadow_441_1351"/>
<feBlend mode="normal" in="SourceGraphic" in2="effect1_dropShadow_441_1351" result="shape"/>
</filter>
</defs>
</svg>
