<svg width="30" height="31" viewBox="0 0 30 31" fill="none" xmlns="http://www.w3.org/2000/svg">
<g clip-path="url(#clip0_104_133)">
<path d="M3.08997 23.06V28.85C3.08997 29.66 3.74997 30.32 4.55997 30.32H27.81C28.62 30.32 29.28 29.66 29.28 28.85V17.74C29.28 17.12 28.95 16.65 28.43 16.41C28.52 15.75 28.57 15.03 28.57 14.32C28.62 6.49 22.35 -0.0100021 14.33 -0.0100021C2.08997 -2.13645e-06 -4.17003 14.57 3.08997 23.06ZM11.01 1.38C9.77997 2.47 8.67997 4.13 7.92997 6.32C6.59997 6.13 5.31997 5.89 4.31997 5.56C6.11997 3.42 8.44997 2.05 11.01 1.38ZM24.44 5.56C23.4 5.84 22.16 6.13 20.83 6.32C20.02 4.14 18.93 2.48 17.7 1.38C20.36 2.04 22.68 3.52 24.44 5.56ZM8.67997 29.43L4.07997 24.83V21.79L8.67997 17.19H23.77L28.37 21.79V24.83L23.77 29.43H8.67997ZM14.8 16.24V14.77H21.11C21.11 15.29 21.06 15.77 21.06 16.24H14.8ZM14.8 13.82V7.7C16.65 7.7 18.45 7.56 20.12 7.37C20.74 9.32 21.07 11.55 21.12 13.82H14.81H14.8ZM14.8 6.75V0.999998C16.79 1.28 18.6 3.28 19.83 6.46C18.26 6.6 16.56 6.7 14.8 6.74V6.75ZM13.85 6.75C12.09 6.75 10.43 6.61 8.81997 6.47C10.01 3.29 11.86 1.3 13.85 1.01V6.75ZM8.52997 7.37C10.19 7.56 11.99 7.7 13.85 7.7V13.82H7.53997C7.58997 11.49 7.91997 9.31 8.53997 7.37H8.52997ZM13.85 14.77V16.24H7.62997C7.57997 15.77 7.57997 15.24 7.57997 14.77H13.84H13.85ZM7.29997 17.19L4.02997 20.46V17.71C4.02997 17.43 4.26997 17.19 4.54997 17.19H7.29997ZM28.37 20.46L25.1 17.19H27.85C28.13 17.19 28.37 17.43 28.37 17.71V20.46ZM22.01 16.24C22.06 15.77 22.06 15.24 22.06 14.77H27.61C27.61 15.29 27.56 15.77 27.47 16.24H22.01ZM22.1 13.82C22.05 11.49 21.72 9.22 21.1 7.22C22.57 6.98 23.95 6.7 25.04 6.37C26.65 8.55 27.56 11.12 27.65 13.82H22.1ZM3.65997 6.36C4.74997 6.69 6.12997 7.02 7.59997 7.21C6.97997 9.2 6.64997 11.48 6.59997 13.81H1.04997C1.14997 11.1 2.04997 8.54 3.65997 6.36ZM6.59997 14.76C6.59997 15.28 6.64997 15.76 6.64997 16.23H4.55997C3.74997 16.23 3.08997 16.89 3.08997 17.7V21.45C1.99997 19.79 1.09997 17.37 0.999973 14.71H6.59997V14.76ZM4.03997 28.9V26.15L7.30997 29.42H4.55997C4.31997 29.42 4.03997 29.18 4.03997 28.9ZM27.86 29.42H25.11L28.38 26.15V28.9C28.38 29.18 28.14 29.42 27.86 29.42Z" fill="#CAA55E"/>
<path d="M7.03001 21.17C5.84001 21.17 4.89001 22.12 4.89001 23.31C4.89001 24.5 5.84001 25.45 7.03001 25.45C8.22002 25.45 9.17001 24.5 9.17001 23.31C9.17001 22.12 8.22002 21.17 7.03001 21.17ZM7.03001 24.49C6.37001 24.49 5.84001 23.97 5.84001 23.3C5.84001 22.63 6.36001 22.11 7.03001 22.11C7.70002 22.11 8.22002 22.63 8.22002 23.3C8.22002 23.97 7.70002 24.49 7.03001 24.49Z" fill="#CAA55E"/>
<path d="M25.58 21.17C24.39 21.17 23.44 22.12 23.44 23.31C23.44 24.5 24.39 25.45 25.58 25.45C26.77 25.45 27.72 24.5 27.72 23.31C27.72 22.12 26.77 21.17 25.58 21.17ZM25.58 24.49C24.92 24.49 24.39 23.97 24.39 23.3C24.39 22.63 24.91 22.11 25.58 22.11C26.25 22.11 26.77 22.63 26.77 23.3C26.77 23.97 26.25 24.49 25.58 24.49Z" fill="#CAA55E"/>
<path d="M16.23 17.8C13.19 17.8 10.72 20.27 10.72 23.31C10.72 26.35 13.19 28.82 16.23 28.82C19.27 28.82 21.74 26.35 21.74 23.31C21.74 20.27 19.27 17.8 16.23 17.8ZM16.23 27.86C13.71 27.86 11.67 25.82 11.67 23.3C11.67 20.78 13.71 18.74 16.23 18.74C18.75 18.74 20.79 20.78 20.79 23.3C20.79 25.82 18.75 27.86 16.23 27.86Z" fill="#CAA55E"/>
<path d="M16.42 22.64V21.5C16.7 21.55 16.99 21.64 17.27 21.83L17.65 21.26C17.27 20.98 16.84 20.83 16.42 20.83V20.55H16.04V20.88C15.33 20.93 14.76 21.35 14.76 22.07C14.76 22.83 15.28 23.07 16.04 23.26V24.4C15.71 24.35 15.33 24.16 15 23.88L14.57 24.4C15 24.78 15.47 24.97 16.04 25.06V25.49H16.42V25.06C17.18 25.01 17.75 24.59 17.75 23.87C17.8 22.97 17.09 22.87 16.42 22.64ZM16.04 22.55C15.71 22.46 15.47 22.36 15.47 22.03C15.47 21.75 15.75 21.56 16.04 21.56V22.56V22.55ZM16.42 24.45V23.36C16.75 23.45 17.04 23.6 17.04 23.93C17.04 24.26 16.76 24.45 16.42 24.45Z" fill="#CAA55E"/>
</g>
<defs>
<clipPath id="clip0_104_133">
<rect width="29.29" height="30.33" fill="white"/>
</clipPath>
</defs>
</svg>
