<svg width="23" height="24" viewBox="0 0 23 24" fill="none" xmlns="http://www.w3.org/2000/svg">
<g clip-path="url(#clip0_576_79)">
<path d="M5.13952 14.7153H5.1683C6.33391 14.7153 7.45635 14.2585 8.29098 13.4393C9.13281 12.62 9.60769 11.4963 9.61488 10.3145C9.53574 8.2845 8.65793 6.3705 7.19013 4.993H7.39159C7.59305 4.993 7.76574 4.82625 7.76574 4.616C7.76574 4.40575 7.60025 4.239 7.39159 4.239H6.65769L7.32683 2.66575C7.42757 2.43375 7.39878 2.1655 7.26208 1.9625C7.12537 1.75225 6.89513 1.629 6.6433 1.629H4.93086L4.85171 1.38975C4.80135 1.2375 4.70781 1.11425 4.5783 1.02C4.46318 0.92575 4.31208 0.875 4.15378 0.875H3.30476C3.05293 0.875 2.81549 1.0055 2.67878 1.21575C2.54208 1.426 2.52049 1.69425 2.62122 1.92625L3.64293 4.239H2.93061C2.72196 4.239 2.55647 4.40575 2.55647 4.616C2.55647 4.82625 2.72196 4.993 2.93061 4.993H3.14647C1.68586 6.36325 0.808053 8.2555 0.707321 10.2638C0.707321 11.4455 1.1822 12.5765 2.00964 13.4103C2.84427 14.244 3.96671 14.7153 5.13952 14.7153ZM3.31196 1.62175H4.16098L4.32647 2.11475L4.5711 2.8615C4.63586 3.05725 4.84452 3.166 5.03878 3.10075C5.23305 3.0355 5.34098 2.82525 5.27622 2.6295L5.18988 2.37575H6.65769L5.85903 4.24625H4.47037L3.31196 1.629V1.62175ZM4.59269 4.993H5.74391C7.44915 5.50775 8.88818 8.328 8.87379 10.3073C8.87379 11.286 8.47086 12.2213 7.77293 12.9028C7.075 13.5915 6.13964 13.9685 5.1683 13.9685H5.14671C4.16818 13.9685 3.23281 13.5843 2.54208 12.8883C1.85135 12.1923 1.45561 11.2498 1.45561 10.271C1.46281 8.3135 2.90903 5.52225 4.59988 4.993H4.59269Z" fill="#CAA55E"/>
<path d="M21.4077 10.3073C21.53 10.0318 21.53 9.72726 21.4293 9.44451C21.3285 9.16176 21.1055 8.94426 20.8393 8.82101C20.5659 8.70501 20.2637 8.69776 19.9831 8.80651C19.7168 8.90801 19.4938 9.11826 19.3787 9.38651C19.3787 9.39376 18.8606 10.5103 18.6376 13.2218H12.5937C12.1979 13.2218 11.831 13.4393 11.6295 13.78C11.4281 14.128 11.4281 14.5558 11.6295 14.9038C11.831 15.2518 12.1979 15.462 12.5937 15.462H12.9678V16.2088H12.5937C12.2699 16.2088 11.9533 16.3538 11.7446 16.6075C11.536 16.8613 11.4424 17.1948 11.5 17.5138C11.5504 17.84 11.7446 18.1228 12.0252 18.2895C11.9245 18.913 11.7734 19.522 11.572 20.1238C11.3129 19.986 11.0755 19.8193 10.8668 19.6163C10.615 19.3045 10.2265 19.145 9.83073 19.2103C9.435 19.2755 9.10403 19.5365 8.96012 19.9135C8.81622 20.2905 8.88098 20.711 9.12561 21.0228C9.19756 21.117 10.9963 23.3138 15.9394 23.3138C20.8824 23.3138 22.674 21.117 22.7532 21.0228C22.9402 20.7908 23.0194 20.5008 22.9906 20.2108C22.9618 19.9208 22.8179 19.6525 22.5877 19.464C22.3934 19.3045 22.156 19.2175 21.9041 19.2103C21.6523 19.2103 21.4077 19.2828 21.2134 19.435C21.0263 18.71 20.8968 17.9705 20.8321 17.231C20.7889 16.7815 20.7673 16.303 20.7673 15.81C20.7673 15.317 20.7817 14.8313 20.8033 14.389C20.9328 11.5325 21.4149 10.3073 21.4221 10.3L21.4077 10.3073ZM13.7017 15.4693H14.817V16.216H13.7017V15.4693ZM18.5368 16.216H17.4144V15.4693H18.5296C18.5296 15.5853 18.5296 15.7013 18.5296 15.8173C18.5296 15.955 18.5296 16.0855 18.5296 16.216H18.5368ZM16.6733 16.216H15.5581V15.4693H16.6733V16.216ZM21.5804 20.0948C21.7099 19.9353 21.9473 19.9135 22.1056 20.044C22.1848 20.102 22.2279 20.1963 22.2423 20.2905C22.2567 20.3848 22.2279 20.4863 22.1632 20.5588C22.1488 20.5805 20.5227 22.567 15.9322 22.567C11.3417 22.567 9.71561 20.5733 9.70122 20.5588C9.57171 20.3993 9.60049 20.16 9.75878 20.0295C9.82354 19.9788 9.90988 19.9498 9.98903 19.9498C10.0034 19.9498 10.0178 19.9498 10.0322 19.9498C10.1401 19.9643 10.2337 20.0223 10.2984 20.1093C10.4567 20.2833 11.9461 21.8203 15.9322 21.8203C19.9183 21.8203 21.5156 20.1673 21.5876 20.0875L21.5804 20.0948ZM13.6657 20.8705C13.932 20.0875 14.1262 19.2755 14.2485 18.4563H18.7239C18.8318 19.1813 18.9973 19.899 19.2204 20.6023C18.1555 20.9358 17.0474 21.0953 15.9322 21.0735C15.1767 21.0735 14.414 21.0083 13.6729 20.8633L13.6657 20.8705ZM20.7313 9.98826C20.7313 9.98826 20.1845 11.2715 20.0478 14.36C20.0262 14.8095 20.0118 15.3025 20.0118 15.8173C20.0118 16.332 20.0334 16.8323 20.0766 17.3035C20.1557 18.2025 20.3212 19.1015 20.5731 19.9643C20.3644 20.102 20.1413 20.2253 19.9111 20.334C19.6809 19.5873 19.5154 18.8188 19.4146 18.043C19.3931 17.8545 19.2348 17.7168 19.0477 17.7168H13.932C13.7449 17.7168 13.5866 17.8545 13.565 18.043C13.4499 18.9493 13.2412 19.841 12.9462 20.7038C12.7088 20.6385 12.4713 20.5588 12.2411 20.4645C12.5001 19.7033 12.6872 18.9275 12.8023 18.13C12.8311 17.9343 12.7016 17.753 12.5145 17.7095C12.3346 17.666 12.2123 17.492 12.2339 17.3035C12.2555 17.115 12.4066 16.97 12.5937 16.97H18.9254C19.0261 16.97 19.1196 16.9265 19.1916 16.854C19.2635 16.7815 19.2995 16.68 19.2995 16.5858C19.2923 16.3393 19.2851 16.0855 19.2851 15.8245C19.2851 15.578 19.2851 15.3388 19.2851 15.1068C19.2851 15.0053 19.2491 14.911 19.1772 14.8385C19.1052 14.766 19.0117 14.7298 18.911 14.7298H12.5937C12.385 14.7298 12.2195 14.563 12.2195 14.3528C12.2195 14.1425 12.385 13.9758 12.5937 13.9758H18.9829C19.1772 13.9758 19.3427 13.8235 19.3571 13.6278C19.5441 10.9163 20.0478 9.73451 20.0622 9.70551C20.0982 9.61851 20.1701 9.54601 20.2637 9.50976C20.3572 9.47351 20.4579 9.47351 20.5515 9.50976C20.645 9.54601 20.717 9.62576 20.7457 9.72001C20.7817 9.80701 20.7817 9.90126 20.7457 9.98826H20.7313Z" fill="#CAA55E"/>
<path d="M5.1683 9.85775C5.29781 9.85775 5.42013 9.93025 5.49208 10.0462C5.55684 10.1622 5.55684 10.3072 5.49208 10.4232C5.42732 10.5392 5.30501 10.6117 5.1683 10.6117C5.03159 10.6117 4.91647 10.5392 4.84452 10.4232C4.73659 10.2492 4.51354 10.1985 4.34086 10.2927C4.16818 10.3942 4.10342 10.619 4.19696 10.793C4.33366 11.0177 4.54232 11.1917 4.79415 11.2787V11.3512C4.79415 11.5615 4.95964 11.7282 5.1683 11.7282C5.37696 11.7282 5.54244 11.5615 5.54244 11.3512V11.2787C5.87342 11.1627 6.13244 10.8872 6.23318 10.5537C6.33391 10.213 6.27635 9.84325 6.06049 9.5605C5.85184 9.27775 5.52086 9.10375 5.1683 9.10375C5.03879 9.10375 4.91647 9.03125 4.84452 8.91525C4.77976 8.79925 4.77976 8.65425 4.84452 8.53825C4.90927 8.42225 5.03159 8.34975 5.1683 8.34975C5.29781 8.34975 5.42013 8.42225 5.49208 8.53825C5.60001 8.705 5.81586 8.763 5.98854 8.6615C6.16123 8.56 6.22598 8.3425 6.13245 8.16125C5.99574 7.9365 5.78708 7.7625 5.53525 7.6755V7.603C5.53525 7.39275 5.36976 7.226 5.1611 7.226C4.95245 7.226 4.78696 7.39275 4.78696 7.603V7.6755C4.45598 7.7915 4.19696 8.067 4.09623 8.4005C3.99549 8.74125 4.05305 9.111 4.26891 9.39375C4.47757 9.6765 4.80854 9.8505 5.1611 9.84325L5.1683 9.85775Z" fill="#CAA55E"/>
<path d="M12.9606 5.73975H10.3632C10.1545 5.73975 9.98903 5.9065 9.98903 6.11675C9.98903 6.327 10.1545 6.49375 10.3632 6.49375H12.9606C13.5506 6.49375 14.119 6.733 14.5363 7.1535C14.9537 7.574 15.1911 8.14675 15.1911 8.74125V10.8292L15.0832 10.7205C14.9393 10.5755 14.709 10.5827 14.5651 10.7205C14.4212 10.8655 14.4212 11.0975 14.5651 11.2425L15.3062 11.9892C15.4501 12.1342 15.6876 12.1342 15.8315 11.9892L16.5726 11.2425C16.7165 11.0975 16.7093 10.8655 16.5726 10.7205C16.4287 10.5755 16.1984 10.5755 16.0545 10.7205L15.9466 10.8292V8.74125C15.9466 7.951 15.63 7.18975 15.076 6.62425C14.522 6.066 13.7665 5.747 12.975 5.747L12.9606 5.73975Z" fill="#CAA55E"/>
</g>
<defs>
<clipPath id="clip0_576_79">
<rect width="22.2761" height="22.446" fill="white" transform="translate(0.707321 0.875)"/>
</clipPath>
</defs>
</svg>
