<svg width="26" height="25" viewBox="0 0 26 25" fill="none" xmlns="http://www.w3.org/2000/svg">
<g clip-path="url(#clip0_576_146)">
<path fill-rule="evenodd" clip-rule="evenodd" d="M5.09439 10.3147L4.52368 10.8769C4.26508 10.7539 3.97081 10.6836 3.66762 10.6836C2.59754 10.6836 1.72364 11.5357 1.72364 12.5985C1.72364 13.6614 2.58862 14.5135 3.66762 14.5135C4.55043 14.5135 5.29057 13.9337 5.53134 13.1432L6.36957 12.3175C6.37849 12.4141 6.3874 12.5107 6.3874 12.6073C6.3874 14.083 5.17465 15.2864 3.66762 15.2864C2.16059 15.2864 0.947829 14.0655 0.947829 12.5898C0.947829 11.114 2.16059 9.91064 3.66762 9.91064C4.19374 9.91064 4.68419 10.06 5.09439 10.3147ZM5.09439 0.757724L4.52368 1.3199C4.26508 1.19692 3.97081 1.12665 3.66762 1.12665C2.58862 1.11787 1.72364 1.96991 1.72364 3.03278C1.72364 4.09564 2.58862 4.94769 3.66762 4.94769C4.55043 4.94769 5.29057 4.36794 5.53134 3.57739L6.36957 2.75169C6.37849 2.84831 6.3874 2.94494 6.3874 3.04156C6.3874 4.51727 5.17465 5.72068 3.66762 5.72068C2.16059 5.72068 0.947829 4.50849 0.947829 3.03278C0.947829 1.55707 2.16059 0.353661 3.66762 0.353661C4.19374 0.353661 4.68419 0.502988 5.09439 0.757724ZM4.05106 6.44975V9.164C3.92622 9.14644 3.79246 9.14644 3.6587 9.14644C3.52494 9.14644 3.4001 9.14644 3.26634 9.164V6.44975C3.39118 6.46732 3.52494 6.46732 3.6587 6.46732C3.79246 6.46732 3.9173 6.46732 4.05106 6.44975ZM4.05106 16.0067V18.721C3.92622 18.7034 3.79246 18.7034 3.6587 18.7034C3.52494 18.7034 3.4001 18.7034 3.26634 18.721V16.0067C3.39118 16.0243 3.52494 16.0243 3.6587 16.0243C3.79246 16.0243 3.9173 16.0243 4.05106 16.0067ZM3.6587 24.8171C2.16059 24.8171 0.938911 23.6225 0.938911 22.138C0.938911 20.6535 2.15167 19.4588 3.6587 19.4588C5.16573 19.4588 6.37849 20.6535 6.37849 22.138C6.37849 23.6225 5.16573 24.8171 3.6587 24.8171ZM3.6587 24.0529C4.72878 24.0529 5.60268 23.2008 5.60268 22.138C5.60268 21.0751 4.7377 20.223 3.6587 20.223C2.5797 20.223 1.71472 21.0751 1.71472 22.138C1.71472 23.2008 2.5797 24.0529 3.6587 24.0529ZM3.48035 3.9551L2.38352 2.87467C2.23193 2.72534 2.23193 2.47939 2.38352 2.33006C2.53511 2.18073 2.7848 2.18073 2.93639 2.33006L3.75679 3.13819L6.22689 0.713804C6.37849 0.564476 6.62817 0.564476 6.77977 0.713804C6.93136 0.863132 6.93136 1.10908 6.77977 1.25841L4.03323 3.96388C3.88163 4.11321 3.63195 4.11321 3.48035 3.96388V3.9551ZM3.48035 13.5121L2.38352 12.4316C2.23193 12.2823 2.23193 12.0364 2.38352 11.887C2.53511 11.7377 2.7848 11.7377 2.93639 11.887L3.75679 12.6952L6.22689 10.262C6.37849 10.1127 6.62817 10.1127 6.77977 10.262C6.93136 10.4113 6.93136 10.6573 6.77977 10.8066L4.03323 13.5121C3.88163 13.6614 3.63195 13.6614 3.48035 13.5121ZM9.87408 1.88207H25.3992C25.6132 1.88207 25.7915 2.04897 25.7915 2.26857C25.7915 2.48817 25.6221 2.65507 25.3992 2.65507H9.87408C9.66007 2.65507 9.48172 2.48817 9.48172 2.26857C9.48172 2.04897 9.65115 1.88207 9.87408 1.88207ZM9.87408 11.4391H25.3992C25.6132 11.4391 25.7915 11.606 25.7915 11.8256C25.7915 12.0452 25.6221 12.212 25.3992 12.212H9.87408C9.66007 12.212 9.48172 12.0452 9.48172 11.8256C9.48172 11.606 9.65115 11.4391 9.87408 11.4391ZM9.87408 20.996H25.3992C25.6132 20.996 25.7915 21.1629 25.7915 21.3825C25.7915 21.6021 25.6221 21.769 25.3992 21.769H9.87408C9.66007 21.769 9.48172 21.6021 9.48172 21.3825C9.48172 21.1629 9.65115 20.996 9.87408 20.996ZM9.87408 3.41049H19.1927C19.4067 3.41049 19.5851 3.57739 19.5851 3.79699C19.5851 4.01658 19.4156 4.18348 19.1927 4.18348H9.87408C9.66007 4.18348 9.48172 4.01658 9.48172 3.79699C9.48172 3.57739 9.65115 3.41049 9.87408 3.41049ZM9.87408 12.9675H19.1927C19.4067 12.9675 19.5851 13.1344 19.5851 13.354C19.5851 13.5736 19.4156 13.7405 19.1927 13.7405H9.87408C9.66007 13.7405 9.48172 13.5736 9.48172 13.354C9.48172 13.1344 9.65115 12.9675 9.87408 12.9675ZM9.87408 22.5245H19.1927C19.4067 22.5245 19.5851 22.6913 19.5851 22.9109C19.5851 23.1305 19.4156 23.2974 19.1927 23.2974H9.87408C9.66007 23.2974 9.48172 23.1305 9.48172 22.9109C9.48172 22.6913 9.65115 22.5245 9.87408 22.5245Z" fill="#CAA55E"/>
</g>
<defs>
<clipPath id="clip0_576_146">
<rect width="24.8348" height="24.4634" fill="white" transform="translate(0.94783 0.353661)"/>
</clipPath>
</defs>
</svg>
