<svg width="24" height="24" viewBox="0 0 24 24" fill="none" xmlns="http://www.w3.org/2000/svg">
<path d="M12.8489 7.26791L12.6634 7.54795C12.5129 7.77899 12.5759 8.08704 12.8034 8.24107C12.8874 8.29708 12.9855 8.32508 13.08 8.32508C13.241 8.32508 13.402 8.24457 13.4966 8.10104L13.6821 7.821C13.8326 7.58996 13.7696 7.28191 13.5421 7.12788C13.311 6.97386 13.003 7.04037 12.8489 7.26791Z" fill="#7C7C7C"/>
<path d="M14.5053 7.04383L14.3197 7.32388C14.1657 7.55492 14.2322 7.86297 14.4598 8.01699C14.5438 8.073 14.6418 8.10101 14.7363 8.10101C14.8973 8.10101 15.0584 8.02399 15.1529 7.87697L15.3384 7.59692C15.4924 7.36588 15.4259 7.05783 15.1984 6.90381C14.9673 6.74978 14.6593 6.81279 14.5053 7.04383Z" fill="#7C7C7C"/>
<path d="M13.1007 5.51388C12.8697 5.35985 12.5616 5.42286 12.4076 5.6539L12.2221 5.93395C12.0681 6.16498 12.1346 6.47304 12.3621 6.62706C12.4461 6.68307 12.5441 6.71108 12.6387 6.71108C12.7997 6.71108 12.9607 6.63406 13.0552 6.48704L13.2408 6.20699C13.3948 5.97595 13.3283 5.6679 13.1007 5.51388Z" fill="#7C7C7C"/>
<path d="M16.3959 7.87344C16.5569 7.87344 16.718 7.79643 16.8125 7.6494L16.998 7.36936C17.1485 7.13832 17.0855 6.82677 16.858 6.67624C16.6269 6.52222 16.3189 6.58523 16.1649 6.81626L15.9793 7.09631C15.8288 7.32735 15.8918 7.6389 16.1194 7.78943C16.2034 7.84544 16.3014 7.87344 16.3959 7.87344Z" fill="#7C7C7C"/>
<path d="M14.7569 5.2898C14.5259 5.13578 14.2178 5.19879 14.0638 5.42983L13.8783 5.70987C13.7277 5.94091 13.7907 6.25247 14.0183 6.40299C14.1023 6.459 14.2003 6.487 14.2948 6.487C14.4559 6.487 14.6169 6.40999 14.7114 6.26297L14.8969 5.98292C15.0475 5.75188 14.9844 5.44033 14.7569 5.2898Z" fill="#7C7C7C"/>
<path d="M12.66 3.89987C12.429 3.74934 12.121 3.81235 11.9669 4.04339L11.7814 4.32344C11.6309 4.55448 11.6939 4.86253 11.9249 5.01655C12.0089 5.07256 12.107 5.10057 12.2015 5.10057C12.3625 5.10057 12.5235 5.02005 12.618 4.87653L12.8036 4.59648C12.9541 4.36545 12.8911 4.05739 12.66 3.90337V3.89987Z" fill="#7C7C7C"/>
<path d="M23.5028 13.4335H21.2026V1.59282C21.2026 1.02914 20.9155 0.517982 20.4324 0.227391C19.9492 -0.0631999 19.3646 -0.0807054 18.8639 0.181877L17.1799 1.07115C15.5239 0.16087 13.4127 0.661527 12.3519 2.26503C12.2783 2.37706 12.2538 2.5101 12.2783 2.63964C12.3063 2.76919 12.3834 2.88472 12.4919 2.95824L17.7891 6.45934C17.8731 6.51536 17.9676 6.54336 18.0656 6.54336C18.1007 6.54336 18.1322 6.54336 18.1672 6.53286C18.2967 6.50485 18.4123 6.42783 18.4858 6.31929C19.4521 4.85584 19.2315 2.95124 18.0621 1.73986L19.3365 1.06765C19.5256 0.966122 19.7392 0.973124 19.9212 1.08516C20.1033 1.19369 20.2083 1.37925 20.2083 1.59282V13.437H1.69103H0.500656C0.22407 13.437 0 13.6611 0 13.9377C0 14.2143 0.22407 14.4383 0.500656 14.4383H1.19037V18.1285C1.19037 19.746 2.20569 21.1254 3.63063 21.6786L2.84989 23.2821C2.73085 23.5307 2.83239 23.8283 3.08096 23.9508C3.15098 23.9858 3.22451 23.9998 3.29803 23.9998C3.48359 23.9998 3.66214 23.8948 3.74967 23.7197L4.62495 21.9167C4.74748 21.9272 4.87352 21.9342 4.99956 21.9342H19.0039C19.13 21.9342 19.2525 21.9272 19.3751 21.9167L20.2503 23.7197C20.3379 23.8983 20.5164 23.9998 20.702 23.9998C20.7755 23.9998 20.849 23.9823 20.919 23.9508C21.1676 23.8318 21.2691 23.5307 21.1501 23.2821L20.3694 21.6786C21.7943 21.1289 22.8096 19.746 22.8096 18.1285V14.4383H23.4993C23.7759 14.4383 24 14.2143 24 13.9377C24 13.6611 23.7759 13.437 23.4993 13.437L23.5028 13.4335ZM17.8871 5.32498L13.5037 2.42608C14.3825 1.5263 15.8074 1.34074 16.8928 2.06196C17.488 2.45409 17.8941 3.05627 18.0376 3.75999C18.1462 4.29566 18.0937 4.83483 17.8871 5.32498ZM21.8153 18.125C21.8153 19.3469 21.0276 20.3867 19.9352 20.7718L19.3435 19.5569C19.2245 19.3084 18.9234 19.2068 18.6748 19.3259C18.4263 19.4449 18.3247 19.746 18.4438 19.9946L18.8989 20.9329H5.10109L5.55624 19.9946C5.67527 19.746 5.57374 19.4484 5.32516 19.3259C5.07659 19.2033 4.77899 19.3084 4.65646 19.5569L4.06477 20.7718C2.97243 20.3867 2.18468 19.3469 2.18468 18.125V14.4348H21.8083V18.125H21.8153Z" fill="#7C7C7C"/>
</svg>
