<svg width="19" height="27" viewBox="0 0 19 27" fill="none" xmlns="http://www.w3.org/2000/svg">
<path d="M9.5 0C4.25541 0 0 3.88788 0 8.67857C0 16.3929 9.5 27 9.5 27C9.5 27 19 16.3929 19 8.67857C19 3.88788 14.7446 0 9.5 0ZM9.5 13.5C8.74843 13.5 8.01374 13.2738 7.38883 12.85C6.76393 12.4261 6.27687 11.8237 5.98926 11.1189C5.70164 10.4141 5.62639 9.63858 5.77302 8.89037C5.91964 8.14215 6.28155 7.45488 6.81299 6.91545C7.34443 6.37601 8.02153 6.00866 8.75866 5.85983C9.49578 5.711 10.2598 5.78738 10.9542 6.07932C11.6486 6.37126 12.242 6.86564 12.6596 7.49994C13.0771 8.13425 13.3 8.87999 13.3 9.64286C13.2989 10.6655 12.8982 11.6459 12.1858 12.369C11.4734 13.0921 10.5075 13.4989 9.5 13.5Z" fill="#b08c47"/>
</svg>
