<svg width="23" height="16" viewBox="0 0 23 16" fill="none" xmlns="http://www.w3.org/2000/svg">
<path d="M2.21174 0C1.98681 0 1.80279 0.17866 1.80279 0.397022V6.93135H1.58809C0.715662 6.93135 0 7.62614 0 8.47312V12.2812C0 13.1282 0.715662 13.823 1.58809 13.823H2.52867V15.5931C2.52867 15.8147 2.7127 15.9901 2.93762 15.9901C3.16254 15.9901 3.34657 15.8114 3.34657 15.5931V13.823H19.65V15.5931C19.65 15.6989 19.6909 15.8048 19.7659 15.8809C19.8443 15.957 19.9499 16 20.059 16C20.168 16 20.2737 15.957 20.3521 15.8809C20.4304 15.8048 20.4713 15.7022 20.4679 15.5931V13.823H21.4085C22.2809 13.823 22.9966 13.1282 22.9966 12.2812V8.47312C22.9966 7.62614 22.2809 6.93135 21.4085 6.93135H21.1938V0.397022C21.1938 0.17866 21.0098 0 20.7849 0H2.21174ZM2.62409 0.797353H20.3793V6.93466H17.8336V5.1249C17.8336 4.58561 17.3735 4.13565 16.8146 4.13565H12.1049C11.8766 4.13565 11.6687 4.21175 11.4983 4.33747C11.3279 4.21175 11.1166 4.13565 10.8883 4.13565H6.17854C5.61965 4.13565 5.16299 4.5823 5.16299 5.1249V6.93466H2.62068V0.797353H2.62409ZM6.18195 4.92969H10.8917C11.0076 4.92969 11.0928 5.0091 11.0928 5.12159V6.93135H5.9877V5.12159C5.9877 5.00579 6.06608 4.92969 6.18536 4.92969H6.18195ZM12.1083 4.92969H16.818C16.9339 4.92969 17.0157 5.00579 17.0157 5.12159V6.93135H11.9141V5.12159C11.9141 5.0091 11.9959 4.92969 12.1117 4.92969H12.1083ZM1.58809 7.7287H21.4153C21.8481 7.7287 22.1821 8.05294 22.1821 8.47312V9.59801H0.821307V8.47312C0.821307 8.05294 1.15528 7.7287 1.58809 7.7287ZM0.821307 10.3954H22.1787V12.2812C22.1787 12.7014 21.8447 13.0256 21.4119 13.0256H1.58809C1.15528 13.0256 0.821307 12.7014 0.821307 12.2812V10.3954Z" fill="#7C7C7C"/>
</svg>
