<svg width="27" height="24" viewBox="0 0 27 24" fill="none" xmlns="http://www.w3.org/2000/svg">
<path d="M10.0835 5.19948L9.68289 5.54366C8.91695 4.8757 7.88164 4.75512 7.23766 5.30843L7.21195 5.33048C6.92378 5.57808 6.74786 5.94176 6.71692 6.35457C6.68172 6.82117 6.82898 7.31407 7.12234 7.74372L5.72873 8.94104C5.60848 8.72642 5.53656 8.49848 5.52328 8.2754C5.50565 7.97777 5.59517 7.72854 5.77557 7.57363C5.93596 7.43593 5.9542 7.19435 5.81653 7.03406C5.67873 6.8736 5.43703 6.85556 5.27696 6.9931C4.91093 7.30746 4.72723 7.77899 4.75937 8.32084C4.7823 8.70661 4.91577 9.09582 5.14004 9.44689L4.73978 9.79081C4.57941 9.92854 4.56117 10.1701 4.69883 10.3304C4.77461 10.4185 4.88163 10.4637 4.98925 10.4637C5.07757 10.4637 5.16621 10.4333 5.23841 10.3713L5.63878 10.0272C5.95198 10.3016 6.31649 10.492 6.6942 10.5727C6.83021 10.6018 6.96369 10.6162 7.09327 10.6162C7.46962 10.6162 7.8125 10.495 8.08468 10.2612C8.373 10.0135 8.54876 9.64977 8.57986 9.23692C8.6149 8.77052 8.46776 8.27788 8.1747 7.84838L9.59293 6.62979C9.87662 7.14239 9.87371 7.7152 9.54661 7.99631C9.38622 8.13405 9.36799 8.37562 9.50565 8.53593C9.6436 8.69623 9.88484 8.71434 10.0452 8.57677C10.6893 8.02337 10.7263 6.98181 10.1815 6.12407L10.5821 5.77992C10.7425 5.64219 10.7607 5.40061 10.6231 5.24035C10.4849 5.07986 10.2434 5.06185 10.0835 5.19948ZM7.58606 9.68076C7.4058 9.83568 7.14574 9.88671 6.85427 9.8244C6.63583 9.77769 6.42147 9.67242 6.22749 9.52142L7.59017 8.35059C7.72416 8.56836 7.80387 8.80328 7.81759 9.03252C7.83417 9.30803 7.75181 9.53824 7.58606 9.68076ZM7.70739 7.24103C7.54358 6.97333 7.45998 6.67776 7.47993 6.41197C7.49115 6.26426 7.54017 6.05741 7.71026 5.91118L7.73598 5.88915C8.0632 5.608 8.63015 5.69148 9.09432 6.04936L7.70739 7.24103Z" fill="#7C7C7C"/>
<path d="M11.7622 12.0142C11.551 12.0142 11.3796 12.1855 11.3796 12.3968L11.3779 18.8035C11.3779 18.9049 11.4181 19.0022 11.4899 19.074C11.5616 19.1458 11.6589 19.1862 11.7604 19.1862L14.9584 19.1869C14.9603 19.187 14.9635 19.1868 14.9639 19.187C14.9657 19.187 14.9675 19.187 14.9693 19.187L18.1671 19.1877C18.3783 19.1877 18.5499 19.0164 18.5499 18.8052L18.5515 12.3985C18.5515 12.297 18.5113 12.1997 18.4396 12.1279C18.3678 12.0561 18.2705 12.0158 18.169 12.0158L11.7622 12.0142ZM15.3482 12.7804L17.7861 12.7809L17.7855 15.277L15.3474 15.2764L15.3482 12.7804ZM15.3473 16.0416L17.7854 16.0422L17.7848 18.4224L15.3467 18.4218L15.3473 16.0416ZM12.1447 12.7795L14.5829 12.7801L14.5822 15.2761L12.1441 15.2755L12.1447 12.7795ZM12.1439 16.0408L14.582 16.0414L14.5814 18.4216L12.1433 18.421L12.1439 16.0408Z" fill="#7C7C7C"/>
<path d="M26.5739 10.2693L23.6376 7.74757L23.6388 3.45719C23.6388 2.90365 23.1885 2.45318 22.635 2.45301L20.3331 2.45244C20.3329 2.45244 20.3329 2.45244 20.3328 2.45244C19.7802 2.45244 19.3306 2.90272 19.3303 3.45625L19.3302 4.0484L17.4843 2.46301C17.3242 2.32547 17.0825 2.34352 16.9447 2.50397C16.807 2.6643 16.8253 2.90585 16.9856 3.04355L19.4633 5.17153C19.5769 5.26901 19.7367 5.29128 19.8723 5.229C20.0081 5.1666 20.0953 5.03084 20.0953 4.88134L20.0956 3.45651C20.0956 3.3248 20.202 3.2177 20.3328 3.2177L22.6347 3.21827C22.7664 3.21831 22.8736 3.32551 22.8736 3.45708L22.8723 7.92316C22.8723 8.03476 22.9211 8.14081 23.0057 8.21352L26.0745 10.8492C26.2069 10.9636 26.167 11.1075 26.1516 11.1489C26.132 11.2013 26.0687 11.3232 25.9005 11.3232L23.2542 11.3226C23.1527 11.3226 23.0553 11.3629 22.9835 11.4346C22.9118 11.5063 22.8715 11.6036 22.8715 11.7051L22.8691 21.4775C22.8689 22.1037 22.3594 22.6129 21.7334 22.6129C21.7333 22.6129 21.7331 22.6129 21.7331 22.6129L8.19406 22.6096C7.89065 22.6095 7.60546 22.4913 7.39098 22.2768C7.17664 22.0624 7.05857 21.7771 7.05872 21.4736L7.06021 15.3744C7.06021 15.1631 6.88892 14.9917 6.67773 14.9917C6.46639 14.9917 6.29495 15.1629 6.29495 15.3742L6.29346 21.4734C6.2933 21.9813 6.49089 22.4587 6.84976 22.8178C7.20864 23.1769 7.68603 23.3747 8.19376 23.3749L21.7328 23.3782C21.7331 23.3782 21.7331 23.3782 21.7334 23.3782C22.7812 23.3782 23.634 22.5258 23.6343 21.4777L23.6366 12.0879L25.9002 12.0885C25.9004 12.0885 25.9004 12.0885 25.9005 12.0885C26.3367 12.0885 26.7167 11.8245 26.8689 11.4158C27.0214 11.0058 26.906 10.556 26.5739 10.2693Z" fill="#7C7C7C"/>
<path d="M15.942 5.19423L16.1154 2.88615C16.153 2.38603 15.9936 1.90125 15.6665 1.52119L15.0691 0.826549C14.7419 0.446408 14.2865 0.216355 13.7865 0.178803L11.4784 0.00538842C10.9773 -0.032129 10.4935 0.127199 10.1134 0.45423L0.558678 8.6734C-0.113469 9.25175 -0.190009 10.2692 0.388275 10.9415L3.47147 14.5255C3.75157 14.8512 4.14181 15.0483 4.57018 15.0805C4.61144 15.0836 4.65238 15.0851 4.69319 15.0851C5.07762 15.0851 5.44516 14.9492 5.73945 14.6959L15.2941 6.47685C15.6743 6.14988 15.9043 5.69443 15.942 5.19423ZM14.7951 5.89661L5.24039 14.1158C5.06969 14.2626 4.85148 14.3336 4.62758 14.3174C4.40293 14.3005 4.19847 14.1972 4.05169 14.0265L0.968514 10.4425C0.665398 10.09 0.705442 9.5567 1.05774 9.25355L10.6123 1.03442C10.8161 0.859273 11.0702 0.765306 11.3359 0.765306C11.3642 0.765306 11.3926 0.766344 11.421 0.768473L13.7292 0.941904C14.0254 0.964159 14.2952 1.10044 14.4889 1.32561L15.0864 2.02025C15.2802 2.24539 15.3745 2.53252 15.3522 2.8288L15.1788 5.13688C15.1565 5.43316 15.0202 5.70298 14.7951 5.89661Z" fill="#7C7C7C"/>
<path d="M13.3398 2.22465C13.1236 2.41066 13.0991 2.73679 13.2851 2.95307C13.4712 3.16931 13.7973 3.19383 14.0135 3.00777C14.2298 2.82178 14.2543 2.49563 14.0683 2.27937C13.8822 2.06312 13.5561 2.0386 13.3398 2.22465Z" fill="#7C7C7C"/>
</svg>
