<svg width="11" height="16" viewBox="0 0 11 16" fill="none" xmlns="http://www.w3.org/2000/svg">
<path d="M5.5 8.5H5.50057C6.22255 8.49918 6.9107 8.20066 7.41517 7.67653C7.91903 7.15305 8.19923 6.44721 8.2 5.71481V5.71429C8.2 5.16748 8.04402 4.63149 7.74977 4.17395C7.4554 3.71623 7.03502 3.35651 6.53955 3.14329C6.04384 2.92995 5.4972 2.8738 4.96961 2.98284C4.44217 3.09184 3.9604 3.36037 3.58412 3.75131C3.20804 4.14204 2.95395 4.63759 2.85119 5.17435C2.74844 5.71103 2.80102 6.2675 3.00302 6.77416C3.20506 7.28095 3.54844 7.71717 3.99261 8.02552L4.27775 7.61479L3.99261 8.02552C4.43703 8.33404 4.96164 8.5 5.5 8.5ZM5.5 15.2216C5.37095 15.0638 5.21341 14.8677 5.0348 14.6388C4.52586 13.9867 3.8479 13.0709 3.17082 12.0157C2.49293 10.9592 1.82139 9.7715 1.32062 8.57484C0.81783 7.37337 0.5 6.19292 0.5 5.14286C0.5 2.61115 2.70766 0.5 5.5 0.5C8.29234 0.5 10.5 2.61115 10.5 5.14286C10.5 6.19292 10.1822 7.37337 9.67938 8.57484C9.17861 9.7715 8.50707 10.9592 7.82918 12.0157C7.1521 13.0709 6.47414 13.9867 5.9652 14.6388C5.78659 14.8677 5.62905 15.0638 5.5 15.2216Z" stroke="#7C7C7C"/>
</svg>
