<svg width="115" height="107" viewBox="0 0 115 107" fill="none" xmlns="http://www.w3.org/2000/svg">
<path d="M78.1897 10.8653C88.954 17.0713 96.9444 27.1509 100.53 39.0473L101.863 44.4959C104.072 56.5896 101.649 69.0718 95.0768 79.4614C88.5045 89.851 78.2634 97.3871 66.3892 100.572C54.515 103.757 41.8772 102.357 30.9878 96.6509C20.0983 90.9449 11.7546 81.3503 7.61513 69.7742L6.02669 64.4111C3.84723 55.1105 4.43664 45.3755 7.72226 36.4058C11.0079 27.4361 16.8461 19.6237 24.5175 13.9314C32.1888 8.23922 41.358 4.9159 50.895 4.37108C60.432 3.82626 69.92 6.08376 78.1897 10.8653Z" fill="white"/>
<path d="M7.6322 26.818C0.978794 38.373 -1.08726 52.007 1.84405 65.0143C4.77536 78.0217 12.4898 89.4516 23.4563 97.0357C34.4229 104.62 47.8399 107.804 61.0448 105.956C74.2497 104.108 86.2771 97.3626 94.7402 87.0592L111.069 89.5529C111.684 89.6492 112.314 89.5563 112.876 89.2865C113.437 89.0166 113.904 88.5826 114.213 88.0418C114.522 87.501 114.66 86.8791 114.608 86.2583C114.556 85.6375 114.316 85.0472 113.921 84.5655L103.553 71.7214C108.194 59.2194 107.964 45.4295 102.91 33.0891C97.8548 20.7487 88.3446 10.7601 76.267 5.10621C64.1893 -0.547675 50.4272 -1.45346 37.7127 2.56864C24.9982 6.59074 14.2608 15.2466 7.6322 26.818ZM78.1214 10.8141C88.8959 17.0046 96.904 27.0713 100.513 38.9619L101.845 44.4105C104.068 56.4963 101.664 68.976 95.1097 79.3709C88.5559 89.7658 78.3321 97.3156 66.469 100.521C54.6058 103.726 41.9711 102.352 31.0742 96.6715C20.1773 90.9913 11.8155 81.4204 7.64929 69.8597L6.04377 64.4795C3.85658 55.1835 4.43524 45.451 7.70853 36.4797C10.9818 27.5085 16.8069 19.6901 24.4667 13.987C32.1265 8.28388 41.2867 4.94497 50.8198 4.38123C60.3529 3.81748 69.8428 6.05352 78.1214 10.8141Z" fill="#2A3F77"/>
<path d="M46.2672 81.4228C45.2148 81.422 44.1737 81.2064 43.2075 80.7894C42.2413 80.3724 41.3703 79.7626 40.6478 78.9975L23.2433 60.3974C21.8504 58.9025 21.1083 56.9155 21.1804 54.8735C21.2525 52.8315 22.1328 50.9018 23.6276 49.5089C25.1225 48.1159 27.1095 47.3738 29.1515 47.4459C31.1935 47.518 33.1232 48.3983 34.5161 49.8932L45.8231 61.9687L72.5191 28.082C73.8103 26.5745 75.6346 25.625 77.6101 25.4322C79.5855 25.2395 81.5589 25.8184 83.1172 27.0478C84.6755 28.2772 85.6977 30.0617 85.9699 32.0278C86.2422 33.9939 85.7432 35.989 84.5776 37.5956L52.2964 78.5876C51.6109 79.4554 50.7466 80.1654 49.7622 80.6693C48.7778 81.1733 47.6965 81.4594 46.5917 81.5082L46.2672 81.4228Z" fill="#CAA55E"/>
</svg>
