<svg width="103" height="111" viewBox="0 0 103 111" fill="none" xmlns="http://www.w3.org/2000/svg">
<path d="M47.3227 107.946C44.9998 106.648 44.9827 104.53 47.3227 103.129C48.6086 102.456 50.0352 102.096 51.4865 102.078C52.9378 102.06 54.3728 102.385 55.6748 103.027C57.9977 104.325 58.0319 106.443 55.6748 107.843C54.3877 108.512 52.9615 108.87 51.5109 108.888C50.0604 108.906 48.6259 108.583 47.3227 107.946Z" fill="#1B2023"/>
<path d="M57.0583 106.528H56.1018C55.8181 106.007 55.3835 105.584 54.855 105.315C53.7899 104.789 52.6147 104.523 51.4266 104.541C50.2385 104.559 49.0718 104.859 48.023 105.418C47.5059 105.699 47.0839 106.127 46.8103 106.648H45.8538L46.9811 108.356C47.2628 108.758 47.6379 109.086 48.0742 109.312C49.1379 109.841 50.3125 110.11 51.5005 110.095C52.6886 110.08 53.856 109.782 54.9062 109.227C55.3305 108.983 55.6974 108.651 55.9822 108.253L57.0583 106.528Z" fill="#1B2023"/>
<path d="M45.3072 106.426C41.8912 104.495 41.8912 101.302 45.3072 99.3032C47.2081 98.3153 49.3147 97.7882 51.4568 97.7644C53.599 97.7407 55.7167 98.221 57.639 99.1665C61.055 101.097 61.055 104.291 57.639 106.289C55.7381 107.277 53.6315 107.804 51.4894 107.828C49.3473 107.851 47.2296 107.371 45.3072 106.426Z" fill="#455A64"/>
<path d="M45.0681 105.264C41.5155 103.266 41.4813 99.9522 44.9827 97.8855C46.9556 96.8535 49.1449 96.3031 51.3713 96.2794C53.5977 96.2556 55.7982 96.7592 57.7927 97.7489C61.3453 99.7472 61.3795 103.061 57.7927 105.127C55.8315 106.148 53.6575 106.692 51.4467 106.716C49.236 106.74 47.0508 106.242 45.0681 105.264Z" fill="#37474F"/>
<path d="M44.8973 103.983C41.2422 101.933 41.2081 98.5345 44.8119 96.3995C46.8351 95.3514 49.076 94.793 51.3544 94.7693C53.6328 94.7456 55.8849 95.2571 57.9294 96.2629C61.5845 98.3296 61.6187 101.711 58.0148 103.846C55.9933 104.9 53.7517 105.461 51.4724 105.485C49.1931 105.509 46.9403 104.994 44.8973 103.983Z" fill="#455A64"/>
<path d="M44.7094 102.702C40.986 100.601 40.9348 97.1169 44.7094 94.9307C46.7846 93.853 49.0844 93.279 51.4226 93.2553C53.7609 93.2315 56.0718 93.7587 58.1685 94.794C61.8919 96.8949 61.9431 100.379 58.1685 102.565C56.0921 103.639 53.7927 104.211 51.4552 104.235C49.1177 104.258 46.8072 103.733 44.7094 102.702Z" fill="#37474F"/>
<path d="M44.5899 101.421C40.764 99.2519 40.7298 95.6993 44.5045 93.4618C46.6257 92.3547 48.9788 91.7652 51.3714 91.7415C53.7639 91.7178 56.1282 92.2604 58.271 93.3251C62.0969 95.4772 62.1311 99.0299 58.3564 101.267C56.2353 102.373 53.8834 102.963 51.4915 102.99C49.0997 103.017 46.7352 102.479 44.5899 101.421Z" fill="#455A64"/>
<path d="M44.3678 100.123C40.4394 97.9197 40.4053 94.2816 44.2825 91.9929C46.4538 90.8617 48.8613 90.2582 51.3096 90.2315C53.7578 90.2048 56.1779 90.7556 58.3735 91.8392C62.2848 94.0425 62.3189 97.6976 58.4588 99.9863C56.2861 101.115 53.8779 101.715 51.4297 101.739C48.9814 101.763 46.5621 101.209 44.3678 100.123Z" fill="#37474F"/>
<path d="M61.6699 90.729C61.5809 89.813 61.2469 88.9378 60.703 88.1955C60.159 87.4531 59.4251 86.871 58.5784 86.5102C56.2804 85.3715 53.7459 84.7918 51.1814 84.8185C48.6169 84.8453 46.095 85.4776 43.8213 86.664C42.981 87.0422 42.2583 87.6401 41.7293 88.3945C41.2003 89.149 40.8845 90.0322 40.8152 90.951C40.8152 91.5488 40.8152 93.8888 40.8152 94.4866C40.9027 95.4075 41.2379 96.2875 41.7852 97.0333C42.3325 97.779 43.0715 98.3627 43.9238 98.7224C46.2199 99.857 48.7511 100.434 51.3122 100.408C53.8732 100.381 56.3918 99.7509 58.6638 98.5687C59.5065 98.1891 60.2307 97.5886 60.7599 96.8309C61.2892 96.0732 61.6036 95.1864 61.6699 94.2645C61.7724 93.6667 61.7553 91.3268 61.6699 90.729Z" fill="#CAA55E"/>
<path d="M50.5679 19.642C42.2614 19.7232 34.3268 23.0986 28.5076 29.0267C22.6885 34.9548 19.4607 42.9505 19.5335 51.2571C19.7897 76.1597 40.3711 80.0881 40.4907 90.1141C40.5842 91.0661 40.9315 91.9756 41.4963 92.7477C42.0611 93.5198 42.8227 94.1262 43.7017 94.5037C46.0946 95.6918 48.7346 96.2972 51.4062 96.2705C54.0777 96.2438 56.705 95.5857 59.0737 94.3499C59.9441 93.952 60.6926 93.3292 61.242 92.5456C61.7915 91.7619 62.1219 90.846 62.1994 89.8921C62.0969 79.849 82.5929 75.5107 82.3367 50.6081C82.2287 42.2894 78.8213 34.3542 72.8638 28.5473C66.9064 22.7404 58.8866 19.5372 50.5679 19.642Z" fill="#CAA55E"/>
<g style="mix-blend-mode:screen" opacity="0.7">
<path d="M50.5679 19.642C42.2614 19.7232 34.3268 23.0986 28.5076 29.0267C22.6885 34.9548 19.4607 42.9505 19.5335 51.2571C19.7897 76.1597 40.3711 80.0881 40.4907 90.1141C40.5842 91.0661 40.9315 91.9756 41.4963 92.7477C42.0611 93.5198 42.8227 94.1262 43.7017 94.5037C46.0946 95.6918 48.7346 96.2972 51.4062 96.2705C54.0777 96.2438 56.705 95.5857 59.0737 94.3499C59.9441 93.952 60.6926 93.3292 61.242 92.5456C61.7915 91.7619 62.1219 90.846 62.1994 89.8921C62.0969 79.849 82.5929 75.5107 82.3367 50.6081C82.2287 42.2894 78.8213 34.3542 72.8638 28.5473C66.9064 22.7404 58.8866 19.5372 50.5679 19.642Z" fill="#CAA55E"/>
</g>
<path d="M44.9486 93.9571C41.3959 91.9587 41.3618 88.6452 44.8632 86.5615C46.8387 85.5361 49.0281 84.9909 51.2538 84.9701C53.4796 84.9494 55.6788 85.4536 57.6732 86.4419C61.2258 88.4403 61.26 91.7538 57.6732 93.8205C55.7107 94.8372 53.5371 95.3792 51.3271 95.4029C49.1171 95.4266 46.9324 94.9314 44.9486 93.9571Z" fill="#CAA55E"/>
<path opacity="0.55" d="M44.9486 93.9571C41.3959 91.9587 41.3618 88.6452 44.8632 86.5615C46.8387 85.5361 49.0281 84.9909 51.2538 84.9701C53.4796 84.9494 55.6788 85.4536 57.6732 86.4419C61.2258 88.4403 61.26 91.7538 57.6732 93.8205C55.7107 94.8372 53.5371 95.3792 51.3271 95.4029C49.1171 95.4266 46.9324 94.9314 44.9486 93.9571Z" fill="white"/>
<path opacity="0.25" d="M59.2616 92.5736C58.8161 93.0396 58.3038 93.4368 57.7415 93.7521C55.7703 94.78 53.5843 95.3281 51.3614 95.3519C49.1384 95.3756 46.9413 94.8743 44.9486 93.8888C44.3801 93.5891 43.8615 93.203 43.4113 92.7444C43.8498 92.273 44.3564 91.87 44.9144 91.5488C46.8886 90.5208 49.0773 89.9727 51.3031 89.9489C53.5288 89.9252 55.7287 90.4265 57.7244 91.4122C58.2881 91.7263 58.8054 92.1172 59.2616 92.5736Z" fill="#CAA55E"/>
<path d="M59.2616 92.5736C58.8161 93.0396 58.3038 93.4368 57.7415 93.7521C55.7703 94.78 53.5843 95.3281 51.3614 95.3519C49.1384 95.3756 46.9413 94.8743 44.9486 93.8888C44.3801 93.5891 43.8615 93.203 43.4113 92.7444C43.8498 92.273 44.3564 91.87 44.9144 91.5488C46.8886 90.5208 49.0773 89.9727 51.3031 89.9489C53.5288 89.9252 55.7287 90.4265 57.7244 91.4122C58.2881 91.7263 58.8054 92.1172 59.2616 92.5736Z" fill="#CAA55E"/>
<path opacity="0.35" d="M59.2616 92.5736C58.8161 93.0396 58.3038 93.4368 57.7415 93.7521C55.7703 94.78 53.5843 95.3281 51.3614 95.3519C49.1384 95.3756 46.9413 94.8743 44.9486 93.8888C44.3801 93.5891 43.8615 93.203 43.4113 92.7444C43.8498 92.273 44.3564 91.87 44.9144 91.5488C46.8886 90.5208 49.0773 89.9727 51.3031 89.9489C53.5288 89.9252 55.7287 90.4265 57.7244 91.4122C58.2881 91.7263 58.8054 92.1172 59.2616 92.5736Z" fill="white"/>
<path opacity="0.35" d="M75.3339 35.8851C73.3526 32.9303 70.2099 30.5391 66.5889 32.1446C66.2006 32.3248 65.8339 32.5482 65.4958 32.8107C64.9036 33.3396 64.4562 34.011 64.1962 34.7613C63.9361 35.5116 63.872 36.3158 64.0098 37.0978C64.4881 40.138 67.4258 41.9997 69.1338 44.3397C71.0251 46.9151 72.4422 49.807 73.3184 52.8797C73.5634 53.9959 73.924 55.0835 74.3945 56.1249C74.697 56.6513 75.1848 57.0462 75.7626 57.2325C76.3405 57.4188 76.9671 57.3832 77.5201 57.1326C78.087 56.7499 78.5598 56.2437 78.9029 55.6521C79.2461 55.0604 79.4507 54.3987 79.5014 53.7166C80.5238 47.4556 79.0254 41.0444 75.3339 35.8851ZM76.1708 59.1651C75.6121 59.1518 75.0643 59.3215 74.6111 59.6483C74.1578 59.9752 73.8238 60.4413 73.66 60.9756C73.5141 61.4399 73.4691 61.93 73.528 62.4131C73.587 62.8962 73.7484 63.3611 74.0016 63.7767C74.2946 64.2165 74.7474 64.5249 75.2639 64.6365C75.7804 64.7481 76.3202 64.6542 76.7686 64.3745C77.221 64.0768 77.5922 63.671 77.8487 63.1939C78.1051 62.7168 78.2387 62.1834 78.2375 61.6417C78.2595 61.0554 78.0696 60.4806 77.7027 60.0227C77.3357 59.5648 76.8162 59.2543 76.2391 59.1481L76.1708 59.1651Z" fill="white"/>
<path d="M55.0087 93.2227H54.6329C54.5134 82.0523 55.0941 75.0495 56.563 69.806C56.9337 68.4527 57.4313 67.1374 58.0489 65.8776C55.4407 65.0388 53.0416 63.6529 51.012 61.8125C49.0147 63.6973 46.6392 65.1354 44.0433 66.0313C44.6948 67.2741 45.2212 68.5786 45.6147 69.9255C47.1861 75.0495 47.9205 82.1207 48.04 93.291H47.6643C47.5618 82.1719 46.8274 75.2033 45.2731 70.028C44.8743 68.6804 44.3422 67.3759 43.6846 66.1338C43.3429 66.2359 42.9949 66.3158 42.6428 66.3729C39.0047 67.0219 36.8697 65.9972 36.084 64.8186C35.8101 64.422 35.6633 63.9514 35.6633 63.4693C35.6633 62.9873 35.8101 62.5166 36.084 62.12C36.3511 61.7261 36.7289 61.4202 37.1696 61.2409C37.6104 61.0615 38.0945 61.0168 38.5606 61.1123C40.1491 61.3343 42.1474 62.6836 43.8384 65.7068C46.3856 64.8344 48.7155 63.4248 50.6704 61.5734C50.2825 61.1997 49.9334 60.7876 49.6285 60.3437C48.9354 59.5145 48.4765 58.5152 48.2994 57.4491C48.1222 56.3831 48.2332 55.289 48.6208 54.2803C48.8309 53.8675 49.1511 53.5209 49.546 53.2788C49.9409 53.0368 50.3951 52.9086 50.8582 52.9086C51.3214 52.9086 51.7756 53.0368 52.1705 53.2788C52.5653 53.5209 52.8856 53.8675 53.0957 54.2803C53.5051 55.2795 53.6403 56.37 53.4871 57.439C53.334 58.5079 52.8981 59.5166 52.2246 60.3608C51.9176 60.8089 51.5748 61.2316 51.1998 61.6247C53.2418 63.4254 55.6477 64.7653 58.2539 65.5531C59.9619 62.5128 61.8407 61.1123 63.3779 60.8561C63.8415 60.7493 64.3265 60.7833 64.7707 60.9537C65.2149 61.1241 65.5982 61.4231 65.8716 61.8125C66.1617 62.195 66.3271 62.6575 66.3454 63.1372C66.3637 63.6169 66.2341 64.0906 65.974 64.4941C65.2054 65.6897 63.1046 66.7657 59.4495 66.2021C59.1079 66.2021 58.7492 66.0655 58.4076 65.9801C57.7732 67.2345 57.2695 68.5509 56.9046 69.9085C55.4528 75.1691 54.8379 82.0865 55.0087 93.2227ZM58.5955 65.6555L59.5178 65.8434C62.9338 66.39 64.9834 65.3993 65.6837 64.3062C65.9205 63.9716 66.0476 63.5718 66.0476 63.1619C66.0476 62.752 65.9205 62.3521 65.6837 62.0175C65.4462 61.6841 65.1142 61.4294 64.7307 61.2863C64.3471 61.1433 63.9295 61.1183 63.5316 61.2148C62.0456 61.5051 60.1498 62.769 58.5955 65.6555ZM38.0995 61.4368C37.7646 61.4272 37.4326 61.5019 37.1342 61.6541C36.8357 61.8063 36.5803 62.0311 36.3915 62.3079C36.1579 62.647 36.0329 63.049 36.0329 63.4608C36.0329 63.8725 36.1579 64.2746 36.3915 64.6137C37.1259 65.6897 39.1243 66.6291 42.5915 66.0142C42.9024 65.9622 43.2102 65.8938 43.5138 65.8093C41.8058 62.9569 39.9783 61.6759 38.5606 61.471L38.0995 61.4368ZM50.8924 53.2384C50.4944 53.2419 50.1054 53.3576 49.77 53.5721C49.4347 53.7866 49.1666 54.0912 48.9965 54.4511C48.6558 55.4028 48.5664 56.4263 48.737 57.4226C48.9075 58.419 49.3322 59.3545 49.9701 60.1387C50.2695 60.5613 50.6069 60.9558 50.9778 61.3172C51.3446 60.9505 51.6762 60.5502 51.9685 60.1216C52.5906 59.3219 52.9974 58.376 53.1499 57.3743C53.3024 56.3726 53.1955 55.3485 52.8395 54.3998C52.655 54.0481 52.3774 53.7537 52.0371 53.5489C51.6967 53.3441 51.3067 53.2367 50.9095 53.2384H50.8924Z" fill="#455A64"/>
<path d="M51.4219 14.091C51.1093 14.091 50.8096 13.9668 50.5885 13.7458C50.3675 13.5248 50.2433 13.225 50.2433 12.9125V1.17852C50.2433 0.865955 50.3675 0.566194 50.5885 0.345178C50.8096 0.124163 51.1093 0 51.4219 0C51.7344 0 52.0342 0.124163 52.2552 0.345178C52.4762 0.566194 52.6004 0.865955 52.6004 1.17852V12.9125C52.6004 13.0672 52.5699 13.2205 52.5107 13.3635C52.4515 13.5065 52.3646 13.6364 52.2552 13.7458C52.1458 13.8553 52.0159 13.9421 51.8729 14.0013C51.7299 14.0605 51.5766 14.091 51.4219 14.091Z" fill="#CAA55E"/>
<path d="M70.7052 19.3004C70.4962 19.3 70.2907 19.2472 70.1074 19.1467C69.9621 19.0676 69.8347 18.9592 69.7334 18.8283C69.6321 18.6974 69.5591 18.547 69.5189 18.3864C69.4788 18.2259 69.4724 18.0587 69.5002 17.8956C69.528 17.7324 69.5894 17.5768 69.6804 17.4387L75.5389 7.19066C75.6951 6.91886 75.953 6.72028 76.2557 6.6386C76.5584 6.55692 76.8811 6.59883 77.1529 6.75511C77.4247 6.9114 77.6233 7.16925 77.705 7.47194C77.7866 7.77464 77.7448 8.09738 77.5885 8.36917L71.73 18.5318C71.6534 18.7463 71.5154 18.9335 71.3332 19.0701C71.151 19.2068 70.9326 19.2869 70.7052 19.3004Z" fill="#CAA55E"/>
<path d="M84.7791 33.4427C84.5724 33.4443 84.3688 33.3914 84.189 33.2895C84.0091 33.1876 83.8592 33.0401 83.7543 32.8619C83.5982 32.5896 83.5555 32.2667 83.6354 31.9632C83.7153 31.6596 83.9114 31.3996 84.1813 31.2393L94.3439 25.3638C94.4785 25.2864 94.627 25.2363 94.7809 25.2163C94.9349 25.1963 95.0913 25.2069 95.2412 25.2473C95.391 25.2877 95.5315 25.3573 95.6545 25.452C95.7775 25.5468 95.8806 25.6648 95.958 25.7994C96.0354 25.9339 96.0855 26.0824 96.1055 26.2364C96.1255 26.3903 96.1149 26.5467 96.0745 26.6966C96.0341 26.8465 95.9645 26.9869 95.8698 27.1099C95.775 27.2329 95.657 27.336 95.5225 27.4134L85.3769 33.2889C85.1937 33.3895 84.9881 33.4423 84.7791 33.4427Z" fill="#CAA55E"/>
<path d="M101.637 52.726H89.9031C89.5906 52.726 89.2908 52.6018 89.0698 52.3808C88.8488 52.1598 88.7246 51.86 88.7246 51.5474C88.7246 51.2349 88.8488 50.9351 89.0698 50.7141C89.2908 50.4931 89.5906 50.3689 89.9031 50.3689H101.637C101.95 50.3689 102.249 50.4931 102.47 50.7141C102.691 50.9351 102.816 51.2349 102.816 51.5474C102.816 51.86 102.691 52.1598 102.47 52.3808C102.249 52.6018 101.95 52.726 101.637 52.726Z" fill="#CAA55E"/>
<path d="M94.8563 77.8677C94.6473 77.8674 94.4418 77.8145 94.2585 77.714L84.0105 71.8555C83.8652 71.7765 83.7378 71.668 83.6365 71.5372C83.5352 71.4063 83.4622 71.2559 83.422 71.0953C83.3819 70.9348 83.3755 70.7676 83.4033 70.6045C83.4311 70.4413 83.4925 70.2857 83.5835 70.1475C83.7405 69.8788 83.9975 69.683 84.2983 69.603C84.5991 69.523 84.9193 69.5653 85.1891 69.7205L95.4371 75.579C95.5733 75.6536 95.6931 75.7548 95.7895 75.8766C95.8859 75.9984 95.9569 76.1382 95.9983 76.2879C96.0397 76.4376 96.0507 76.5941 96.0306 76.7481C96.0104 76.9021 95.9596 77.0505 95.8811 77.1845C95.7884 77.3807 95.644 77.5479 95.4635 77.6682C95.283 77.7886 95.073 77.8575 94.8563 77.8677Z" fill="#CAA55E"/>
<path d="M7.74833 77.7311C7.54026 77.7292 7.3363 77.6731 7.15656 77.5683C6.97683 77.4634 6.82757 77.3135 6.72354 77.1333C6.56828 76.8635 6.52603 76.5433 6.60603 76.2425C6.68603 75.9417 6.88178 75.6847 7.15054 75.5278L17.2619 69.6522C17.3957 69.5596 17.5472 69.4957 17.7069 69.4645C17.8666 69.4333 18.031 69.4355 18.1898 69.471C18.3486 69.5065 18.4983 69.5745 18.6296 69.6707C18.7608 69.7669 18.8707 69.8893 18.9523 70.03C19.0339 70.1708 19.0855 70.3269 19.1038 70.4886C19.1221 70.6503 19.1067 70.814 19.0586 70.9695C19.0106 71.1249 18.9308 71.2687 18.8244 71.3918C18.718 71.5149 18.5873 71.6147 18.4404 71.6848L8.2949 77.5603C8.13113 77.6648 7.94246 77.7237 7.74833 77.7311Z" fill="#CAA55E"/>
<path d="M12.7869 52.5551H1.05296C0.762655 52.5203 0.495199 52.3802 0.301173 52.1615C0.107147 51.9427 0 51.6605 0 51.3681C0 51.0757 0.107147 50.7934 0.301173 50.5747C0.495199 50.356 0.762655 50.2159 1.05296 50.181H12.7869C12.9417 50.181 13.095 50.2115 13.2379 50.2707C13.3809 50.33 13.5108 50.4168 13.6203 50.5262C13.7297 50.6356 13.8165 50.7656 13.8757 50.9086C13.935 51.0515 13.9655 51.2048 13.9655 51.3595C13.9655 51.5143 13.935 51.6676 13.8757 51.8105C13.8165 51.9535 13.7297 52.0835 13.6203 52.1929C13.5108 52.3023 13.3809 52.3891 13.2379 52.4484C13.095 52.5076 12.9417 52.5381 12.7869 52.5381V52.5551Z" fill="#CAA55E"/>
<path d="M17.9963 33.2889C17.7873 33.2886 17.5817 33.2358 17.3985 33.1352L7.15051 27.2768C7.00514 27.1977 6.87777 27.0893 6.77647 26.9584C6.67517 26.8276 6.60215 26.6771 6.56201 26.5165C6.52187 26.356 6.51549 26.1888 6.5433 26.0257C6.5711 25.8626 6.63247 25.707 6.72351 25.5688C6.8805 25.3 7.13744 25.1043 7.43824 25.0243C7.73904 24.9443 8.05927 24.9865 8.32904 25.1418L18.577 31.0002C18.8032 31.1286 18.9805 31.3282 19.0813 31.5679C19.1822 31.8076 19.2009 32.0739 19.1347 32.3254C19.0684 32.5768 18.9208 32.7993 18.7149 32.9582C18.509 33.117 18.2563 33.2033 17.9963 33.2035V33.2889Z" fill="#CAA55E"/>
<path d="M32.1386 19.215C31.9305 19.2131 31.7265 19.157 31.5468 19.0521C31.3671 18.9473 31.2178 18.7974 31.1138 18.6172L25.2382 8.55705C25.0797 8.28525 25.0356 7.96161 25.1157 7.65731C25.1958 7.35302 25.3934 7.09299 25.6652 6.93444C25.937 6.7759 26.2607 6.73182 26.565 6.81189C26.8693 6.89197 27.1293 7.08965 27.2878 7.36144L33.1634 17.6094C33.3186 17.8792 33.3609 18.1994 33.2809 18.5002C33.2009 18.801 33.0051 19.058 32.7364 19.215C32.541 19.2705 32.334 19.2705 32.1386 19.215Z" fill="#CAA55E"/>
</svg>
