<svg width="120" height="108" viewBox="0 0 120 108" fill="none" xmlns="http://www.w3.org/2000/svg">
<path d="M83.5951 8.40894C71.9955 3.95037 59.133 4.07863 47.6246 8.76762L42.5006 11.1588C31.6701 17.0215 23.4483 26.7523 19.4761 38.4096C15.5039 50.0669 16.0733 62.7934 21.0707 74.0493C26.0681 85.3053 35.126 94.2631 46.4368 99.1351C57.7476 104.007 70.4796 104.435 82.092 100.333L87.216 98.1985C95.8209 94.0461 103.022 87.4663 107.933 79.2704C112.843 71.0744 115.248 61.6207 114.85 52.0746C114.452 42.5285 111.27 33.3075 105.695 25.5484C100.12 17.7893 92.3959 11.8313 83.4755 8.40894H83.5951Z" fill="white"/>
<path d="M85.1835 4.56592C73.4608 0.0369536 60.5136 -0.19759 48.6345 3.90382C36.7554 8.00524 26.7108 16.178 20.2795 26.9749H3.7803C3.1557 26.9738 2.54541 27.1619 2.02982 27.5144C1.51422 27.8669 1.11748 28.3674 0.891897 28.9498C0.666318 29.5323 0.622443 30.1694 0.76607 30.7772C0.909697 31.3851 1.23413 31.9352 1.69654 32.3551L13.8916 43.4571C11.8591 53.3819 12.7063 63.6809 16.3331 73.1402C19.96 82.5995 26.2153 90.8249 34.362 96.8468C42.5087 102.869 52.2072 106.436 62.3143 107.129C72.4213 107.822 82.5158 105.61 91.4079 100.756C100.3 95.9019 107.619 88.6068 112.502 79.7307C117.386 70.8546 119.63 60.7674 118.97 50.6581C118.311 40.5489 114.775 30.8388 108.78 22.6724C102.785 14.506 94.5797 8.22372 85.1323 4.56592H85.1835ZM111.692 71.844C107.213 83.4368 98.4762 92.8818 87.2673 98.2497L82.1433 100.402C70.5286 104.45 57.8156 103.978 46.5335 99.0782C35.2514 94.1789 26.2272 85.2118 21.2563 73.9611C16.2854 62.7103 15.7321 50.0005 19.7066 38.3604C23.681 26.7202 31.8919 17.0029 42.7056 11.1417L47.8296 8.75052C56.6796 5.21315 66.3695 4.33525 75.7111 6.22448C85.0528 8.11372 93.64 12.688 100.42 19.3863C107.2 26.0846 111.878 34.6159 113.88 43.934C115.882 53.252 115.122 62.9519 111.692 71.844Z" fill="#2A3F77"/>
<path d="M60.8687 73.6301C62.2508 73.3377 70.6726 73.3377 72.0547 73.6301C73.2362 73.903 74.5139 74.5406 74.5139 75.9329C74.4452 77.2583 73.6676 78.4334 72.5933 79.1796C71.2002 80.2656 69.5653 80.9534 67.8562 81.2012C66.9109 81.3237 65.9822 81.3265 65.07 81.2012C63.3581 80.9534 61.7232 80.2656 60.3329 79.1768C59.2558 78.4334 58.4781 77.2583 58.4094 75.9329C58.4094 74.5406 59.6871 73.903 60.8687 73.6301ZM66.6249 26C72.3759 26 78.2506 28.7288 81.7402 33.2564C84.0043 36.1718 85.043 39.0844 85.043 43.612V44.7899C85.043 48.2621 85.9607 50.3087 87.9803 52.6672C89.5108 54.4048 89.9999 56.6351 89.9999 59.0549C89.9999 61.4718 89.2058 63.7663 87.6148 65.6291C85.5321 67.8623 82.5947 69.2879 79.597 69.5358C75.2528 69.9061 70.9059 70.218 66.5013 70.218C62.0939 70.218 57.7497 70.0314 53.4055 69.5358C50.405 69.2879 47.4677 67.8623 45.3877 65.6291C43.7967 63.7663 42.9999 61.4718 42.9999 59.0549C42.9999 56.6351 43.4917 54.4048 45.0195 52.6672C47.1022 50.3087 47.9595 48.2621 47.9595 44.7899V43.612C47.9595 38.9619 49.1191 35.9212 51.5069 32.9446C55.0569 28.6035 60.7475 26 66.3776 26H66.6249Z" fill="#CAA55E"/>
</svg>
