<svg width="195" height="35" viewBox="0 0 195 35" fill="none" xmlns="http://www.w3.org/2000/svg">
<g clip-path="url(#clip0_108_287)">
<path d="M191.476 5.89599C191.476 5.89599 191.454 5.89599 191.444 5.89599C189.817 5.87655 188.507 4.55865 188.523 2.95772C188.531 2.17994 188.847 1.45186 189.411 0.909572C189.974 0.367288 190.718 0.0669796 191.504 0.0821031C192.293 0.090745 193.029 0.401856 193.58 0.957103C194.131 1.51235 194.432 2.24692 194.423 3.02254C194.406 4.61482 193.086 5.89815 191.472 5.89815M191.467 0.276548C190.744 0.276548 190.063 0.55093 189.547 1.05C189.022 1.55772 188.726 2.23612 188.717 2.95988C188.702 4.45278 189.927 5.68426 191.446 5.70155C191.457 5.70155 191.465 5.70155 191.476 5.70155C192.982 5.70155 194.215 4.50463 194.231 3.01821C194.239 2.29445 193.958 1.61173 193.444 1.09321C192.928 0.574696 192.239 0.283029 191.504 0.276548C191.493 0.276548 191.48 0.276548 191.469 0.276548" fill="#2E4077"/>
<path d="M190.309 4.55432L190.344 1.57716L191.666 1.59229C191.929 1.59661 192.128 1.62469 192.269 1.68087C192.405 1.73272 192.515 1.83426 192.597 1.96821C192.679 2.10432 192.716 2.2534 192.714 2.41976C192.714 2.63148 192.64 2.80648 192.502 2.95124C192.366 3.09167 192.154 3.18457 191.867 3.2213C191.971 3.27099 192.05 3.32284 192.104 3.37037C192.217 3.4784 192.327 3.61019 192.429 3.77007L192.938 4.58889L192.441 4.58241L192.055 3.95803C191.94 3.77655 191.847 3.63827 191.772 3.54321C191.7 3.45031 191.636 3.37686 191.573 3.34445C191.515 3.3034 191.456 3.27747 191.394 3.26235C191.353 3.25371 191.279 3.24723 191.178 3.2429L190.72 3.23858L190.707 4.56513L190.309 4.55648V4.55432ZM190.724 2.89723L191.569 2.90587C191.748 2.90587 191.893 2.88858 191.994 2.85618C192.096 2.81729 192.174 2.75679 192.23 2.67686C192.282 2.59476 192.31 2.50834 192.31 2.41111C192.31 2.27284 192.26 2.15402 192.161 2.06111C192.061 1.97253 191.897 1.925 191.677 1.925L190.735 1.90988L190.724 2.89723Z" fill="#2E4077"/>
<path d="M185.416 33.2565H1.59651C1.13951 33.2565 0.769043 33.627 0.769043 34.084V34.0861C0.769043 34.5431 1.13951 34.9136 1.59651 34.9136H185.416C185.873 34.9136 186.243 34.5431 186.243 34.0861V34.084C186.243 33.627 185.873 33.2565 185.416 33.2565Z" fill="#B9945D"/>
<mask id="path-4-inside-1_108_287" fill="white">
<path d="M12.3493 28.4796C11.9777 28.4796 11.5996 28.4623 11.2258 28.4278C9.67674 28.2809 8.22057 27.8272 6.89619 27.0775C5.58045 26.3343 4.39434 25.3772 3.37026 24.2321C2.80854 23.6228 2.31594 22.938 1.90977 22.1991C1.50792 21.4688 1.15792 20.7083 0.868412 19.9349C0.330449 18.4679 0.0690291 16.962 0.0927946 15.4562C0.11656 13.9611 0.362856 12.5093 0.825202 11.1438C1.28755 9.78055 1.95946 8.49506 2.82582 7.32623C3.69218 6.15524 4.72489 5.15709 5.9002 4.36203C7.07551 3.56697 8.39557 2.99012 9.82798 2.6466C10.6641 2.44567 11.5456 2.34413 12.4443 2.34413C13.0838 2.34413 13.7493 2.39598 14.419 2.49753C16.3311 2.79135 18.0854 3.54969 19.6301 4.75092C21.1619 5.94135 22.3934 7.39537 23.2965 9.07191C23.3375 9.13672 23.4067 9.26203 23.5644 9.60555C23.6875 9.87561 23.7718 10.0701 23.8215 10.1932L23.8496 10.2602V10.3077C23.8539 10.3185 23.8625 10.3423 23.882 10.379C23.9598 10.5346 23.9943 10.6534 23.9943 10.7614V11.012L23.761 11.1049C23.6659 11.1438 23.5558 11.2043 23.4348 11.2843C23.2792 11.388 23.1172 11.442 22.9595 11.442C22.8687 11.442 22.7801 11.4247 22.698 11.3901L22.5554 11.3318L22.495 11.1892C22.1234 10.3077 21.6956 9.49321 21.2224 8.76512C20.7514 8.04135 20.1616 7.33703 19.4703 6.66728C18.1934 5.48333 16.694 4.67963 15.0153 4.27993C14.1835 4.08333 13.3409 3.98179 12.507 3.98179C11.6493 3.98179 10.7786 4.08765 9.91872 4.29722C8.55113 4.63858 7.26995 5.27808 6.11409 6.19413C4.95607 7.11234 4.02057 8.20555 3.33137 9.44135C2.61841 10.7312 2.14526 12.0836 1.92705 13.4642C1.70884 14.8426 1.71965 16.208 1.96162 17.5194C2.2036 18.833 2.65298 20.0861 3.29681 21.2463C3.93847 22.4065 4.76594 23.4241 5.75113 24.271C6.73631 25.1201 7.88786 25.7877 9.17335 26.2586C10.2428 26.6497 11.4095 26.8485 12.6431 26.8485C12.8851 26.8485 13.1335 26.8398 13.382 26.8247C14.4104 26.7793 15.4129 26.5481 16.3656 26.1398C17.3292 25.7272 18.2301 25.1741 19.0425 24.4978C19.857 23.8194 20.5721 23.0352 21.1706 22.1623C21.7669 21.2895 22.2314 20.3583 22.5533 19.3969L22.6743 19.0339L24.0635 19.5395V19.9327L24.044 19.991C23.8496 20.5765 23.6076 21.1534 23.3267 21.7043C23.0459 22.2509 22.7326 22.7867 22.3934 23.2966C21.7517 24.2083 21.0085 25.0142 20.1767 25.7012C19.3428 26.3883 18.4311 26.9522 17.4653 27.3799C16.5017 27.8077 15.482 28.1167 14.432 28.3003C13.7471 28.4191 13.045 28.4818 12.3493 28.4818V28.4796Z"/>
</mask>
<path d="M12.3493 28.4796C11.9777 28.4796 11.5996 28.4623 11.2258 28.4278C9.67674 28.2809 8.22057 27.8272 6.89619 27.0775C5.58045 26.3343 4.39434 25.3772 3.37026 24.2321C2.80854 23.6228 2.31594 22.938 1.90977 22.1991C1.50792 21.4688 1.15792 20.7083 0.868412 19.9349C0.330449 18.4679 0.0690291 16.962 0.0927946 15.4562C0.11656 13.9611 0.362856 12.5093 0.825202 11.1438C1.28755 9.78055 1.95946 8.49506 2.82582 7.32623C3.69218 6.15524 4.72489 5.15709 5.9002 4.36203C7.07551 3.56697 8.39557 2.99012 9.82798 2.6466C10.6641 2.44567 11.5456 2.34413 12.4443 2.34413C13.0838 2.34413 13.7493 2.39598 14.419 2.49753C16.3311 2.79135 18.0854 3.54969 19.6301 4.75092C21.1619 5.94135 22.3934 7.39537 23.2965 9.07191C23.3375 9.13672 23.4067 9.26203 23.5644 9.60555C23.6875 9.87561 23.7718 10.0701 23.8215 10.1932L23.8496 10.2602V10.3077C23.8539 10.3185 23.8625 10.3423 23.882 10.379C23.9598 10.5346 23.9943 10.6534 23.9943 10.7614V11.012L23.761 11.1049C23.6659 11.1438 23.5558 11.2043 23.4348 11.2843C23.2792 11.388 23.1172 11.442 22.9595 11.442C22.8687 11.442 22.7801 11.4247 22.698 11.3901L22.5554 11.3318L22.495 11.1892C22.1234 10.3077 21.6956 9.49321 21.2224 8.76512C20.7514 8.04135 20.1616 7.33703 19.4703 6.66728C18.1934 5.48333 16.694 4.67963 15.0153 4.27993C14.1835 4.08333 13.3409 3.98179 12.507 3.98179C11.6493 3.98179 10.7786 4.08765 9.91872 4.29722C8.55113 4.63858 7.26995 5.27808 6.11409 6.19413C4.95607 7.11234 4.02057 8.20555 3.33137 9.44135C2.61841 10.7312 2.14526 12.0836 1.92705 13.4642C1.70884 14.8426 1.71965 16.208 1.96162 17.5194C2.2036 18.833 2.65298 20.0861 3.29681 21.2463C3.93847 22.4065 4.76594 23.4241 5.75113 24.271C6.73631 25.1201 7.88786 25.7877 9.17335 26.2586C10.2428 26.6497 11.4095 26.8485 12.6431 26.8485C12.8851 26.8485 13.1335 26.8398 13.382 26.8247C14.4104 26.7793 15.4129 26.5481 16.3656 26.1398C17.3292 25.7272 18.2301 25.1741 19.0425 24.4978C19.857 23.8194 20.5721 23.0352 21.1706 22.1623C21.7669 21.2895 22.2314 20.3583 22.5533 19.3969L22.6743 19.0339L24.0635 19.5395V19.9327L24.044 19.991C23.8496 20.5765 23.6076 21.1534 23.3267 21.7043C23.0459 22.2509 22.7326 22.7867 22.3934 23.2966C21.7517 24.2083 21.0085 25.0142 20.1767 25.7012C19.3428 26.3883 18.4311 26.9522 17.4653 27.3799C16.5017 27.8077 15.482 28.1167 14.432 28.3003C13.7471 28.4191 13.045 28.4818 12.3493 28.4818V28.4796Z" fill="#293F77"/>
<path d="M12.3493 28.4796H17.3493V23.4796H12.3493V28.4796ZM11.2258 28.4278L10.7537 33.4055L10.7654 33.4065L11.2258 28.4278ZM6.89619 27.0775L9.35928 22.7262L9.3553 22.724L6.89619 27.0775ZM3.37026 24.2321L7.09721 20.8989L7.07196 20.8707L7.04628 20.8429L3.37026 24.2321ZM1.90977 22.1991L6.29139 19.7905L6.2903 19.7885L1.90977 22.1991ZM0.868412 19.9349L-3.8259 21.6563L-3.82015 21.672L-3.81431 21.6876L0.868412 19.9349ZM0.0927946 15.4562L-4.90657 15.3767L-4.90658 15.3773L0.0927946 15.4562ZM0.825202 11.1438L-3.9099 9.53794L-3.91067 9.54022L0.825202 11.1438ZM2.82582 7.32623L6.84269 10.3036L6.84531 10.3001L2.82582 7.32623ZM9.82798 2.6466L10.994 7.50874L10.9963 7.50819L9.82798 2.6466ZM14.419 2.49753L15.1785 -2.44447L15.1685 -2.44598L14.419 2.49753ZM19.6301 4.75092L16.5608 8.69798L16.562 8.69888L19.6301 4.75092ZM23.2965 9.07191L18.8945 11.4431L18.9781 11.5983L19.0724 11.7472L23.2965 9.07191ZM23.5644 9.60555L28.1138 7.53105L28.1084 7.51933L23.5644 9.60555ZM23.8215 10.1932L19.1847 12.0642L19.1974 12.0956L19.2105 12.1268L23.8215 10.1932ZM23.8496 10.2602H28.8496V9.25424L28.4606 8.32657L23.8496 10.2602ZM23.8496 10.3077H18.8496V11.2706L19.2072 12.1647L23.8496 10.3077ZM23.882 10.379L28.3541 8.14294L28.3281 8.09095L28.3009 8.03957L23.882 10.379ZM23.9943 11.012L25.8439 15.6574L28.9943 14.403V11.012H23.9943ZM23.761 11.1049L21.9115 6.45959L21.8896 6.4683L21.8678 6.4772L23.761 11.1049ZM23.4348 11.2843L20.6785 7.11258L20.6699 7.11827L20.6613 7.124L23.4348 11.2843ZM22.698 11.3901L24.6383 6.78194L24.6148 6.77205L24.5912 6.7624L22.698 11.3901ZM22.5554 11.3318L17.9525 13.2845L18.7566 15.1799L20.6622 15.9595L22.5554 11.3318ZM22.495 11.1892L17.8876 13.1315L17.892 13.1419L22.495 11.1892ZM21.2224 8.76512L25.4149 6.04061L25.4132 6.03798L21.2224 8.76512ZM19.4703 6.66728L22.9492 3.07608L22.91 3.03805L22.8699 3.00088L19.4703 6.66728ZM15.0153 4.27993L16.1734 -0.584104L16.1655 -0.585989L15.0153 4.27993ZM9.91872 4.29722L8.73478 -0.56059L8.7213 -0.557305L8.70784 -0.553945L9.91872 4.29722ZM6.11409 6.19413L3.00851 2.27554L3.00758 2.27628L6.11409 6.19413ZM3.33137 9.44135L-1.03544 7.00601L-1.04003 7.01424L-1.04459 7.02248L3.33137 9.44135ZM1.92705 13.4642L6.86555 14.246L6.86574 14.2448L1.92705 13.4642ZM1.96162 17.5194L6.87889 16.6136L6.87862 16.6122L1.96162 17.5194ZM3.29681 21.2463L7.6722 18.8264L7.66874 18.8202L3.29681 21.2463ZM5.75113 24.271L9.01534 20.4835L9.01056 20.4794L5.75113 24.271ZM9.17335 26.2586L7.45324 30.9534L7.45626 30.9546L9.17335 26.2586ZM13.382 26.8247L13.1616 21.8295L13.1199 21.8314L13.0782 21.8339L13.382 26.8247ZM16.3656 26.1398L14.3973 21.5436L14.396 21.5441L16.3656 26.1398ZM19.0425 24.4978L22.2414 28.3406L22.2424 28.3398L19.0425 24.4978ZM21.1706 22.1623L25.2944 24.9898L25.2991 24.9828L21.1706 22.1623ZM22.5533 19.3969L27.2946 20.9844L27.2967 20.978L22.5533 19.3969ZM22.6743 19.0339L24.3842 14.3354L19.5557 12.5782L17.9309 17.4528L22.6743 19.0339ZM24.0635 19.5395H29.0635V16.0383L25.7734 14.841L24.0635 19.5395ZM24.0635 19.9327L28.8069 21.5138L29.0635 20.7441V19.9327H24.0635ZM24.044 19.991L19.3006 18.4099L19.2989 18.4152L24.044 19.991ZM23.3267 21.7043L27.774 23.9895L27.7776 23.9824L27.7813 23.9753L23.3267 21.7043ZM22.3934 23.2966L26.4823 26.1743L26.52 26.1207L26.5564 26.066L22.3934 23.2966ZM20.1767 25.7012L23.356 29.5603L23.3609 29.5563L20.1767 25.7012ZM17.4653 27.3799L15.4403 22.8083L15.4365 22.81L17.4653 27.3799ZM14.432 28.3003L15.2867 33.2267L15.2934 33.2255L14.432 28.3003ZM12.3493 28.4818H7.34928V33.4818H12.3493V28.4818ZM12.3493 23.4796C12.1307 23.4796 11.9063 23.4694 11.6863 23.449L10.7654 33.4065C11.2929 33.4553 11.8246 33.4796 12.3493 33.4796V23.4796ZM11.6979 23.4501C10.8316 23.3679 10.0562 23.1208 9.35928 22.7262L4.4331 31.4287C6.3849 32.5335 8.52193 33.1938 10.7537 33.4054L11.6979 23.4501ZM9.3553 22.724C8.52283 22.2538 7.76323 21.6437 7.09721 20.8989L-0.356679 27.5652C1.02545 29.1107 2.63807 30.4148 4.43708 31.4309L9.3553 22.724ZM7.04628 20.8429C6.76135 20.5338 6.50488 20.1788 6.29139 19.7905L-2.47185 24.6077C-1.873 25.6971 -1.14428 26.7118 -0.305752 27.6213L7.04628 20.8429ZM6.2903 19.7885C6.00325 19.2668 5.75471 18.726 5.55113 18.1821L-3.81431 21.6876C-3.43888 22.6906 -2.98741 23.6708 -2.47076 24.6097L6.2903 19.7885ZM5.56272 18.2134C5.22731 17.2988 5.07849 16.4022 5.09217 15.5351L-4.90658 15.3773C-4.94043 17.5219 -4.56641 19.637 -3.8259 21.6563L5.56272 18.2134ZM5.09216 15.5356C5.10801 14.5387 5.27153 13.6025 5.56107 12.7474L-3.91067 9.54022C-4.54581 11.416 -4.87489 13.3835 -4.90657 15.3767L5.09216 15.5356ZM5.5603 12.7497C5.85585 11.8782 6.28541 11.0554 6.84268 10.3036L-1.19105 4.34885C-2.36649 5.93468 -3.28076 7.68286 -3.9099 9.53794L5.5603 12.7497ZM6.84531 10.3001C7.38763 9.56705 8.01323 8.96921 8.70175 8.50345L3.09865 0.220616C1.43655 1.34498 -0.00328007 2.74344 -1.19367 4.3524L6.84531 10.3001ZM8.70175 8.50345C9.36158 8.05709 10.1241 7.71736 10.994 7.50874L8.66195 -2.21554C6.66704 -1.73712 4.78944 -0.923152 3.09865 0.220616L8.70175 8.50345ZM10.9963 7.50819C11.4309 7.40375 11.9192 7.34413 12.4443 7.34413V-2.65587C11.1719 -2.65587 9.89729 -2.5124 8.65969 -2.21499L10.9963 7.50819ZM12.4443 7.34413C12.8175 7.34413 13.232 7.3747 13.6695 7.44103L15.1685 -2.44598C14.2665 -2.58274 13.3502 -2.65587 12.4443 -2.65587V7.34413ZM13.6596 7.43951C14.72 7.60247 15.6811 8.01387 16.5608 8.69798L22.6995 0.803863C20.4897 -0.914499 17.9421 -2.01976 15.1785 -2.44446L13.6596 7.43951ZM16.562 8.69888C17.5512 9.46763 18.3256 10.3869 18.8945 11.4431L27.6985 6.70073C26.4613 4.40386 24.7727 2.41508 22.6983 0.802962L16.562 8.69888ZM19.0724 11.7472C19.0305 11.681 18.9973 11.6242 18.9731 11.5811C18.9503 11.5405 18.9372 11.5149 18.9352 11.5111C18.9332 11.5071 18.9388 11.5181 18.9538 11.5494C18.9687 11.5803 18.9904 11.6264 19.0204 11.6918L28.1084 7.51933C27.9389 7.15012 27.7534 6.76424 27.5206 6.39665L19.0724 11.7472ZM19.0151 11.68C19.0677 11.7955 19.1082 11.8863 19.138 11.9546C19.1528 11.9885 19.1641 12.0149 19.1723 12.0343C19.1764 12.044 19.1794 12.0513 19.1816 12.0565C19.1838 12.0618 19.1848 12.0643 19.1847 12.0642L28.4583 8.32224C28.3682 8.09916 28.2492 7.82804 28.1137 7.53105L19.0151 11.68ZM19.2105 12.1268L19.2386 12.1938L28.4606 8.32657L28.4325 8.25959L19.2105 12.1268ZM18.8496 10.2602V10.3077H28.8496V10.2602H18.8496ZM19.2072 12.1647C19.169 12.069 19.229 12.2213 19.2698 12.3158C19.3229 12.4388 19.3865 12.5739 19.4631 12.7184L28.3009 8.03957C28.358 8.14741 28.4076 8.25224 28.4504 8.35145C28.481 8.42218 28.5345 8.55718 28.492 8.45076L19.2072 12.1647ZM19.4099 12.6151C19.3221 12.4396 18.9943 11.7533 18.9943 10.7614H28.9943C28.9943 9.55349 28.5974 8.62958 28.3541 8.14294L19.4099 12.6151ZM18.9943 10.7614V11.012H28.9943V10.7614H18.9943ZM22.1448 6.36669L21.9115 6.45959L25.6105 15.7503L25.8439 15.6574L22.1448 6.36669ZM21.8678 6.4772C21.3779 6.67763 20.9725 6.91829 20.6785 7.11258L26.1911 15.4559C26.1551 15.4797 26.0963 15.5168 26.0155 15.5612C25.9371 15.6043 25.8152 15.6668 25.6542 15.7327L21.8678 6.4772ZM20.6613 7.124C21.1653 6.78799 21.9521 6.44197 22.9595 6.44197V16.442C24.2823 16.442 25.3931 15.9879 26.2083 15.4445L20.6613 7.124ZM22.9595 6.44197C23.506 6.44197 24.0799 6.54682 24.6383 6.78194L20.7578 15.9983C21.4804 16.3026 22.2315 16.442 22.9595 16.442V6.44197ZM24.5912 6.7624L24.4486 6.70407L20.6622 15.9595L20.8048 16.0178L24.5912 6.7624ZM27.1584 9.37903L27.0979 9.23644L17.892 13.1419L17.9525 13.2845L27.1584 9.37903ZM27.1023 9.24689C26.6269 8.11915 26.064 7.03943 25.4149 6.04061L17.0299 11.4896C17.3271 11.947 17.6198 12.4963 17.8876 13.1315L27.1023 9.24689ZM25.4132 6.03798C24.7129 4.96183 23.8742 3.97215 22.9492 3.07608L15.9913 10.2585C16.449 10.7019 16.79 11.1209 17.0316 11.4923L25.4132 6.03798ZM22.8699 3.00088C20.9679 1.23728 18.6985 0.0171015 16.1734 -0.584097L13.8572 9.14396C14.6896 9.34215 15.4189 9.72938 16.0706 10.3337L22.8699 3.00088ZM16.1655 -0.585989C14.9744 -0.867516 13.7459 -1.01821 12.507 -1.01821V8.98179C12.936 8.98179 13.3927 9.03417 13.8652 9.14586L16.1655 -0.585989ZM12.507 -1.01821C11.2392 -1.01821 9.97123 -0.861935 8.73478 -0.56059L11.1027 9.15503C11.586 9.03723 12.0593 8.98179 12.507 8.98179V-1.01821ZM8.70784 -0.553945C6.61523 -0.0316176 4.69399 0.939756 3.00851 2.27554L9.21967 10.1127C9.84592 9.61641 10.487 9.30877 11.1296 9.14838L8.70784 -0.553945ZM3.00758 2.27628C1.35673 3.58525 -0.0148959 5.17606 -1.03544 7.00601L7.69819 11.8767C8.05604 11.235 8.5554 10.6394 9.2206 10.112L3.00758 2.27628ZM-1.04459 7.02248C-2.02184 8.79042 -2.69721 10.6943 -3.01164 12.6836L6.86574 14.2448C6.98774 13.473 7.25867 12.6719 7.70734 11.8602L-1.04459 7.02248ZM-3.01145 12.6824C-3.31367 14.5915 -3.30554 16.5289 -2.95538 18.4267L6.87862 16.6122C6.74484 15.8871 6.73135 15.0937 6.86555 14.246L-3.01145 12.6824ZM-2.95564 18.4253C-2.61586 20.2698 -1.98291 22.0366 -1.07513 23.6724L7.66874 18.8202C7.28887 18.1356 7.02305 17.3962 6.87889 16.6136L-2.95564 18.4253ZM-1.07858 23.6662C-0.152761 25.3402 1.05072 26.8238 2.4917 28.0626L9.01056 20.4794C8.48117 20.0243 8.02971 19.4728 7.6722 18.8264L-1.07858 23.6662ZM2.48692 28.0585C3.95469 29.3234 5.63669 30.2879 7.45324 30.9534L10.8935 21.5638C10.139 21.2874 9.51793 20.9167 9.01533 20.4835L2.48692 28.0585ZM7.45626 30.9546C9.11828 31.5623 10.8707 31.8485 12.6431 31.8485V21.8485C11.9483 21.8485 11.3673 21.7371 10.8904 21.5627L7.45626 30.9546ZM12.6431 31.8485C13.0019 31.8485 13.3529 31.8357 13.6858 31.8155L13.0782 21.8339C12.9142 21.8439 12.7683 21.8485 12.6431 21.8485V31.8485ZM13.6024 31.8198C15.2426 31.7475 16.837 31.3776 18.3352 30.7355L14.396 21.5441C13.9887 21.7186 13.5782 21.8112 13.1616 21.8295L13.6024 31.8198ZM18.334 30.7361C19.7475 30.1307 21.0621 29.3223 22.2414 28.3406L15.8436 20.6551C15.3982 21.0258 14.9109 21.3236 14.3973 21.5436L18.334 30.7361ZM22.2424 28.3398C23.408 27.3689 24.4346 26.2438 25.2944 24.9898L17.0468 19.3349C16.7097 19.8266 16.3059 20.27 15.8426 20.6559L22.2424 28.3398ZM25.2991 24.9828C26.1471 23.7415 26.8216 22.397 27.2946 20.9844L17.812 17.8094C17.6412 18.3196 17.3866 18.8375 17.042 19.3419L25.2991 24.9828ZM27.2967 20.978L27.4177 20.6151L17.9309 17.4528L17.8099 17.8158L27.2967 20.978ZM20.9644 23.7325L22.3536 24.238L25.7734 14.841L24.3842 14.3354L20.9644 23.7325ZM19.0635 19.5395V19.9327H29.0635V19.5395H19.0635ZM19.32 18.3516L19.3006 18.4099L28.7875 21.5721L28.8069 21.5138L19.32 18.3516ZM19.2989 18.4152C19.185 18.7581 19.0407 19.1028 18.8722 19.4334L27.7813 23.9753C28.1745 23.204 28.5142 22.395 28.7892 21.5669L19.2989 18.4152ZM18.8795 19.4192C18.6814 19.8048 18.4625 20.1784 18.2304 20.5272L26.5564 26.066C27.0028 25.395 27.4104 24.6971 27.774 23.9895L18.8795 19.4192ZM18.3045 20.4189C17.9116 20.9773 17.4701 21.4518 16.9926 21.8462L23.3609 29.5563C24.547 28.5766 25.5919 27.4394 26.4823 26.1743L18.3045 20.4189ZM16.9975 21.8422C16.5079 22.2455 15.9834 22.5678 15.4403 22.8084L19.4903 31.9515C20.8788 31.3365 22.1777 30.531 23.356 29.5603L16.9975 21.8422ZM15.4365 22.81C14.8522 23.0695 14.225 23.2606 13.5706 23.3751L15.2934 33.2255C16.739 32.9727 18.1513 32.546 19.4941 31.9498L15.4365 22.81ZM13.5773 23.3739C13.1644 23.4455 12.7482 23.4818 12.3493 23.4818V33.4818C13.3417 33.4818 14.3299 33.3927 15.2867 33.2267L13.5773 23.3739ZM17.3493 28.4818V28.4796H7.34928V28.4818H17.3493Z" fill="#293F77" mask="url(#path-4-inside-1_108_287)"/>
<mask id="path-6-inside-2_108_287" fill="white">
<path d="M40.0081 28.6049C39.1482 28.6049 38.2646 28.5185 37.381 28.3478C36.4044 28.1772 35.4343 27.8596 34.501 27.4059C33.5763 26.9565 32.6992 26.4077 31.8976 25.7747C31.0918 25.1417 30.3572 24.4114 29.7112 23.6077C29.0609 22.7997 28.5337 21.929 28.1405 21.0216C27.3627 19.2738 26.9371 17.5518 26.8766 15.9034C26.8161 14.2571 27.0322 12.6929 27.5205 11.2497C28.0087 9.81079 28.7325 8.47993 29.6701 7.29598C30.6056 6.11635 31.7118 5.10308 32.9541 4.28641C34.1964 3.46974 35.5683 2.86481 37.0309 2.48456C38.1112 2.20586 39.2174 2.06326 40.3192 2.06326C40.7103 2.06326 41.1056 2.08055 41.4989 2.11511C43.0026 2.24907 44.5149 2.68765 45.9905 3.42005C47.4661 4.1503 48.8661 5.23703 50.156 6.64567C51.0137 7.57684 51.6964 8.62036 52.189 9.7503C52.6751 10.8673 53.0316 12.0491 53.2519 13.2633C53.5198 14.8275 53.5263 16.3376 53.2714 17.7549C53.0164 19.1701 52.5455 20.5009 51.8735 21.7108C51.2016 22.9207 50.3418 24.0139 49.3198 24.9645C48.2958 25.9151 47.1399 26.6951 45.8825 27.2805C44.6272 27.866 43.264 28.2679 41.8294 28.4731C41.231 28.5596 40.6195 28.6028 40.0103 28.6028L40.0081 28.6049ZM40.0621 3.729C39.3016 3.729 38.5303 3.80678 37.772 3.96018C36.5816 4.19999 35.4538 4.63641 34.4232 5.25431C33.6606 5.69289 32.926 6.24814 32.2368 6.90277C31.5455 7.55956 30.9254 8.28981 30.3961 9.07407C29.8668 9.85616 29.4303 10.7031 29.0976 11.5867C28.7692 12.4617 28.5899 13.3648 28.5683 14.2701C28.4992 15.6917 28.6223 17.0809 28.9334 18.4096C29.2424 19.7231 29.8408 20.9805 30.7115 22.1494C31.5887 23.396 32.6776 24.4265 33.9501 25.2173C35.2269 26.0102 36.6442 26.5525 38.163 26.8268C38.7982 26.9349 39.4485 26.991 40.0924 26.991C40.5353 26.991 40.9847 26.9651 41.4297 26.9133C42.5208 26.788 43.5837 26.5179 44.5862 26.116C45.5843 25.7142 46.522 25.1719 47.3711 24.5065C48.218 23.841 48.9634 23.0503 49.5813 22.158C50.4347 20.9589 51.0331 19.6778 51.3658 18.3491C51.6985 17.0117 51.8152 15.6765 51.7137 14.3781C51.61 13.0818 51.2837 11.8201 50.7436 10.6253C50.2035 9.43055 49.4797 8.3395 48.5939 7.38456C47.7103 6.43178 46.6451 5.63024 45.4245 4.99721C44.2081 4.36635 42.847 3.96666 41.3735 3.80462C40.9371 3.75493 40.4964 3.729 40.0621 3.729Z"/>
</mask>
<path d="M40.0081 28.6049C39.1482 28.6049 38.2646 28.5185 37.381 28.3478C36.4044 28.1772 35.4343 27.8596 34.501 27.4059C33.5763 26.9565 32.6992 26.4077 31.8976 25.7747C31.0918 25.1417 30.3572 24.4114 29.7112 23.6077C29.0609 22.7997 28.5337 21.929 28.1405 21.0216C27.3627 19.2738 26.9371 17.5518 26.8766 15.9034C26.8161 14.2571 27.0322 12.6929 27.5205 11.2497C28.0087 9.81079 28.7325 8.47993 29.6701 7.29598C30.6056 6.11635 31.7118 5.10308 32.9541 4.28641C34.1964 3.46974 35.5683 2.86481 37.0309 2.48456C38.1112 2.20586 39.2174 2.06326 40.3192 2.06326C40.7103 2.06326 41.1056 2.08055 41.4989 2.11511C43.0026 2.24907 44.5149 2.68765 45.9905 3.42005C47.4661 4.1503 48.8661 5.23703 50.156 6.64567C51.0137 7.57684 51.6964 8.62036 52.189 9.7503C52.6751 10.8673 53.0316 12.0491 53.2519 13.2633C53.5198 14.8275 53.5263 16.3376 53.2714 17.7549C53.0164 19.1701 52.5455 20.5009 51.8735 21.7108C51.2016 22.9207 50.3418 24.0139 49.3198 24.9645C48.2958 25.9151 47.1399 26.6951 45.8825 27.2805C44.6272 27.866 43.264 28.2679 41.8294 28.4731C41.231 28.5596 40.6195 28.6028 40.0103 28.6028L40.0081 28.6049ZM40.0621 3.729C39.3016 3.729 38.5303 3.80678 37.772 3.96018C36.5816 4.19999 35.4538 4.63641 34.4232 5.25431C33.6606 5.69289 32.926 6.24814 32.2368 6.90277C31.5455 7.55956 30.9254 8.28981 30.3961 9.07407C29.8668 9.85616 29.4303 10.7031 29.0976 11.5867C28.7692 12.4617 28.5899 13.3648 28.5683 14.2701C28.4992 15.6917 28.6223 17.0809 28.9334 18.4096C29.2424 19.7231 29.8408 20.9805 30.7115 22.1494C31.5887 23.396 32.6776 24.4265 33.9501 25.2173C35.2269 26.0102 36.6442 26.5525 38.163 26.8268C38.7982 26.9349 39.4485 26.991 40.0924 26.991C40.5353 26.991 40.9847 26.9651 41.4297 26.9133C42.5208 26.788 43.5837 26.5179 44.5862 26.116C45.5843 25.7142 46.522 25.1719 47.3711 24.5065C48.218 23.841 48.9634 23.0503 49.5813 22.158C50.4347 20.9589 51.0331 19.6778 51.3658 18.3491C51.6985 17.0117 51.8152 15.6765 51.7137 14.3781C51.61 13.0818 51.2837 11.8201 50.7436 10.6253C50.2035 9.43055 49.4797 8.3395 48.5939 7.38456C47.7103 6.43178 46.6451 5.63024 45.4245 4.99721C44.2081 4.36635 42.847 3.96666 41.3735 3.80462C40.9371 3.75493 40.4964 3.729 40.0621 3.729Z" fill="#293F77"/>
<path d="M40.0081 28.6049V33.6049H42.0769L43.5409 32.1432L40.0081 28.6049ZM37.381 28.3478L38.3292 23.4386L38.2856 23.4301L38.2418 23.4225L37.381 28.3478ZM34.501 27.4059L36.687 22.909L36.6865 22.9088L34.501 27.4059ZM31.8976 25.7747L34.9965 21.8508L34.9863 21.8427L31.8976 25.7747ZM29.7112 23.6077L33.6084 20.4753L33.6064 20.4728L29.7112 23.6077ZM28.1405 21.0216L32.7283 19.0336L32.7186 19.0111L32.7086 18.9888L28.1405 21.0216ZM26.8766 15.9034L31.8733 15.72L31.8733 15.7198L26.8766 15.9034ZM27.5205 11.2497L22.7856 9.64297L22.7842 9.64729L27.5205 11.2497ZM29.6701 7.29598L25.7525 4.18916L25.7505 4.19173L29.6701 7.29598ZM37.0309 2.48456L35.7818 -2.35691L35.7729 -2.35459L37.0309 2.48456ZM41.4989 2.11511L41.9425 -2.86517L41.9367 -2.86567L41.4989 2.11511ZM45.9905 3.42005L43.7676 7.89873L43.7728 7.90134L45.9905 3.42005ZM50.156 6.64567L46.4683 10.0222L46.4733 10.0277L46.4783 10.0332L50.156 6.64567ZM52.189 9.7503L56.7736 7.75505L56.7724 7.75218L52.189 9.7503ZM53.2519 13.2633L58.1802 12.4192L58.176 12.3948L58.1716 12.3704L53.2519 13.2633ZM53.2714 17.7549L58.1922 18.6414L58.1924 18.6401L53.2714 17.7549ZM49.3198 24.9645L52.7215 28.629L52.7254 28.6254L49.3198 24.9645ZM45.8825 27.2805L43.7719 22.7478L43.7689 22.7492L45.8825 27.2805ZM41.8294 28.4731L41.1213 23.5235L41.1148 23.5245L41.8294 28.4731ZM40.0103 28.6028V23.6028H37.9414L36.4774 25.0645L40.0103 28.6028ZM37.772 3.96018L38.7594 8.86171L38.7633 8.86092L37.772 3.96018ZM34.4232 5.25431L36.9158 9.58871L36.9553 9.566L36.9944 9.54257L34.4232 5.25431ZM32.2368 6.90277L28.7934 3.27749L28.7931 3.27777L32.2368 6.90277ZM30.3961 9.07407L34.5369 11.8765L34.5405 11.8712L30.3961 9.07407ZM29.0976 11.5867L24.4183 9.82483L24.4164 9.82984L29.0976 11.5867ZM28.5683 14.2701L33.5624 14.5129L33.5654 14.4512L33.5669 14.3894L28.5683 14.2701ZM28.9334 18.4096L24.0651 19.5495L24.0662 19.5543L28.9334 18.4096ZM30.7115 22.1494L34.8007 19.2721L34.7617 19.2167L34.7213 19.1624L30.7115 22.1494ZM33.9501 25.2173L31.3111 29.4641L31.3124 29.4649L33.9501 25.2173ZM38.163 26.8268L37.2742 31.7472L37.2994 31.7518L37.3247 31.7561L38.163 26.8268ZM41.4297 26.9133L40.8592 21.9459L40.8511 21.9469L41.4297 26.9133ZM44.5862 26.116L46.4466 30.757L46.4535 30.7543L44.5862 26.116ZM47.3711 24.5065L50.4553 28.4419L50.4602 28.4381L47.3711 24.5065ZM49.5813 22.158L45.5076 19.2588L45.489 19.285L45.4707 19.3114L49.5813 22.158ZM51.3658 18.3491L56.2161 19.5636L56.2179 19.5562L51.3658 18.3491ZM51.7137 14.3781L56.6985 13.9883L56.6977 13.9794L51.7137 14.3781ZM48.5939 7.38456L44.9279 10.7846L44.9282 10.7849L48.5939 7.38456ZM45.4245 4.99721L43.1224 9.43575L43.1227 9.43587L45.4245 4.99721ZM41.3735 3.80462L40.8079 8.77252L40.8174 8.77361L40.827 8.77466L41.3735 3.80462ZM40.0081 23.6049C39.4806 23.6049 38.9145 23.5516 38.3292 23.4386L36.4327 33.2571C37.6146 33.4854 38.8159 33.6049 40.0081 33.6049V23.6049ZM38.2418 23.4225C37.7473 23.3361 37.2218 23.169 36.687 22.909L32.315 31.9027C33.6469 32.5501 35.0615 33.0182 36.5201 33.2732L38.2418 23.4225ZM36.6865 22.9088C36.0808 22.6144 35.5106 22.2568 34.9965 21.8508L28.7987 29.6986C29.8877 30.5586 31.0719 31.2985 32.3155 31.9029L36.6865 22.9088ZM34.9863 21.8427C34.4873 21.4508 34.0225 20.9905 33.6084 20.4753L25.814 26.7401C26.6919 27.8323 27.6962 28.8325 28.809 29.7066L34.9863 21.8427ZM33.6064 20.4728C33.2281 20.0028 32.9374 19.516 32.7283 19.0336L23.5527 23.0096C24.1301 24.342 24.8937 25.5966 25.816 26.7426L33.6064 20.4728ZM32.7086 18.9888C32.1491 17.7313 31.9069 16.6358 31.8733 15.72L21.88 16.0867C21.9674 18.4679 22.5764 20.8162 23.5724 23.0544L32.7086 18.9888ZM31.8733 15.7198C31.8332 14.629 31.9785 13.6745 32.2567 12.8521L22.7842 9.64729C22.0859 11.7113 21.7991 13.8852 21.88 16.087L31.8733 15.7198ZM32.2553 12.8564C32.5606 11.9567 33.0095 11.1329 33.5898 10.4002L25.7505 4.19173C24.4555 5.82693 23.4569 7.66485 22.7856 9.64297L32.2553 12.8564ZM33.5878 10.4028C34.196 9.63588 34.908 8.98558 35.7007 8.46446L30.2075 0.10836C28.5156 1.22057 27.0153 2.59682 25.7525 4.18916L33.5878 10.4028ZM35.7007 8.46446C36.475 7.95544 37.3421 7.56986 38.289 7.32371L35.7729 -2.35459C33.7945 -1.84025 31.9177 -1.01595 30.2075 0.10836L35.7007 8.46446ZM38.28 7.32602C38.9613 7.15027 39.6479 7.06326 40.3192 7.06326V-2.93674C38.7868 -2.93674 37.2611 -2.73856 35.7819 -2.3569L38.28 7.32602ZM40.3192 7.06326C40.5639 7.06326 40.8132 7.07412 41.061 7.0959L41.9367 -2.86567C41.3981 -2.91303 40.8566 -2.93674 40.3192 -2.93674V7.06326ZM41.0552 7.09539C41.8879 7.16957 42.8001 7.41853 43.7676 7.89873L48.2135 -1.05862C46.2297 -2.04324 44.1172 -2.67144 41.9425 -2.86516L41.0552 7.09539ZM43.7728 7.90134C44.6083 8.31479 45.5258 8.99291 46.4683 10.0222L53.8436 3.2691C52.2065 1.48115 50.324 -0.0141935 48.2082 -1.06123L43.7728 7.90134ZM46.4783 10.0332C46.9678 10.5645 47.3406 11.1407 47.6056 11.7484L56.7724 7.75218C56.0521 6.10002 55.0596 4.58916 53.8336 3.25817L46.4783 10.0332ZM47.6043 11.7456C47.9329 12.5006 48.1791 13.3118 48.3323 14.1561L58.1716 12.3704C57.8841 10.7864 57.4172 9.23392 56.7736 7.75505L47.6043 11.7456ZM48.3237 14.1073C48.5035 15.1571 48.4925 16.0793 48.3504 16.8697L58.1924 18.6401C58.5601 16.596 58.5362 14.4978 58.1802 12.4192L48.3237 14.1073ZM48.3506 16.8684C48.1896 17.762 47.8986 18.5698 47.5024 19.2832L56.2447 24.1383C57.1923 22.432 57.8433 20.5781 58.1922 18.6414L48.3506 16.8684ZM47.5024 19.2832C47.0903 20.0252 46.5588 20.704 45.9143 21.3036L52.7254 28.6254C54.1247 27.3238 55.3129 25.8162 56.2447 24.1383L47.5024 19.2832ZM45.9182 21.3C45.2711 21.9006 44.5497 22.3857 43.7719 22.7478L47.9931 31.8133C49.7301 31.0044 51.3204 29.9296 52.7215 28.629L45.9182 21.3ZM43.7689 22.7492C42.9771 23.1186 42.0895 23.385 41.1213 23.5235L42.5376 33.4227C44.4385 33.1508 46.2774 32.6135 47.9961 31.8119L43.7689 22.7492ZM41.1148 23.5245C40.7577 23.576 40.3852 23.6028 40.0103 23.6028V33.6028C40.8539 33.6028 41.7042 33.5431 42.544 33.4218L41.1148 23.5245ZM36.4774 25.0645L36.4753 25.0667L43.5409 32.1432L43.5431 32.141L36.4774 25.0645ZM40.0621 -1.271C38.9635 -1.271 37.8602 -1.15892 36.7807 -0.940567L38.7633 8.86092C39.2005 8.77249 39.6398 8.729 40.0621 8.729V-1.271ZM36.7846 -0.941354C35.0389 -0.589678 33.375 0.0529521 31.8521 0.966055L36.9944 9.54257C37.5326 9.21987 38.1243 8.98966 38.7594 8.86171L36.7846 -0.941354ZM31.9306 0.919913C30.7925 1.57445 29.7426 2.37586 28.7934 3.27749L35.6803 10.5281C36.1094 10.1204 36.5287 9.81133 36.9158 9.58871L31.9306 0.919913ZM28.7931 3.27777C27.8438 4.17954 26.9877 5.18645 26.2517 6.2769L34.5405 11.8712C34.8631 11.3932 35.2471 10.9396 35.6806 10.5278L28.7931 3.27777ZM26.2553 6.2716C25.5031 7.38304 24.8871 8.57988 24.4183 9.82484L33.7769 13.3486C33.9736 12.8263 34.2304 12.3293 34.5369 11.8765L26.2553 6.2716ZM24.4164 9.82984C23.9 11.2059 23.6053 12.6615 23.5697 14.1508L33.5669 14.3894C33.5745 14.0681 33.6384 13.7176 33.7788 13.3436L24.4164 9.82984ZM23.5742 14.0272C23.4833 15.8956 23.644 17.7509 24.0651 19.5495L33.8017 17.2697C33.6006 16.4108 33.515 15.4878 33.5624 14.5129L23.5742 14.0272ZM24.0662 19.5543C24.5446 21.5881 25.4566 23.4648 26.7017 25.1363L34.7213 19.1624C34.2251 18.4963 33.9402 17.8582 33.8006 17.2648L24.0662 19.5543ZM26.6223 25.0267C27.8805 26.8147 29.46 28.3139 31.3111 29.4641L36.5891 20.9704C35.8951 20.5392 35.2969 19.9773 34.8007 19.2721L26.6223 25.0267ZM31.3124 29.4649C33.1369 30.5979 35.1497 31.3634 37.2742 31.7472L39.0519 21.9065C38.1388 21.7415 37.317 21.4224 36.5878 20.9696L31.3124 29.4649ZM37.3247 31.7561C38.2303 31.9101 39.161 31.991 40.0924 31.991V21.991C39.7361 21.991 39.3662 21.9597 39.0014 21.8976L37.3247 31.7561ZM40.0924 31.991C40.7285 31.991 41.3711 31.9539 42.0083 31.8797L40.8511 21.9469C40.5982 21.9763 40.342 21.991 40.0924 21.991V31.991ZM42.0002 31.8806C43.5335 31.7045 45.0303 31.3248 46.4466 30.757L42.7258 21.475C42.1372 21.711 41.508 21.8714 40.8592 21.9459L42.0002 31.8806ZM46.4535 30.7543C47.8908 30.1756 49.2378 29.3961 50.4553 28.4419L44.2868 20.5711C43.8062 20.9477 43.2779 21.2528 42.7189 21.4778L46.4535 30.7543ZM50.4602 28.4381C51.6997 27.4641 52.7895 26.3077 53.6919 25.0046L45.4707 19.3114C45.1373 19.7929 44.7362 20.218 44.282 20.5749L50.4602 28.4381ZM53.6549 25.0573C54.8464 23.3831 55.7223 21.5357 56.2161 19.5636L46.5156 17.1345C46.344 17.8199 46.0229 18.5348 45.5076 19.2588L53.6549 25.0573ZM56.2179 19.5562C56.6731 17.7265 56.8442 15.8521 56.6984 13.9883L46.7289 14.7679C46.7862 15.501 46.724 16.2969 46.5137 17.1419L56.2179 19.5562ZM56.6977 13.9794C56.5477 12.1037 56.0749 10.2805 55.2997 8.5656L46.1875 12.685C46.4925 13.3596 46.6722 14.0598 46.7296 14.7768L56.6977 13.9794ZM55.2997 8.5656C54.5386 6.88204 53.5151 5.33761 52.2597 3.98421L44.9282 10.7849C45.4444 11.3414 45.8684 11.979 46.1875 12.685L55.2997 8.5656ZM52.26 3.98454C50.9609 2.58389 49.4261 1.44003 47.7263 0.55856L43.1227 9.43587C43.8642 9.82044 44.4596 10.2797 44.9279 10.7846L52.26 3.98454ZM47.7265 0.558679C45.9165 -0.380096 43.9524 -0.941921 41.9201 -1.16542L40.827 8.77466C41.7416 8.87524 42.4997 9.11279 43.1224 9.43575L47.7265 0.558679ZM41.9392 -1.16328C41.323 -1.23344 40.6933 -1.271 40.0621 -1.271V8.729C40.2994 8.729 40.5512 8.7433 40.8079 8.77252L41.9392 -1.16328Z" fill="#293F77" mask="url(#path-6-inside-2_108_287)"/>
<mask id="path-8-inside-3_108_287" fill="white">
<path d="M56.8749 28.35L56.8706 2.20154H58.5428L58.5471 26.7491L69.3021 26.7469V28.3478L56.8749 28.35Z"/>
</mask>
<path d="M56.8749 28.35L56.8706 2.20154H58.5428L58.5471 26.7491L69.3021 26.7469V28.3478L56.8749 28.35Z" fill="#293F77"/>
<path d="M56.8749 28.35L51.8749 28.3508L51.8758 33.3509L56.8758 33.35L56.8749 28.35ZM56.8706 2.20154V-2.79846H51.8698L51.8706 2.20236L56.8706 2.20154ZM58.5428 2.20154L63.5428 2.20066L63.5419 -2.79846H58.5428V2.20154ZM58.5471 26.7491L53.5471 26.7499L53.548 31.7501L58.5481 31.7491L58.5471 26.7491ZM69.3021 26.7469H74.3021V21.7459L69.3011 21.7469L69.3021 26.7469ZM69.3021 28.3478L69.303 33.3478L74.3021 33.347V28.3478H69.3021ZM61.8749 28.3492L61.8706 2.20071L51.8706 2.20236L51.8749 28.3508L61.8749 28.3492ZM56.8706 7.20154H58.5428V-2.79846H56.8706V7.20154ZM53.5428 2.20242L53.5471 26.7499L63.5471 26.7482L63.5428 2.20066L53.5428 2.20242ZM58.5481 31.7491L69.3031 31.7469L69.3011 21.7469L58.5461 21.7491L58.5481 31.7491ZM64.3021 26.7469V28.3478H74.3021V26.7469H64.3021ZM69.3012 23.3478L56.8741 23.35L56.8758 33.35L69.303 33.3478L69.3012 23.3478Z" fill="#293F77" mask="url(#path-8-inside-3_108_287)"/>
<mask id="path-10-inside-4_108_287" fill="white">
<path d="M86.5751 28.3457L81.5519 21.7583C81.1868 21.821 80.8044 21.8901 80.4134 21.9636C79.9532 22.05 79.48 22.0954 79.0047 22.0954H78.6331V20.5182L78.981 20.4966C80.4198 20.4059 81.7442 20.0343 82.9174 19.3969C84.0862 18.7617 85.0476 17.9213 85.7757 16.8994C86.4995 15.8818 86.964 14.7022 87.1563 13.3972C87.3486 12.0944 87.1908 10.7182 86.6896 9.30524C86.2381 8.11049 85.5186 7.04537 84.5529 6.14876C83.5979 5.26296 82.5026 4.64074 81.297 4.29938C81.2106 4.29074 81.0702 4.26481 80.7871 4.17839C80.5084 4.09413 80.4306 4.08765 80.4242 4.08765C80.355 4.08765 80.2556 4.07469 80.1087 4.04444C79.9748 4.01851 79.9337 4.01635 79.9294 4.01635H72.6205L72.6248 28.35H70.9526L70.9482 2.34413H79.4303C80.3982 2.34413 81.3748 2.52561 82.3297 2.88425C83.276 3.24074 84.1316 3.70956 84.8726 4.27561C85.9766 5.08364 86.8711 6.09259 87.5257 7.26574C88.1782 8.43456 88.5887 9.68117 88.7507 10.9731C88.9106 12.2651 88.8177 13.5809 88.4742 14.8836C88.1285 16.1951 87.5019 17.3963 86.614 18.4571C86.0998 19.0944 85.51 19.654 84.8661 20.112C84.339 20.488 83.7708 20.838 83.1723 21.1556L88.5757 28.3457H86.5751Z"/>
</mask>
<path d="M86.5751 28.3457L81.5519 21.7583C81.1868 21.821 80.8044 21.8901 80.4134 21.9636C79.9532 22.05 79.48 22.0954 79.0047 22.0954H78.6331V20.5182L78.981 20.4966C80.4198 20.4059 81.7442 20.0343 82.9174 19.3969C84.0862 18.7617 85.0476 17.9213 85.7757 16.8994C86.4995 15.8818 86.964 14.7022 87.1563 13.3972C87.3486 12.0944 87.1908 10.7182 86.6896 9.30524C86.2381 8.11049 85.5186 7.04537 84.5529 6.14876C83.5979 5.26296 82.5026 4.64074 81.297 4.29938C81.2106 4.29074 81.0702 4.26481 80.7871 4.17839C80.5084 4.09413 80.4306 4.08765 80.4242 4.08765C80.355 4.08765 80.2556 4.07469 80.1087 4.04444C79.9748 4.01851 79.9337 4.01635 79.9294 4.01635H72.6205L72.6248 28.35H70.9526L70.9482 2.34413H79.4303C80.3982 2.34413 81.3748 2.52561 82.3297 2.88425C83.276 3.24074 84.1316 3.70956 84.8726 4.27561C85.9766 5.08364 86.8711 6.09259 87.5257 7.26574C88.1782 8.43456 88.5887 9.68117 88.7507 10.9731C88.9106 12.2651 88.8177 13.5809 88.4742 14.8836C88.1285 16.1951 87.5019 17.3963 86.614 18.4571C86.0998 19.0944 85.51 19.654 84.8661 20.112C84.339 20.488 83.7708 20.838 83.1723 21.1556L88.5757 28.3457H86.5751Z" fill="#293F77"/>
<path d="M86.5751 28.3457L82.5992 31.3775L84.1 33.3457H86.5751V28.3457ZM81.5519 21.7583L85.5279 18.7265L83.6914 16.3181L80.7063 16.8304L81.5519 21.7583ZM80.4134 21.9636L81.3362 26.8777L81.3364 26.8776L80.4134 21.9636ZM78.6331 22.0954H73.6331V27.0954H78.6331V22.0954ZM78.6331 20.5182L78.3232 15.5278L73.6331 15.8191V20.5182H78.6331ZM78.981 20.4966L79.2909 25.487L79.2956 25.4867L78.981 20.4966ZM82.9174 19.3969L85.3043 23.7904L85.3048 23.7901L82.9174 19.3969ZM85.7757 16.8994L89.8479 19.8007L89.8502 19.7974L85.7757 16.8994ZM87.1563 13.3972L82.2099 12.6671L82.2097 12.6683L87.1563 13.3972ZM86.6896 9.30524L91.4019 7.63361L91.3848 7.58541L91.3667 7.53758L86.6896 9.30524ZM84.5529 6.14876L87.9548 2.4845L87.9532 2.48302L84.5529 6.14876ZM81.297 4.29938L82.6592 -0.511482L82.2341 -0.631847L81.7945 -0.675808L81.297 4.29938ZM80.7871 4.17839L82.2473 -0.603669L82.2341 -0.607666L80.7871 4.17839ZM80.1087 4.04444L81.117 -0.852845L81.088 -0.858825L81.0588 -0.86446L80.1087 4.04444ZM72.6205 4.01635V-0.983646H67.6196L67.6205 4.01724L72.6205 4.01635ZM72.6248 28.35V33.35H77.6257L77.6248 28.3491L72.6248 28.35ZM70.9526 28.35L65.9526 28.3508L65.9534 33.35H70.9526V28.35ZM70.9482 2.34413V-2.65587H65.9474L65.9482 2.34496L70.9482 2.34413ZM82.3297 2.88425L84.0924 -1.79475L84.0877 -1.79652L82.3297 2.88425ZM84.8726 4.27561L81.8375 8.24905L81.8782 8.28014L81.9196 8.3104L84.8726 4.27561ZM87.5257 7.26574L83.1595 9.70214L83.1599 9.70285L87.5257 7.26574ZM88.7507 10.9731L93.7129 10.3591L93.7118 10.3509L88.7507 10.9731ZM88.4742 14.8836L83.6394 13.6088L83.6393 13.6092L88.4742 14.8836ZM86.614 18.4571L82.7799 15.2477L82.7509 15.2824L82.7225 15.3176L86.614 18.4571ZM84.8661 20.112L81.9677 16.0378L81.9631 16.0411L84.8661 20.112ZM83.1723 21.1556L80.8285 16.7389L75.66 19.4818L79.1752 24.1594L83.1723 21.1556ZM88.5757 28.3457V33.3457H98.5877L92.5728 25.3418L88.5757 28.3457ZM90.551 25.3138L85.5279 18.7265L77.576 24.7902L82.5992 31.3775L90.551 25.3138ZM80.7063 16.8304C80.3111 16.8982 79.9026 16.9721 79.4903 17.0495L81.3364 26.8776C81.7063 26.8082 82.0625 26.7438 82.3976 26.6863L80.7063 16.8304ZM79.4905 17.0495C79.3277 17.0801 79.1634 17.0954 79.0047 17.0954V27.0954C79.7966 27.0954 80.5787 27.0199 81.3362 26.8777L79.4905 17.0495ZM79.0047 17.0954H78.6331V27.0954H79.0047V17.0954ZM83.6331 22.0954V20.5182H73.6331V22.0954H83.6331ZM78.9431 25.5086L79.2909 25.487L78.671 15.5062L78.3232 15.5278L78.9431 25.5086ZM79.2956 25.4867C81.4076 25.3535 83.4471 24.7994 85.3043 23.7904L80.5305 15.0034C80.0414 15.2691 79.4321 15.4582 78.6663 15.5065L79.2956 25.4867ZM85.3048 23.7901C87.1012 22.8139 88.6531 21.4776 89.8479 19.8007L81.7036 13.9981C81.4421 14.365 81.0713 14.7095 80.5299 15.0037L85.3048 23.7901ZM89.8502 19.7974C91.0589 18.098 91.8023 16.1656 92.1029 14.1261L82.2097 12.6683C82.1256 13.2387 81.9401 13.6655 81.7012 14.0014L89.8502 19.7974ZM92.1027 14.1273C92.4302 11.9083 92.1369 9.70554 91.4019 7.63361L81.9773 10.9769C82.2448 11.7309 82.2669 12.2806 82.2099 12.6671L92.1027 14.1273ZM91.3667 7.53758C90.6353 5.60221 89.4717 3.8928 87.9548 2.4845L81.1509 9.81302C81.5655 10.1979 81.8409 10.6188 82.0125 11.0729L91.3667 7.53758ZM87.9532 2.48302C86.4427 1.08187 84.6557 0.0538263 82.6592 -0.511482L79.9348 9.11024C80.3494 9.22765 80.7532 9.44405 81.1525 9.8145L87.9532 2.48302ZM81.7945 -0.675808C81.9895 -0.656308 82.1371 -0.627215 82.2176 -0.609045C82.2892 -0.592864 82.3072 -0.585365 82.2473 -0.603651L79.327 8.96043C79.7499 9.08958 80.2453 9.21914 80.7995 9.27456L81.7945 -0.675808ZM82.2341 -0.607666C82.0135 -0.674353 81.7958 -0.733722 81.5806 -0.781194C81.5133 -0.796036 81.023 -0.91235 80.4242 -0.91235V9.08765C80.26 9.08765 80.1321 9.07931 80.0847 9.07606C80.0171 9.07143 79.9591 9.06606 79.9137 9.06135C79.8226 9.05188 79.7457 9.04127 79.6871 9.0323C79.5701 9.01437 79.4802 8.99589 79.4265 8.98404C79.3215 8.96087 79.2821 8.94688 79.3402 8.96445L82.2341 -0.607666ZM80.4242 -0.91235C80.6851 -0.91235 80.8799 -0.889132 80.9666 -0.877388C81.0166 -0.870617 81.0544 -0.864326 81.0774 -0.860288C81.1006 -0.856193 81.1145 -0.853364 81.117 -0.852845L79.1005 8.94173C79.3268 8.98833 79.8307 9.08765 80.4242 9.08765V-0.91235ZM81.0588 -0.86446C80.9371 -0.888019 80.4677 -0.983646 79.9294 -0.983646V9.01635C79.8411 9.01635 79.7714 9.01397 79.7367 9.01262C79.6945 9.01098 79.6578 9.00902 79.6283 9.00721C79.5692 9.0036 79.5185 8.99942 79.4785 8.99572C79.3986 8.9883 79.3343 8.98024 79.2906 8.97424C79.2455 8.96805 79.2115 8.96256 79.191 8.9591C79.1701 8.95557 79.1587 8.95336 79.1586 8.95334L81.0588 -0.86446ZM79.9294 -0.983646H72.6205V9.01635H79.9294V-0.983646ZM67.6205 4.01724L67.6248 28.3509L77.6248 28.3491L77.6205 4.01547L67.6205 4.01724ZM72.6248 23.35H70.9526V33.35H72.6248V23.35ZM75.9526 28.3492L75.9482 2.3433L65.9482 2.34496L65.9526 28.3508L75.9526 28.3492ZM70.9482 7.34413H79.4303V-2.65587H70.9482V7.34413ZM79.4303 7.34413C79.7682 7.34413 80.1504 7.40678 80.5718 7.56503L84.0877 -1.79652C82.5991 -2.35556 81.0283 -2.65587 79.4303 -2.65587V7.34413ZM80.5671 7.56326C81.0922 7.76109 81.5127 8.00094 81.8375 8.24905L87.9077 0.30218C86.7504 -0.581813 85.4598 -1.27962 84.0924 -1.79475L80.5671 7.56326ZM81.9196 8.3104C82.4522 8.70021 82.8609 9.1671 83.1595 9.70214L91.8919 4.82933C90.8812 3.01808 89.5011 1.46706 87.8257 0.240828L81.9196 8.3104ZM83.1599 9.70285C83.5055 10.322 83.7091 10.9539 83.7896 11.5954L93.7118 10.3509C93.4682 8.40848 92.8508 6.5471 91.8915 4.82862L83.1599 9.70285ZM83.7886 11.5872C83.8676 12.2256 83.8262 12.9004 83.6394 13.6088L93.3089 16.1585C93.8092 14.2613 93.9536 12.3046 93.7129 10.3591L83.7886 11.5872ZM83.6393 13.6092C83.4859 14.1914 83.2086 14.7356 82.7799 15.2477L90.448 21.6665C91.7953 20.057 92.7711 18.1987 93.309 16.1581L83.6393 13.6092ZM82.7225 15.3176C82.4814 15.6165 82.222 15.8569 81.9677 16.0378L87.7646 24.1862C88.7979 23.4511 89.7182 22.5724 90.5054 21.5966L82.7225 15.3176ZM81.9631 16.0411C81.6229 16.2837 81.2424 16.5193 80.8285 16.7389L85.5161 25.5722C86.2991 25.1566 87.0551 24.6922 87.7692 24.183L81.9631 16.0411ZM79.1752 24.1594L84.5786 31.3495L92.5728 25.3418L87.1694 18.1517L79.1752 24.1594ZM88.5757 23.3457H86.5751V33.3457H88.5757V23.3457Z" fill="#293F77" mask="url(#path-10-inside-4_108_287)"/>
<mask id="path-12-inside-5_108_287" fill="white">
<path d="M114.078 28.4127L114.076 4.93889L92.3525 28.3435L90.2007 28.3457L114.212 2.1929H115.604L115.61 28.4105L114.078 28.4127Z"/>
</mask>
<path d="M114.078 28.4127L114.076 4.93889L92.3525 28.3435L90.2007 28.3457L114.212 2.1929H115.604L115.61 28.4105L114.078 28.4127Z" fill="#293F77"/>
<path d="M114.078 28.4127L109.078 28.4131L109.079 33.4197L114.086 33.4126L114.078 28.4127ZM114.076 4.93889L119.076 4.93843L119.075 -7.79644L110.412 1.5374L114.076 4.93889ZM92.3525 28.3435L92.3576 33.3435L94.5355 33.3413L96.0172 31.745L92.3525 28.3435ZM90.2007 28.3457L86.5176 24.9641L78.8117 33.3571L90.2057 33.3457L90.2007 28.3457ZM114.212 2.1929V-2.8071H112.015L110.529 -1.18866L114.212 2.1929ZM115.604 2.1929L120.604 2.19167L120.603 -2.8071H115.604V2.1929ZM115.61 28.4105L115.617 33.4105L120.611 33.4035L120.61 28.4093L115.61 28.4105ZM119.078 28.4122L119.076 4.93843L109.076 4.93935L109.078 28.4131L119.078 28.4122ZM110.412 1.5374L88.6879 24.942L96.0172 31.745L117.741 8.34038L110.412 1.5374ZM92.3475 23.3435L90.1957 23.3457L90.2057 33.3457L92.3576 33.3435L92.3475 23.3435ZM93.8838 31.7272L117.895 5.57446L110.529 -1.18866L86.5176 24.9641L93.8838 31.7272ZM114.212 7.1929H115.604V-2.8071H114.212V7.1929ZM110.604 2.19414L110.61 28.4117L120.61 28.4093L120.604 2.19167L110.604 2.19414ZM115.603 23.4105L114.071 23.4127L114.086 33.4126L115.617 33.4105L115.603 23.4105Z" fill="#293F77" mask="url(#path-12-inside-5_108_287)"/>
<mask id="path-14-inside-6_108_287" fill="white">
<path d="M121.109 2.11945H119.508V28.3392H121.109V2.11945Z"/>
</mask>
<path d="M121.109 2.11945H119.508V28.3392H121.109V2.11945Z" fill="#293F77"/>
<path d="M119.508 2.11945V-2.88055H114.508V2.11945H119.508ZM121.109 2.11945H126.109V-2.88055H121.109V2.11945ZM121.109 28.3392V33.3392H126.109V28.3392H121.109ZM119.508 28.3392H114.508V33.3392H119.508V28.3392ZM119.508 7.11945H121.109V-2.88055H119.508V7.11945ZM116.109 2.11945V28.3392H126.109V2.11945H116.109ZM121.109 23.3392H119.508V33.3392H121.109V23.3392ZM124.508 28.3392V2.11945H114.508V28.3392H124.508Z" fill="#293F77" mask="url(#path-14-inside-6_108_287)"/>
<mask id="path-16-inside-7_108_287" fill="white">
<path d="M136.763 28.458C136.392 28.458 136.014 28.4407 135.64 28.4062C134.091 28.2593 132.635 27.8056 131.31 27.0559C129.995 26.3127 128.808 25.3555 127.784 24.2105C127.223 23.6012 126.73 22.9164 126.324 22.1775C125.924 21.4494 125.572 20.6889 125.282 19.9133C124.745 18.4441 124.483 16.9404 124.507 15.4346C124.531 13.9395 124.777 12.4876 125.241 11.1222C125.704 9.75894 126.376 8.47345 127.242 7.30462C128.106 6.13364 129.141 5.13549 130.316 4.34043C131.492 3.54536 132.814 2.96851 134.244 2.62499C135.082 2.42407 135.962 2.32253 136.861 2.32253C137.5 2.32253 138.163 2.37438 138.835 2.47592C140.747 2.76975 142.502 3.52808 144.046 4.72932C145.578 5.91975 146.81 7.37376 147.713 9.04814C147.756 9.11512 147.825 9.24043 147.981 9.58395C148.104 9.85401 148.188 10.0485 148.238 10.1716L148.266 10.2386V10.2861C148.27 10.2969 148.279 10.3207 148.298 10.3574C148.376 10.513 148.411 10.6296 148.411 10.7398V10.9904L148.177 11.0833C148.082 11.1222 147.972 11.1827 147.851 11.2626C147.695 11.3664 147.536 11.4204 147.376 11.4204C147.285 11.4204 147.196 11.4031 147.114 11.3685L146.972 11.3102L146.911 11.1676C146.54 10.2861 146.112 9.4716 145.639 8.74351C145.168 8.02191 144.578 7.31543 143.886 6.64567C142.612 5.46172 141.11 4.65802 139.432 4.25833C138.6 4.06172 137.757 3.96018 136.923 3.96018C136.066 3.96018 135.195 4.06604 134.335 4.27561C132.967 4.61697 131.686 5.25648 130.53 6.17253C129.372 7.09073 128.437 8.18394 127.75 9.41975C127.037 10.7096 126.564 12.062 126.345 13.4426C126.127 14.8231 126.138 16.1864 126.38 17.4978C126.622 18.8114 127.071 20.0645 127.715 21.2247C128.357 22.3827 129.184 23.4003 130.17 24.2494C131.155 25.0985 132.306 25.766 133.592 26.237C134.661 26.6281 135.828 26.8268 137.061 26.8268C137.303 26.8268 137.552 26.8182 137.8 26.8031C138.829 26.7577 139.831 26.5265 140.784 26.1182C141.748 25.7055 142.649 25.1525 143.461 24.4762C144.275 23.7978 144.993 23.0136 145.589 22.1407C146.185 21.2701 146.65 20.3389 146.972 19.3753L147.093 19.0123L148.482 19.5179V19.9111L148.462 19.9694C148.266 20.5549 148.026 21.1318 147.745 21.6827C147.466 22.2293 147.153 22.7651 146.812 23.275C146.17 24.1889 145.427 24.9947 144.595 25.6796C143.763 26.3645 142.849 26.9305 141.884 27.3583C140.92 27.7861 139.9 28.0951 138.85 28.2787C138.166 28.3975 137.463 28.4602 136.768 28.4602L136.763 28.458Z"/>
</mask>
<path d="M136.763 28.458C136.392 28.458 136.014 28.4407 135.64 28.4062C134.091 28.2593 132.635 27.8056 131.31 27.0559C129.995 26.3127 128.808 25.3555 127.784 24.2105C127.223 23.6012 126.73 22.9164 126.324 22.1775C125.924 21.4494 125.572 20.6889 125.282 19.9133C124.745 18.4441 124.483 16.9404 124.507 15.4346C124.531 13.9395 124.777 12.4876 125.241 11.1222C125.704 9.75894 126.376 8.47345 127.242 7.30462C128.106 6.13364 129.141 5.13549 130.316 4.34043C131.492 3.54536 132.814 2.96851 134.244 2.62499C135.082 2.42407 135.962 2.32253 136.861 2.32253C137.5 2.32253 138.163 2.37438 138.835 2.47592C140.747 2.76975 142.502 3.52808 144.046 4.72932C145.578 5.91975 146.81 7.37376 147.713 9.04814C147.756 9.11512 147.825 9.24043 147.981 9.58395C148.104 9.85401 148.188 10.0485 148.238 10.1716L148.266 10.2386V10.2861C148.27 10.2969 148.279 10.3207 148.298 10.3574C148.376 10.513 148.411 10.6296 148.411 10.7398V10.9904L148.177 11.0833C148.082 11.1222 147.972 11.1827 147.851 11.2626C147.695 11.3664 147.536 11.4204 147.376 11.4204C147.285 11.4204 147.196 11.4031 147.114 11.3685L146.972 11.3102L146.911 11.1676C146.54 10.2861 146.112 9.4716 145.639 8.74351C145.168 8.02191 144.578 7.31543 143.886 6.64567C142.612 5.46172 141.11 4.65802 139.432 4.25833C138.6 4.06172 137.757 3.96018 136.923 3.96018C136.066 3.96018 135.195 4.06604 134.335 4.27561C132.967 4.61697 131.686 5.25648 130.53 6.17253C129.372 7.09073 128.437 8.18394 127.75 9.41975C127.037 10.7096 126.564 12.062 126.345 13.4426C126.127 14.8231 126.138 16.1864 126.38 17.4978C126.622 18.8114 127.071 20.0645 127.715 21.2247C128.357 22.3827 129.184 23.4003 130.17 24.2494C131.155 25.0985 132.306 25.766 133.592 26.237C134.661 26.6281 135.828 26.8268 137.061 26.8268C137.303 26.8268 137.552 26.8182 137.8 26.8031C138.829 26.7577 139.831 26.5265 140.784 26.1182C141.748 25.7055 142.649 25.1525 143.461 24.4762C144.275 23.7978 144.993 23.0136 145.589 22.1407C146.185 21.2701 146.65 20.3389 146.972 19.3753L147.093 19.0123L148.482 19.5179V19.9111L148.462 19.9694C148.266 20.5549 148.026 21.1318 147.745 21.6827C147.466 22.2293 147.153 22.7651 146.812 23.275C146.17 24.1889 145.427 24.9947 144.595 25.6796C143.763 26.3645 142.849 26.9305 141.884 27.3583C140.92 27.7861 139.9 28.0951 138.85 28.2787C138.166 28.3975 137.463 28.4602 136.768 28.4602L136.763 28.458Z" fill="#293F77"/>
<path d="M136.763 28.458L139.002 23.9873L137.945 23.458H136.763V28.458ZM135.64 28.4062L135.168 33.3838L135.179 33.3849L135.64 28.4062ZM131.31 27.0559L133.773 22.7046L133.769 22.7024L131.31 27.0559ZM127.784 24.2105L131.511 20.8773L131.486 20.8491L131.46 20.8213L127.784 24.2105ZM126.324 22.1775L121.941 24.5836L121.942 24.5861L126.324 22.1775ZM125.282 19.9133L120.587 21.6325L120.593 21.6471L120.598 21.6617L125.282 19.9133ZM124.507 15.4346L119.507 15.3551L119.507 15.3557L124.507 15.4346ZM125.241 11.1222L129.975 12.7325L129.977 12.7281L125.241 11.1222ZM127.242 7.30462L131.259 10.282L131.265 10.2737L127.242 7.30462ZM134.244 2.62499L133.079 -2.23728L133.077 -2.23674L134.244 2.62499ZM138.835 2.47592L139.595 -2.46608L139.582 -2.46794L138.835 2.47592ZM144.046 4.72932L140.977 8.67637L140.978 8.67728L144.046 4.72932ZM147.713 9.04814L143.312 11.4217L143.405 11.5941L143.511 11.7588L147.713 9.04814ZM147.981 9.58395L143.426 11.6465L143.431 11.6584L147.981 9.58395ZM148.238 10.1716L143.601 12.0426L143.614 12.074L143.627 12.1053L148.238 10.1716ZM148.266 10.2386H153.266V9.23258L152.877 8.30487L148.266 10.2386ZM148.266 10.2861H143.266V11.249L143.623 12.1431L148.266 10.2861ZM148.298 10.3574L152.77 8.12133L152.744 8.06934L152.717 8.01796L148.298 10.3574ZM148.411 10.9904L150.26 15.6358L153.411 14.3814V10.9904H148.411ZM148.177 11.0833L146.328 6.43797L146.306 6.44668L146.284 6.45559L148.177 11.0833ZM147.851 11.2626L145.095 7.09097L145.086 7.09667L145.078 7.1024L147.851 11.2626ZM147.114 11.3685L149.055 6.76034L149.031 6.75045L149.007 6.74081L147.114 11.3685ZM146.972 11.3102L142.369 13.2631L143.173 15.1583L145.078 15.9379L146.972 11.3102ZM146.911 11.1676L142.304 13.1099L142.308 13.1205L146.911 11.1676ZM145.639 8.74351L149.831 6.019L149.826 6.01064L145.639 8.74351ZM143.886 6.64567L147.365 3.05447L147.328 3.01791L147.289 2.98215L143.886 6.64567ZM139.432 4.25833L140.59 -0.60571L140.582 -0.607596L139.432 4.25833ZM134.335 4.27561L133.151 -0.582196L133.138 -0.578911L133.124 -0.575551L134.335 4.27561ZM130.53 6.17253L127.425 2.25393L127.424 2.25467L130.53 6.17253ZM127.75 9.41975L123.38 6.99023L123.374 7.00087L127.75 9.41975ZM126.38 17.4978L131.297 16.592L131.297 16.5906L126.38 17.4978ZM127.715 21.2247L132.089 18.8013L132.087 18.7985L127.715 21.2247ZM133.592 26.237L131.872 30.9318L131.875 30.9329L133.592 26.237ZM137.8 26.8031L137.58 21.8079L137.538 21.8098L137.497 21.8123L137.8 26.8031ZM140.784 26.1182L138.816 21.5219L138.814 21.5225L140.784 26.1182ZM143.461 24.4762L146.66 28.319L146.661 28.3182L143.461 24.4762ZM145.589 22.1407L141.464 19.3155L141.46 19.3202L145.589 22.1407ZM146.972 19.3753L151.714 20.9596L151.715 20.9564L146.972 19.3753ZM147.093 19.0123L148.803 14.3138L143.974 12.5566L142.349 17.4312L147.093 19.0123ZM148.482 19.5179H153.482V16.0167L150.192 14.8194L148.482 19.5179ZM148.482 19.9111L153.225 21.4927L153.482 20.7227V19.9111H148.482ZM148.462 19.9694L153.202 21.5611L153.206 21.551L148.462 19.9694ZM147.745 21.6827L152.2 23.9539L152.2 23.9536L147.745 21.6827ZM146.812 23.275L150.904 26.1481L150.936 26.1027L150.967 26.0566L146.812 23.275ZM141.884 27.3583L139.859 22.7867L139.855 22.7884L141.884 27.3583ZM138.85 28.2787L139.705 33.2051L139.712 33.2039L138.85 28.2787ZM136.768 28.4602L134.529 32.9309L135.586 33.4602H136.768V28.4602ZM136.763 23.458C136.545 23.458 136.32 23.4478 136.1 23.4274L135.179 33.3849C135.707 33.4337 136.239 33.458 136.763 33.458V23.458ZM136.112 23.4285C135.246 23.3463 134.47 23.0992 133.773 22.7046L128.847 31.4071C130.799 32.5119 132.936 33.1722 135.168 33.3838L136.112 23.4285ZM133.769 22.7024C132.937 22.2322 132.177 21.622 131.511 20.8773L124.057 27.5436C125.44 29.0891 127.052 30.3931 128.851 31.4093L133.769 22.7024ZM131.46 20.8213C131.175 20.5122 130.919 20.1572 130.705 19.7689L121.942 24.5861C122.541 25.6755 123.27 26.6902 124.108 27.5997L131.46 20.8213ZM130.707 19.7714C130.417 19.2425 130.167 18.7014 129.967 18.1648L120.598 21.6617C120.977 22.6764 121.432 23.6562 121.941 24.5836L130.707 19.7714ZM129.978 18.194C129.641 17.2746 129.493 16.3794 129.506 15.5135L119.507 15.3557C119.474 17.5015 119.848 19.6136 120.587 21.6325L129.978 18.194ZM129.506 15.514C129.522 14.5171 129.686 13.5835 129.975 12.7325L120.508 9.5119C119.868 11.3918 119.539 13.3619 119.507 15.3551L129.506 15.514ZM129.977 12.7281C130.272 11.8566 130.702 11.0338 131.259 10.282L123.225 4.32724C122.05 5.91306 121.135 7.66125 120.506 9.51634L129.977 12.7281ZM131.265 10.2737C131.801 9.54739 132.426 8.94968 133.118 8.48184L127.515 0.199009C125.856 1.32129 124.411 2.71989 123.219 4.33559L131.265 10.2737ZM133.118 8.48184C133.777 8.03636 134.541 7.69581 135.412 7.48673L133.077 -2.23674C131.087 -1.75879 129.207 -0.945635 127.515 0.199009L133.118 8.48184ZM135.41 7.48727C135.85 7.38181 136.337 7.32253 136.861 7.32253V-2.67747C135.587 -2.67747 134.315 -2.53367 133.079 -2.23728L135.41 7.48727ZM136.861 7.32253C137.233 7.32253 137.646 7.35291 138.088 7.41978L139.582 -2.46794C138.681 -2.60416 137.768 -2.67747 136.861 -2.67747V7.32253ZM138.076 7.41791C139.136 7.58086 140.097 7.99227 140.977 8.67637L147.116 0.782257C144.906 -0.936104 142.358 -2.04137 139.595 -2.46607L138.076 7.41791ZM140.978 8.67728C141.968 9.44623 142.743 10.3662 143.312 11.4217L152.113 6.6746C150.877 4.38136 149.189 2.39327 147.115 0.781355L140.978 8.67728ZM143.511 11.7588C143.414 11.6087 143.359 11.4999 143.35 11.4833C143.346 11.4747 143.349 11.4819 143.363 11.5105C143.376 11.5387 143.397 11.5826 143.426 11.6465L152.535 7.52141C152.369 7.15309 152.172 6.73774 151.914 6.33751L143.511 11.7588ZM143.431 11.6584C143.484 11.7739 143.524 11.8647 143.554 11.933C143.569 11.9669 143.58 11.9933 143.589 12.0127C143.593 12.0224 143.596 12.0297 143.598 12.0349C143.6 12.0402 143.601 12.0427 143.601 12.0426L152.874 8.30063C152.784 8.07755 152.665 7.80643 152.53 7.50945L143.431 11.6584ZM143.627 12.1053L143.655 12.1723L152.877 8.30487L152.849 8.23789L143.627 12.1053ZM143.266 10.2386V10.2861H153.266V10.2386H143.266ZM143.623 12.1431C143.585 12.0459 143.645 12.1996 143.686 12.2936C143.739 12.4167 143.803 12.552 143.879 12.6968L152.717 8.01796C152.774 8.12606 152.824 8.23112 152.867 8.33048C152.897 8.40069 152.951 8.53707 152.908 8.42915L143.623 12.1431ZM143.826 12.5935C143.743 12.4269 143.411 11.7358 143.411 10.7398H153.411C153.411 9.52346 153.009 8.59906 152.77 8.12133L143.826 12.5935ZM143.411 10.7398V10.9904H153.411V10.7398H143.411ZM146.561 6.34507L146.328 6.43797L150.027 15.7287L150.26 15.6358L146.561 6.34507ZM146.284 6.45559C145.794 6.65608 145.389 6.89681 145.095 7.09097L150.607 15.4343C150.571 15.458 150.513 15.4951 150.432 15.5395C150.353 15.5826 150.231 15.6452 150.07 15.7111L146.284 6.45559ZM145.078 7.1024C145.575 6.77065 146.364 6.42036 147.376 6.42036V16.4204C148.707 16.4204 149.816 15.9621 150.625 15.4229L145.078 7.1024ZM147.376 6.42036C147.922 6.42036 148.496 6.52521 149.055 6.76034L145.174 15.9767C145.897 16.2809 146.648 16.4204 147.376 16.4204V6.42036ZM149.007 6.74081L148.865 6.68247L145.078 15.9379L145.221 15.9962L149.007 6.74081ZM151.575 9.35726L151.514 9.21466L142.308 13.1205L142.369 13.2631L151.575 9.35726ZM151.519 9.22528C151.043 8.09753 150.48 7.01782 149.831 6.01901L141.446 11.468C141.743 11.9254 142.036 12.4747 142.304 13.1099L151.519 9.22528ZM149.826 6.01064C149.13 4.94452 148.294 3.95421 147.365 3.05447L140.408 10.2369C140.861 10.6766 141.205 11.0993 141.452 11.4764L149.826 6.01064ZM147.289 2.98215C145.386 1.21434 143.112 -0.00508475 140.59 -0.605704L138.273 9.12236C139.108 9.32112 139.838 9.7091 140.484 10.3092L147.289 2.98215ZM140.582 -0.607596C139.391 -0.889122 138.162 -1.03982 136.923 -1.03982V8.96018C137.352 8.96018 137.809 9.01257 138.281 9.12425L140.582 -0.607596ZM136.923 -1.03982C135.655 -1.03982 134.387 -0.88354 133.151 -0.582196L135.519 9.13342C136.002 9.01563 136.476 8.96018 136.923 8.96018V-1.03982ZM133.124 -0.575551C131.031 -0.0532265 129.11 0.918143 127.425 2.25393L133.636 10.0911C134.262 9.59481 134.903 9.28717 135.546 9.12677L133.124 -0.575551ZM127.424 2.25467C125.773 3.5634 124.4 5.15567 123.38 6.99023L132.12 11.8493C132.474 11.2122 132.971 10.6181 133.637 10.0904L127.424 2.25467ZM123.374 7.00087C122.397 8.76882 121.721 10.6727 121.407 12.662L131.284 14.2232C131.406 13.4514 131.677 12.6503 132.126 11.8386L123.374 7.00087ZM121.407 12.662C121.105 14.572 121.113 16.507 121.463 18.4051L131.297 16.5906C131.163 15.8659 131.15 15.0742 131.284 14.2232L121.407 12.662ZM121.463 18.4036C121.803 20.2482 122.435 22.015 123.343 23.6508L132.087 18.7985C131.707 18.114 131.441 17.3746 131.297 16.592L121.463 18.4036ZM123.342 23.648C124.267 25.318 125.469 26.7987 126.905 28.0369L133.434 20.4619C132.9 20.0019 132.447 19.4474 132.089 18.8013L123.342 23.648ZM126.905 28.0369C128.373 29.3018 130.055 30.2663 131.872 30.9318L135.312 21.5422C134.557 21.2658 133.936 20.8951 133.434 20.4619L126.905 28.0369ZM131.875 30.9329C133.537 31.5407 135.289 31.8268 137.061 31.8268V21.8268C136.367 21.8268 135.786 21.7155 135.309 21.5411L131.875 30.9329ZM137.061 31.8268C137.42 31.8268 137.771 31.8141 138.104 31.7938L137.497 21.8123C137.333 21.8223 137.187 21.8268 137.061 21.8268V31.8268ZM138.021 31.7982C139.661 31.7259 141.255 31.356 142.754 30.7139L138.814 21.5225C138.407 21.697 137.997 21.7896 137.58 21.8079L138.021 31.7982ZM142.752 30.7145C144.166 30.1091 145.48 29.3007 146.66 28.319L140.262 20.6334C139.817 21.0042 139.329 21.302 138.816 21.5219L142.752 30.7145ZM146.661 28.3182C147.822 27.3508 148.854 26.2247 149.718 24.9612L141.46 19.3202C141.131 19.8025 140.729 20.2449 140.261 20.6343L146.661 28.3182ZM149.714 24.966C150.565 23.7233 151.241 22.3759 151.714 20.9596L142.229 17.791C142.059 18.3019 141.805 18.8169 141.464 19.3155L149.714 24.966ZM151.715 20.9564L151.836 20.5935L142.349 17.4312L142.228 17.7942L151.715 20.9564ZM145.383 23.7109L146.772 24.2164L150.192 14.8194L148.803 14.3138L145.383 23.7109ZM143.482 19.5179V19.9111H153.482V19.5179H143.482ZM143.739 18.3295L143.719 18.3879L153.206 21.551L153.225 21.4927L143.739 18.3295ZM143.723 18.3778C143.6 18.742 143.454 19.0908 143.291 19.4118L152.2 23.9536C152.598 23.1727 152.931 22.3679 153.202 21.5611L143.723 18.3778ZM143.291 19.4115C143.099 19.7873 142.885 20.1522 142.657 20.4934L150.967 26.0566C151.421 25.378 151.834 24.6714 152.2 23.9539L143.291 19.4115ZM142.72 20.4018C142.328 20.9597 141.889 21.4306 141.417 21.8197L147.773 29.5396C148.964 28.5589 150.012 27.4181 150.904 26.1481L142.72 20.4018ZM141.417 21.8197C140.928 22.2226 140.4 22.5468 139.859 22.7867L143.909 31.9299C145.299 31.3143 146.599 30.5064 147.773 29.5396L141.417 21.8197ZM139.855 22.7884C139.271 23.0479 138.643 23.239 137.989 23.3535L139.712 33.2039C141.157 32.9511 142.57 32.5244 143.912 31.9282L139.855 22.7884ZM137.996 23.3523C137.583 23.4239 137.167 23.4602 136.768 23.4602V33.4602C137.76 33.4602 138.748 33.3711 139.705 33.2051L137.996 23.3523ZM139.006 23.9894L139.002 23.9873L134.525 32.9288L134.529 32.9309L139.006 23.9894Z" fill="#293F77" mask="url(#path-16-inside-7_108_287)"/>
<mask id="path-18-inside-8_108_287" fill="white">
<path d="M151.74 28.3327L151.736 2.18642L168.272 2.1821V3.71173L153.337 3.71389V12.7966L165.71 12.7944V14.4667L153.337 14.4688L153.341 26.7318L167.847 26.7296V28.3306L151.74 28.3327Z"/>
</mask>
<path d="M151.74 28.3327L151.736 2.18642L168.272 2.1821V3.71173L153.337 3.71389V12.7966L165.71 12.7944V14.4667L153.337 14.4688L153.341 26.7318L167.847 26.7296V28.3306L151.74 28.3327Z" fill="#293F77"/>
<path d="M151.74 28.3327L146.74 28.3335L146.741 33.3334L151.741 33.3327L151.74 28.3327ZM151.736 2.18642L151.735 -2.81358L146.735 -2.81227L146.736 2.18725L151.736 2.18642ZM168.272 2.1821H173.272V-2.81921L168.271 -2.8179L168.272 2.1821ZM168.272 3.71173L168.273 8.71173L173.272 8.711V3.71173H168.272ZM153.337 3.71389L153.336 -1.28611L148.337 -1.28539V3.71389H153.337ZM153.337 12.7966H148.337V17.7975L153.338 17.7966L153.337 12.7966ZM165.71 12.7944H170.71V7.79357L165.709 7.79445L165.71 12.7944ZM165.71 14.4667L165.711 19.4667L170.71 19.4658V14.4667H165.71ZM153.337 14.4688L153.336 9.46883L148.335 9.4697L148.337 14.4706L153.337 14.4688ZM153.341 26.7318L148.341 26.7336L148.343 31.7325L153.342 31.7318L153.341 26.7318ZM167.847 26.7296H172.847V21.7289L167.846 21.7296L167.847 26.7296ZM167.847 28.3306L167.847 33.3306L172.847 33.3299V28.3306H167.847ZM156.74 28.3319L156.736 2.18559L146.736 2.18725L146.74 28.3335L156.74 28.3319ZM151.737 7.18642L168.274 7.1821L168.271 -2.8179L151.735 -2.81358L151.737 7.18642ZM163.272 2.1821V3.71173H173.272V2.1821H163.272ZM168.272 -1.28827L153.336 -1.28611L153.337 8.71389L168.273 8.71173L168.272 -1.28827ZM148.337 3.71389V12.7966H158.337V3.71389H148.337ZM153.338 17.7966L165.711 17.7944L165.709 7.79445L153.336 7.7966L153.338 17.7966ZM160.71 12.7944V14.4667H170.71V12.7944H160.71ZM165.709 9.46667L153.336 9.46883L153.338 19.4688L165.711 19.4667L165.709 9.46667ZM148.337 14.4706L148.341 26.7336L158.341 26.73L158.337 14.4671L148.337 14.4706ZM153.342 31.7318L167.847 31.7296L167.846 21.7296L153.34 21.7318L153.342 31.7318ZM162.847 26.7296V28.3306H172.847V26.7296H162.847ZM167.846 23.3306L151.739 23.3327L151.741 33.3327L167.847 33.3306L167.846 23.3306Z" fill="#293F77" mask="url(#path-18-inside-8_108_287)"/>
<mask id="path-20-inside-9_108_287" fill="white">
<path d="M178.243 28.4775C177.705 28.4775 177.171 28.4256 176.657 28.3241C175.853 28.1772 175.013 27.9179 174.17 27.5506C173.317 27.179 172.546 26.6972 171.876 26.1139C171.202 25.5262 170.649 24.8306 170.236 24.042C169.813 23.2339 169.625 22.3222 169.676 21.3306L169.689 21.0778L169.929 20.9978C170.113 20.9373 170.279 20.9071 170.439 20.9071H171.163L171.202 21.2355C171.314 22.1775 171.614 23.0525 172.096 23.8367C172.572 24.6102 173.241 25.241 174.086 25.7077C174.905 26.1636 175.776 26.479 176.674 26.6497C177.171 26.7447 177.675 26.7923 178.167 26.7923C178.563 26.7923 178.96 26.762 179.353 26.7015C180.239 26.5654 181.103 26.2824 181.92 25.8633C182.73 25.4463 183.45 24.8716 184.057 24.15C184.517 23.6444 184.804 23.0806 184.923 22.4627C185.048 21.8059 185.087 21.1275 185.042 20.4491V20.4253C185.042 20.0883 184.943 19.7491 184.75 19.4142C184.528 19.0275 184.309 18.6667 184.098 18.3404C183.53 17.5562 182.747 16.9167 181.784 16.4565C180.805 15.9898 179.794 15.7197 178.774 15.6528C177.904 15.5793 177.087 15.4951 176.339 15.4C175.557 15.3006 174.76 15.0759 173.967 14.7281C172.993 14.3046 172.126 13.6716 171.392 12.8485C170.655 12.0253 170.13 11.0877 169.83 10.0614C169.601 9.16913 169.549 8.32006 169.676 7.52284C169.802 6.72994 170.083 5.95864 170.508 5.23055C170.802 4.66666 171.206 4.13302 171.699 3.66636C172.187 3.20185 172.727 2.81512 173.302 2.51697C174.257 2.00277 175.315 1.63981 176.447 1.44321C177.091 1.33086 177.742 1.27469 178.379 1.27469C178.856 1.27469 179.338 1.3071 179.811 1.36975C180.924 1.51882 181.989 1.86882 182.979 2.41327C183.979 2.96419 184.828 3.73549 185.5 4.70771C185.867 5.19815 186.18 5.77716 186.418 6.4145C186.662 7.06913 186.759 7.74321 186.71 8.41296L186.684 8.75648H185.118L185.109 8.39352C185.087 7.37808 184.813 6.48364 184.299 5.73827C183.774 4.97994 183.102 4.36852 182.298 3.92345C181.484 3.47191 180.557 3.1608 179.543 3.00092C179.053 2.92315 178.56 2.88426 178.083 2.88426C177.571 2.88426 177.057 2.92963 176.558 3.01821C175.596 3.18889 174.689 3.52592 173.861 4.025C173.051 4.51327 172.405 5.17654 171.938 5.99969C171.452 6.86173 171.228 7.70648 171.273 8.51234C171.318 9.33117 171.541 10.0917 171.938 10.7744C172.338 11.4657 172.9 12.075 173.604 12.5892C174.315 13.1099 175.112 13.4988 175.972 13.7472C176.484 13.8812 177.005 13.9611 177.51 13.9827C178.048 14.0065 178.612 14.0432 179.187 14.0907C180.222 14.1642 181.237 14.4213 182.203 14.8534C183.169 15.2877 184.024 15.871 184.744 16.5904C185.47 17.3185 186.016 18.1806 186.368 19.1571C186.721 20.1401 186.811 21.2117 186.636 22.3417C186.433 23.4586 185.986 24.4395 185.308 25.2713C184.638 26.0901 183.813 26.7707 182.858 27.2914C181.909 27.8099 180.879 28.1664 179.794 28.35C179.269 28.4386 178.746 28.4861 178.243 28.4861V28.4775Z"/>
</mask>
<path d="M178.243 28.4775C177.705 28.4775 177.171 28.4256 176.657 28.3241C175.853 28.1772 175.013 27.9179 174.17 27.5506C173.317 27.179 172.546 26.6972 171.876 26.1139C171.202 25.5262 170.649 24.8306 170.236 24.042C169.813 23.2339 169.625 22.3222 169.676 21.3306L169.689 21.0778L169.929 20.9978C170.113 20.9373 170.279 20.9071 170.439 20.9071H171.163L171.202 21.2355C171.314 22.1775 171.614 23.0525 172.096 23.8367C172.572 24.6102 173.241 25.241 174.086 25.7077C174.905 26.1636 175.776 26.479 176.674 26.6497C177.171 26.7447 177.675 26.7923 178.167 26.7923C178.563 26.7923 178.96 26.762 179.353 26.7015C180.239 26.5654 181.103 26.2824 181.92 25.8633C182.73 25.4463 183.45 24.8716 184.057 24.15C184.517 23.6444 184.804 23.0806 184.923 22.4627C185.048 21.8059 185.087 21.1275 185.042 20.4491V20.4253C185.042 20.0883 184.943 19.7491 184.75 19.4142C184.528 19.0275 184.309 18.6667 184.098 18.3404C183.53 17.5562 182.747 16.9167 181.784 16.4565C180.805 15.9898 179.794 15.7197 178.774 15.6528C177.904 15.5793 177.087 15.4951 176.339 15.4C175.557 15.3006 174.76 15.0759 173.967 14.7281C172.993 14.3046 172.126 13.6716 171.392 12.8485C170.655 12.0253 170.13 11.0877 169.83 10.0614C169.601 9.16913 169.549 8.32006 169.676 7.52284C169.802 6.72994 170.083 5.95864 170.508 5.23055C170.802 4.66666 171.206 4.13302 171.699 3.66636C172.187 3.20185 172.727 2.81512 173.302 2.51697C174.257 2.00277 175.315 1.63981 176.447 1.44321C177.091 1.33086 177.742 1.27469 178.379 1.27469C178.856 1.27469 179.338 1.3071 179.811 1.36975C180.924 1.51882 181.989 1.86882 182.979 2.41327C183.979 2.96419 184.828 3.73549 185.5 4.70771C185.867 5.19815 186.18 5.77716 186.418 6.4145C186.662 7.06913 186.759 7.74321 186.71 8.41296L186.684 8.75648H185.118L185.109 8.39352C185.087 7.37808 184.813 6.48364 184.299 5.73827C183.774 4.97994 183.102 4.36852 182.298 3.92345C181.484 3.47191 180.557 3.1608 179.543 3.00092C179.053 2.92315 178.56 2.88426 178.083 2.88426C177.571 2.88426 177.057 2.92963 176.558 3.01821C175.596 3.18889 174.689 3.52592 173.861 4.025C173.051 4.51327 172.405 5.17654 171.938 5.99969C171.452 6.86173 171.228 7.70648 171.273 8.51234C171.318 9.33117 171.541 10.0917 171.938 10.7744C172.338 11.4657 172.9 12.075 173.604 12.5892C174.315 13.1099 175.112 13.4988 175.972 13.7472C176.484 13.8812 177.005 13.9611 177.51 13.9827C178.048 14.0065 178.612 14.0432 179.187 14.0907C180.222 14.1642 181.237 14.4213 182.203 14.8534C183.169 15.2877 184.024 15.871 184.744 16.5904C185.47 17.3185 186.016 18.1806 186.368 19.1571C186.721 20.1401 186.811 21.2117 186.636 22.3417C186.433 23.4586 185.986 24.4395 185.308 25.2713C184.638 26.0901 183.813 26.7707 182.858 27.2914C181.909 27.8099 180.879 28.1664 179.794 28.35C179.269 28.4386 178.746 28.4861 178.243 28.4861V28.4775Z" fill="#293F77"/>
<path d="M178.243 28.4775H183.243V23.4775H178.243V28.4775ZM176.657 28.3241L177.626 23.4188L177.591 23.4119L177.556 23.4056L176.657 28.3241ZM174.17 27.5506L176.168 22.9671L176.166 22.9664L174.17 27.5506ZM171.876 26.1139L168.59 29.8827L168.592 29.8843L171.876 26.1139ZM170.236 24.042L174.666 21.7237L174.665 21.7211L170.236 24.042ZM169.676 21.3306L174.67 21.5916L174.67 21.5866L169.676 21.3306ZM169.689 21.0778L168.108 16.3343L164.871 17.4135L164.696 20.8217L169.689 21.0778ZM169.929 20.9978L168.365 16.2489L168.357 16.2516L168.348 16.2544L169.929 20.9978ZM171.163 20.9071L176.128 20.3191L175.606 15.9071H171.163V20.9071ZM171.202 21.2355L166.236 21.8235L166.237 21.8276L171.202 21.2355ZM172.096 23.8367L167.836 26.4539L167.836 26.4546L172.096 23.8367ZM174.086 25.7077L176.518 21.3391L176.511 21.3351L176.504 21.3311L174.086 25.7077ZM176.674 26.6497L177.614 21.7387L177.607 21.7375L176.674 26.6497ZM179.353 26.7015L178.594 21.7595L178.593 21.7597L179.353 26.7015ZM181.92 25.8633L184.203 30.3116L184.208 30.309L181.92 25.8633ZM184.057 24.15L180.359 20.7843L180.293 20.8564L180.231 20.9311L184.057 24.15ZM184.923 22.4627L189.833 23.4069L189.834 23.3997L184.923 22.4627ZM185.042 20.4491H180.042V20.6161L180.053 20.7827L185.042 20.4491ZM184.75 19.4142L189.086 16.9245L189.084 16.9205L184.75 19.4142ZM184.098 18.3404L188.292 15.6184L188.222 15.5108L188.147 15.4069L184.098 18.3404ZM181.784 16.4565L183.939 11.9446L183.936 11.9433L181.784 16.4565ZM178.774 15.6528L178.354 20.6351L178.4 20.639L178.447 20.642L178.774 15.6528ZM176.339 15.4L176.97 10.4399L176.97 10.4399L176.339 15.4ZM173.967 14.7281L175.976 10.1493L175.968 10.1458L175.96 10.1424L173.967 14.7281ZM171.392 12.8485L175.122 9.51934L175.118 9.51391L171.392 12.8485ZM169.83 10.0614L164.987 11.3044L165.008 11.3854L165.031 11.4657L169.83 10.0614ZM169.676 7.52284L174.614 8.31227L174.615 8.30334L169.676 7.52284ZM170.508 5.23055L174.825 7.75389L174.886 7.6489L174.942 7.54106L170.508 5.23055ZM171.699 3.66636L175.137 7.29613L175.145 7.28895L171.699 3.66636ZM173.302 2.51697L175.604 6.95524L175.638 6.93755L175.672 6.91933L173.302 2.51697ZM176.447 1.44321L177.303 6.36947L177.307 6.36878L176.447 1.44321ZM179.811 1.36975L180.475 -3.58597L180.468 -3.58698L179.811 1.36975ZM182.979 2.41327L185.391 -1.96641L185.389 -1.96741L182.979 2.41327ZM185.5 4.70771L181.387 7.55044L181.441 7.62872L181.498 7.70489L185.5 4.70771ZM186.418 6.4145L181.733 8.16142L181.733 8.16165L186.418 6.4145ZM186.71 8.41296L191.696 8.78923L191.696 8.78291L186.71 8.41296ZM186.684 8.75648V13.7565H191.321L191.67 9.13275L186.684 8.75648ZM185.118 8.75648L180.119 8.87561L180.235 13.7565H185.118V8.75648ZM185.109 8.39352L180.11 8.49987L180.11 8.51264L185.109 8.39352ZM184.299 5.73827L188.414 2.89904L188.41 2.89222L184.299 5.73827ZM182.298 3.92345L179.874 8.29643L179.876 8.29756L182.298 3.92345ZM179.543 3.00092L178.76 7.93921L178.764 7.93982L179.543 3.00092ZM176.558 3.01821L175.684 -1.90485L175.684 -1.90482L176.558 3.01821ZM173.861 4.025L176.442 8.30742L176.444 8.30653L173.861 4.025ZM171.938 5.99969L167.589 3.53376L167.583 3.54372L171.938 5.99969ZM171.273 8.51234L176.265 8.23572L176.265 8.23129L171.273 8.51234ZM171.938 10.7744L176.267 8.27186L176.263 8.26514L176.259 8.25843L171.938 10.7744ZM173.604 12.5892L176.559 8.55561L176.552 8.55088L173.604 12.5892ZM175.972 13.7472L174.584 18.5507L174.645 18.5684L174.707 18.5844L175.972 13.7472ZM177.51 13.9827L177.731 8.98758L177.724 8.98727L177.51 13.9827ZM179.187 14.0907L178.775 19.0737L178.804 19.0761L178.833 19.0782L179.187 14.0907ZM182.203 14.8534L184.254 10.2932L184.245 10.2894L182.203 14.8534ZM184.744 16.5904L188.285 13.0601L188.279 13.0549L184.744 16.5904ZM186.368 19.1571L191.076 17.4708L191.072 17.4609L186.368 19.1571ZM186.636 22.3417L191.556 23.2361L191.567 23.1716L191.577 23.1069L186.636 22.3417ZM185.308 25.2713L189.178 28.4369L189.182 28.4314L185.308 25.2713ZM182.858 27.2914L180.464 22.9015L180.459 22.9042L182.858 27.2914ZM179.794 28.35L180.626 33.2803L180.629 33.2798L179.794 28.35ZM178.243 28.4861H173.243V33.4861H178.243V28.4861ZM178.243 23.4775C178.024 23.4775 177.815 23.4561 177.626 23.4188L175.688 33.2293C176.528 33.3951 177.386 33.4775 178.243 33.4775V23.4775ZM177.556 23.4056C177.163 23.3337 176.69 23.1947 176.168 22.9671L172.172 32.1341C173.336 32.6411 174.544 33.0206 175.758 33.2426L177.556 23.4056ZM176.166 22.9664C175.753 22.7865 175.422 22.572 175.16 22.3435L168.592 29.8843C169.669 30.8225 170.88 31.5715 172.174 32.1349L176.166 22.9664ZM175.162 22.345C174.945 22.1562 174.784 21.9493 174.666 21.7238L165.806 26.3602C166.513 27.7118 167.459 28.8963 168.59 29.8827L175.162 22.345ZM174.665 21.7211C174.668 21.7274 174.671 21.7343 174.673 21.7407C174.676 21.747 174.676 21.7489 174.675 21.7448C174.674 21.7383 174.664 21.6913 174.67 21.5916L164.683 21.0695C164.589 22.8739 164.931 24.6899 165.807 26.3629L174.665 21.7211ZM174.67 21.5866L174.683 21.3338L164.696 20.8217L164.683 21.0745L174.67 21.5866ZM171.27 25.8212L171.51 25.7413L168.348 16.2544L168.108 16.3343L171.27 25.8212ZM171.494 25.7468C171.294 25.8126 170.925 25.9071 170.439 25.9071V15.9071C169.633 15.9071 168.932 16.0621 168.365 16.2489L171.494 25.7468ZM170.439 25.9071H171.163V15.9071H170.439V25.9071ZM166.198 21.4951L166.236 21.8235L176.167 20.6475L176.128 20.3191L166.198 21.4951ZM166.237 21.8276C166.432 23.462 166.962 25.0319 167.836 26.4539L176.357 21.2195C176.267 21.073 176.196 20.8929 176.167 20.6434L166.237 21.8276ZM167.836 26.4546C168.79 28.0062 170.113 29.2252 171.668 30.0843L176.504 21.3311C176.428 21.2895 176.392 21.258 176.378 21.2454C176.366 21.2335 176.361 21.2262 176.356 21.2189L167.836 26.4546ZM171.654 30.0763C172.935 30.7897 174.311 31.2903 175.741 31.5619L177.607 21.7375C177.24 21.6677 176.874 21.5375 176.518 21.3391L171.654 30.0763ZM175.735 31.5606C176.538 31.7144 177.356 31.7923 178.167 31.7923V21.7923C177.993 21.7923 177.804 21.7751 177.614 21.7387L175.735 31.5606ZM178.167 31.7923C178.817 31.7923 179.468 31.7427 180.114 31.6434L178.593 21.7597C178.452 21.7814 178.309 21.7923 178.167 21.7923V31.7923ZM180.113 31.6435C181.547 31.4232 182.924 30.9681 184.203 30.3116L179.637 21.4149C179.283 21.5967 178.932 21.7076 178.594 21.7595L180.113 31.6435ZM184.208 30.309C185.619 29.5826 186.858 28.5865 187.883 27.3689L180.231 20.9311C180.041 21.1567 179.841 21.3099 179.632 21.4175L184.208 30.309ZM187.754 27.5157C188.789 26.3786 189.529 24.9907 189.833 23.4069L180.013 21.5184C180.043 21.3637 180.096 21.2091 180.168 21.0681C180.239 20.9289 180.313 20.8351 180.359 20.7843L187.754 27.5157ZM189.834 23.3997C190.043 22.309 190.103 21.203 190.031 20.1154L180.053 20.7827C180.071 21.0519 180.054 21.3027 180.012 21.5256L189.834 23.3997ZM190.042 20.4491V20.4253H180.042V20.4491H190.042ZM190.042 20.4253C190.042 19.0737 189.638 17.8847 189.086 16.9245L180.414 21.9039C180.247 21.6135 180.042 21.1028 180.042 20.4253H190.042ZM189.084 16.9205C188.829 16.4774 188.564 16.0374 188.292 15.6184L179.904 21.0624C180.055 21.296 180.226 21.5775 180.416 21.9079L189.084 16.9205ZM188.147 15.4069C187.046 13.8877 185.587 12.7318 183.939 11.9446L179.629 20.9683C179.908 21.1015 180.013 21.2246 180.049 21.274L188.147 15.4069ZM183.936 11.9433C182.42 11.2206 180.793 10.7746 179.102 10.6635L178.447 20.642C178.795 20.6649 179.19 20.759 179.632 20.9697L183.936 11.9433ZM179.195 10.6705C178.38 10.6017 177.635 10.5245 176.97 10.4399L175.709 20.3601C176.539 20.4656 177.427 20.5569 178.354 20.6351L179.195 10.6705ZM176.97 10.4399C176.701 10.4057 176.366 10.3206 175.976 10.1493L171.959 19.3069C173.154 19.8312 174.414 20.1955 175.709 20.3601L176.97 10.4399ZM175.96 10.1424C175.677 10.0194 175.396 9.82626 175.122 9.51935L167.661 16.1776C168.857 17.5169 170.309 18.5898 171.974 19.3138L175.96 10.1424ZM175.118 9.51391C174.862 9.22889 174.713 8.9461 174.629 8.65715L165.031 11.4657C165.547 13.2292 166.448 14.8217 167.666 16.183L175.118 9.51391ZM174.673 8.81841C174.589 8.49333 174.609 8.34067 174.614 8.31227L164.739 6.73341C164.489 8.29945 164.612 9.84494 164.987 11.3044L174.673 8.81841ZM174.615 8.30334C174.638 8.16141 174.694 7.97754 174.825 7.75389L166.192 2.70722C165.471 3.93973 164.966 5.29846 164.738 6.74233L174.615 8.30334ZM174.942 7.54106C174.969 7.48985 175.03 7.39773 175.137 7.29612L168.26 0.0365918C167.382 0.868315 166.635 1.84348 166.074 2.92005L174.942 7.54106ZM175.145 7.28895C175.304 7.13781 175.461 7.02945 175.604 6.95524L170.999 -1.9213C169.993 -1.39921 169.07 -0.734115 168.252 0.0437601L175.145 7.28895ZM175.672 6.91933C176.132 6.6717 176.676 6.47833 177.303 6.36947L175.592 -3.48306C173.955 -3.19871 172.381 -2.66615 170.931 -1.88538L175.672 6.91933ZM177.307 6.36878C177.67 6.30546 178.033 6.27469 178.379 6.27469V-3.72531C177.451 -3.72531 176.513 -3.64374 175.588 -3.48237L177.307 6.36878ZM178.379 6.27469C178.632 6.27469 178.895 6.29205 179.155 6.32648L180.468 -3.58698C179.781 -3.67786 179.08 -3.72531 178.379 -3.72531V6.27469ZM179.147 6.32547C179.648 6.39248 180.121 6.54757 180.568 6.79394L185.389 -1.96741C183.858 -2.80992 182.2 -3.35483 180.475 -3.58597L179.147 6.32547ZM180.566 6.79295C180.868 6.9592 181.142 7.1963 181.387 7.55044L189.613 1.86499C188.514 0.274681 187.09 -1.03081 185.391 -1.96641L180.566 6.79295ZM181.498 7.70489C181.556 7.78324 181.649 7.93468 181.733 8.16142L191.103 4.66759C190.712 3.61964 190.178 2.61305 189.502 1.71053L181.498 7.70489ZM181.733 8.16165C181.735 8.16499 181.73 8.1532 181.726 8.12807C181.723 8.10273 181.721 8.0732 181.723 8.04301L191.696 8.78291C191.801 7.37334 191.592 5.97803 191.103 4.66736L181.733 8.16165ZM181.724 8.03669L181.698 8.3802L191.67 9.13275L191.696 8.78923L181.724 8.03669ZM186.684 3.75648H185.118V13.7565H186.684V3.75648ZM190.116 8.63735L190.107 8.27438L180.11 8.51264L180.119 8.87561L190.116 8.63735ZM190.108 8.28716C190.068 6.40866 189.546 4.53888 188.414 2.89905L180.183 8.57749C180.164 8.54943 180.147 8.52029 180.133 8.4919C180.12 8.46361 180.111 8.44064 180.107 8.42564C180.097 8.39399 180.108 8.4124 180.11 8.49987L190.108 8.28716ZM188.41 2.89222C187.453 1.5107 186.207 0.372505 184.72 -0.450656L179.876 8.29756C179.997 8.36453 180.094 8.44917 180.188 8.58432L188.41 2.89222ZM184.722 -0.449519C183.35 -1.21008 181.858 -1.69567 180.323 -1.93798L178.764 7.93982C179.255 8.01727 179.617 8.1539 179.874 8.29643L184.722 -0.449519ZM180.327 -1.93736C179.583 -2.05534 178.828 -2.11574 178.083 -2.11574V7.88426C178.293 7.88426 178.523 7.90163 178.76 7.93921L180.327 -1.93736ZM178.083 -2.11574C177.279 -2.11574 176.472 -2.04478 175.684 -1.90485L177.431 7.94126C177.641 7.90403 177.863 7.88426 178.083 7.88426V-2.11574ZM175.684 -1.90482C174.134 -1.62963 172.645 -1.08036 171.279 -0.256538L176.444 8.30653C176.733 8.13221 177.059 8.00741 177.432 7.94123L175.684 -1.90482ZM171.28 -0.257421C169.735 0.674203 168.479 1.963 167.589 3.53376L176.288 8.46562C176.331 8.39008 176.368 8.35233 176.442 8.30742L171.28 -0.257421ZM167.583 3.54372C166.737 5.04397 166.171 6.83226 166.281 8.7934L176.265 8.23129C176.274 8.3958 176.252 8.51075 176.239 8.55843C176.228 8.6013 176.231 8.56732 176.294 8.45566L167.583 3.54372ZM166.281 8.78896C166.368 10.3582 166.803 11.8921 167.618 13.2903L176.259 8.25843C176.261 8.26162 176.264 8.26642 176.266 8.27223C176.269 8.27802 176.27 8.2826 176.271 8.28505C176.272 8.28744 176.271 8.28563 176.27 8.27857C176.269 8.27145 176.267 8.25748 176.265 8.23572L166.281 8.78896ZM167.61 13.2769C168.394 14.6337 169.452 15.7482 170.656 16.6275L176.552 8.55088C176.348 8.40175 176.282 8.29776 176.267 8.27186L167.61 13.2769ZM170.65 16.6228C171.845 17.4986 173.175 18.1436 174.584 18.5507L177.36 8.94372C177.049 8.85396 176.785 8.72118 176.559 8.55561L170.65 16.6228ZM174.707 18.5844C175.545 18.8037 176.418 18.9406 177.297 18.9782L177.724 8.98727C177.592 8.98162 177.424 8.95864 177.238 8.91L174.707 18.5844ZM177.29 18.9778C177.756 18.9984 178.256 19.0308 178.775 19.0737L179.599 9.10775C178.969 9.05562 178.341 9.01451 177.731 8.98758L177.29 18.9778ZM178.833 19.0782C179.272 19.1093 179.717 19.2186 180.161 19.4174L184.245 10.2894C182.758 9.62401 181.172 9.21907 179.541 9.10329L178.833 19.0782ZM180.152 19.4136C180.594 19.6122 180.939 19.8571 181.208 20.126L188.279 13.0549C187.109 11.8848 185.743 10.9632 184.254 10.2932L180.152 19.4136ZM181.203 20.1207C181.409 20.3277 181.56 20.5628 181.665 20.8533L191.072 17.4609C190.472 15.7983 189.53 14.3094 188.285 13.0602L181.203 20.1207ZM181.661 20.8434C181.707 20.9712 181.755 21.1932 181.695 21.5764L191.577 23.1069C191.868 21.2302 191.734 19.3091 191.076 17.4708L181.661 20.8434ZM181.717 21.4472C181.658 21.772 181.553 21.9644 181.433 22.1111L189.182 28.4314C190.419 26.9146 191.209 25.1453 191.556 23.2361L181.717 21.4472ZM181.437 22.1057C181.188 22.411 180.868 22.681 180.464 22.9015L185.251 31.6812C186.757 30.8603 188.088 29.7693 189.178 28.4369L181.437 22.1057ZM180.459 22.9042C180.005 23.1522 179.504 23.3279 178.959 23.4202L180.629 33.2798C182.253 33.0048 183.813 32.4675 185.256 31.6785L180.459 22.9042ZM178.962 23.4197C178.68 23.4673 178.437 23.4861 178.243 23.4861V33.4861C179.056 33.4861 179.858 33.4098 180.626 33.2803L178.962 23.4197ZM183.243 28.4861V28.4775H173.243V28.4861H183.243Z" fill="#293F77" mask="url(#path-20-inside-9_108_287)"/>
</g>
<defs>
<clipPath id="clip0_108_287">
<rect width="194.444" height="35" fill="white"/>
</clipPath>
</defs>
</svg>
