<svg width="49" height="49" viewBox="0 0 49 49" fill="none" xmlns="http://www.w3.org/2000/svg">
<g filter="url(#filter0_d_5977_6342)">
<circle cx="24.5" cy="20.5" r="20.5" fill="#2A3F77"/>
</g>
<path d="M28.5508 34.444H16.8243C15.4112 34.444 14.2617 33.3171 14.2617 31.9317V10.5048C14.2617 9.11941 15.4112 7.99249 16.8243 7.99249H28.5508C29.9639 7.99249 31.1134 9.11941 31.1134 10.5048V15.8964C31.1134 16.1239 30.9235 16.31 30.6915 16.31C30.4595 16.31 30.2697 16.1239 30.2697 15.8964V10.5048C30.2697 9.57431 29.4999 8.81959 28.5508 8.81959H16.8243C15.8752 8.81959 15.1054 9.57431 15.1054 10.5048V31.9317C15.1054 32.8622 15.8752 33.6169 16.8243 33.6169H28.5508C29.4999 33.6169 30.2697 32.8622 30.2697 31.9317V26.5556C30.2697 26.3281 30.4595 26.142 30.6915 26.142C30.9235 26.142 31.1134 26.3281 31.1134 26.5556V31.9317C31.1134 33.3171 29.9639 34.444 28.5508 34.444Z" fill="white"/>
<path d="M30.6915 13.0895H14.6835C14.4515 13.0895 14.2617 12.9034 14.2617 12.6759C14.2617 12.4485 14.4515 12.2624 14.6835 12.2624H30.6915C30.9235 12.2624 31.1134 12.4485 31.1134 12.6759C31.1134 12.9034 30.9235 13.0895 30.6915 13.0895Z" fill="white"/>
<path d="M30.6915 30.169H14.6835C14.4515 30.169 14.2617 29.9829 14.2617 29.7554C14.2617 29.528 14.4515 29.3419 14.6835 29.3419H30.6915C30.9235 29.3419 31.1134 29.528 31.1134 29.7554C31.1134 29.9829 30.9235 30.169 30.6915 30.169Z" fill="white"/>
<path d="M37.2817 26.9691H22.5234C22.2914 26.9691 22.1016 26.783 22.1016 26.5556V15.8964C22.1016 15.6689 22.2914 15.4828 22.5234 15.4828H37.2817C38.0885 15.4828 38.7423 16.1238 38.7423 16.9148V25.5424C38.737 26.3281 38.0832 26.9691 37.2817 26.9691ZM22.9452 26.142H37.2817C37.6192 26.142 37.8987 25.8732 37.8987 25.5372V16.9096C37.8987 16.5787 37.6245 16.3048 37.2817 16.3048H22.9452V26.142Z" fill="white"/>
<path d="M38.3152 18.4242H22.5234C22.2914 18.4242 22.1016 18.2381 22.1016 18.0107C22.1016 17.7832 22.2914 17.5971 22.5234 17.5971H38.3152C38.5472 17.5971 38.737 17.7832 38.737 18.0107C38.737 18.2381 38.5472 18.4242 38.3152 18.4242Z" fill="white"/>
<path d="M38.3152 20.5591H22.5234C22.2914 20.5591 22.1016 20.3731 22.1016 20.1456C22.1016 19.9182 22.2914 19.7321 22.5234 19.7321H38.3152C38.5472 19.7321 38.737 19.9182 38.737 20.1456C38.737 20.3782 38.5472 20.5591 38.3152 20.5591Z" fill="white"/>
<path d="M35.0463 24.8342C34.7563 24.8342 34.4715 24.7515 34.229 24.5964C33.9864 24.7515 33.7017 24.8342 33.4117 24.8342C32.5786 24.8342 31.8984 24.1674 31.8984 23.3506C31.8984 22.5338 32.5786 21.867 33.4117 21.867C33.7017 21.867 33.9864 21.9497 34.229 22.1048C34.4715 21.9497 34.7563 21.867 35.0463 21.867C35.8793 21.867 36.5595 22.5338 36.5595 23.3506C36.5595 24.1674 35.8846 24.8342 35.0463 24.8342ZM34.2343 23.6401C34.3555 23.6401 34.4715 23.6918 34.5506 23.7797C34.6772 23.9192 34.8617 24.0019 35.0515 24.0019C35.4206 24.0019 35.7212 23.7073 35.7212 23.3454C35.7212 22.9836 35.4206 22.6889 35.0515 22.6889C34.8617 22.6889 34.6772 22.7716 34.5506 22.9112C34.4715 22.9991 34.3555 23.0508 34.2343 23.0508C34.113 23.0508 33.997 22.9991 33.9179 22.9112C33.7913 22.7716 33.6068 22.6889 33.417 22.6889C33.0479 22.6889 32.7473 22.9836 32.7473 23.3454C32.7473 23.7073 33.0479 24.0019 33.417 24.0019C33.6068 24.0019 33.7913 23.9192 33.9179 23.7797C33.997 23.6918 34.113 23.6401 34.2343 23.6401Z" fill="white"/>
<path d="M25.7945 23.7642H24.7031C24.4711 23.7642 24.2812 23.5781 24.2812 23.3506C24.2812 23.1232 24.4711 22.9371 24.7031 22.9371H25.7945C26.0265 22.9371 26.2163 23.1232 26.2163 23.3506C26.2163 23.5781 26.0265 23.7642 25.7945 23.7642Z" fill="white"/>
<path d="M28.5133 23.7642H27.4218C27.1898 23.7642 27 23.5781 27 23.3506C27 23.1232 27.1898 22.9371 27.4218 22.9371H28.5133C28.7453 22.9371 28.9351 23.1232 28.9351 23.3506C28.9351 23.5781 28.7453 23.7642 28.5133 23.7642Z" fill="white"/>
<path d="M22.5234 28.034C22.2914 28.034 22.1016 27.8479 22.1016 27.6205V14.8108C22.1016 14.5834 22.2914 14.3973 22.5234 14.3973C22.7554 14.3973 22.9452 14.5834 22.9452 14.8108V27.6256C22.9452 27.8531 22.7554 28.034 22.5234 28.034Z" fill="white"/>
<path d="M20.3446 17.3593H16.8593C16.6273 17.3593 16.4375 17.1732 16.4375 16.9458C16.4375 16.7183 16.6273 16.5322 16.8593 16.5322H20.3446C20.5766 16.5322 20.7664 16.7183 20.7664 16.9458C20.7664 17.1732 20.5766 17.3593 20.3446 17.3593Z" fill="white"/>
<path d="M20.3446 19.4943H16.8593C16.6273 19.4943 16.4375 19.3082 16.4375 19.0807C16.4375 18.8533 16.6273 18.6672 16.8593 18.6672H20.3446C20.5766 18.6672 20.7664 18.8533 20.7664 19.0807C20.7664 19.3082 20.5766 19.4943 20.3446 19.4943Z" fill="white"/>
<path d="M20.3446 21.6292H16.8593C16.6273 21.6292 16.4375 21.4431 16.4375 21.2157C16.4375 20.9882 16.6273 20.8021 16.8593 20.8021H20.3446C20.5766 20.8021 20.7664 20.9882 20.7664 21.2157C20.7664 21.4431 20.5766 21.6292 20.3446 21.6292Z" fill="white"/>
<path d="M20.3446 23.7642H16.8593C16.6273 23.7642 16.4375 23.5781 16.4375 23.3506C16.4375 23.1232 16.6273 22.9371 16.8593 22.9371H20.3446C20.5766 22.9371 20.7664 23.1232 20.7664 23.3506C20.7664 23.5781 20.5766 23.7642 20.3446 23.7642Z" fill="white"/>
<path d="M20.3446 25.8991H16.8593C16.6273 25.8991 16.4375 25.713 16.4375 25.4856C16.4375 25.2581 16.6273 25.072 16.8593 25.072H20.3446C20.5766 25.072 20.7664 25.2581 20.7664 25.4856C20.7664 25.713 20.5766 25.8991 20.3446 25.8991Z" fill="white"/>
<path d="M24.076 11.0837H20.7015C20.4958 11.0837 20.3218 10.939 20.2849 10.7374L19.9 8.46289C19.8631 8.23544 20.016 8.0235 20.248 7.98731C20.48 7.95113 20.6962 8.10104 20.7331 8.32849L21.06 10.2567H23.7175L24.0444 8.33366C24.0813 8.10621 24.3027 7.9563 24.5295 7.99248C24.7615 8.02867 24.9144 8.24578 24.8775 8.46806L24.4926 10.7374C24.4609 10.939 24.2817 11.0837 24.076 11.0837Z" fill="white"/>
<path d="M23.8627 32.9966H20.91C20.33 32.9966 19.8555 32.5313 19.8555 31.9627C19.8555 31.3941 20.33 30.9288 20.91 30.9288H23.8627C24.4427 30.9288 24.9173 31.3941 24.9173 31.9627C24.9173 32.5313 24.448 32.9966 23.8627 32.9966ZM20.9153 31.7559C20.7993 31.7559 20.7044 31.849 20.7044 31.9627C20.7044 32.0764 20.7993 32.1695 20.9153 32.1695H23.868C23.984 32.1695 24.0789 32.0764 24.0789 31.9627C24.0789 31.849 23.984 31.7559 23.868 31.7559H20.9153Z" fill="white"/>
<defs>
<filter id="filter0_d_5977_6342" x="0" y="0" width="49" height="49" filterUnits="userSpaceOnUse" color-interpolation-filters="sRGB">
<feFlood flood-opacity="0" result="BackgroundImageFix"/>
<feColorMatrix in="SourceAlpha" type="matrix" values="0 0 0 0 0 0 0 0 0 0 0 0 0 0 0 0 0 0 127 0" result="hardAlpha"/>
<feOffset dy="4"/>
<feGaussianBlur stdDeviation="2"/>
<feComposite in2="hardAlpha" operator="out"/>
<feColorMatrix type="matrix" values="0 0 0 0 0 0 0 0 0 0 0 0 0 0 0 0 0 0 0.25 0"/>
<feBlend mode="normal" in2="BackgroundImageFix" result="effect1_dropShadow_5977_6342"/>
<feBlend mode="normal" in="SourceGraphic" in2="effect1_dropShadow_5977_6342" result="shape"/>
</filter>
</defs>
</svg>
