<svg width="287" height="43" viewBox="0 0 287 43" fill="none" xmlns="http://www.w3.org/2000/svg">
<path d="M261.095 0C259.3 0 257.782 1.75881 257.782 3.86939C257.782 5.97997 259.3 7.73878 261.095 7.73878C262.89 7.73878 264.433 5.92134 264.433 3.86939C264.458 1.70019 262.941 0 261.095 0ZM26.3312 1.81744C19.4915 2.79945 12.8793 4.23581 6.26714 6.46364C5.39478 6.78609 4.87643 7.90001 5.07872 8.88201C5.57178 11.0952 5.79935 12.1944 6.29242 14.4223C6.49471 15.3457 7.31649 15.8586 8.13827 15.5215C14.9021 13.1032 21.6913 11.4616 28.6828 10.2744C29.4793 10.1572 29.9218 9.20446 29.631 8.22246C29.0115 6.19982 28.7081 5.1885 28.0633 3.15121C27.7851 2.28646 27.0645 1.71484 26.3186 1.80278L26.3312 1.81744ZM165.844 2.05195C164.125 2.05195 160.85 3.15121 159.333 4.47032V36.7885H165.844V2.05195ZM239.084 2.05195C237.415 2.05195 234.09 3.15121 232.573 4.47032V35.3229C234.735 36.4807 238.313 37.2869 241.979 37.2869C249.539 37.2869 254.192 32.0104 254.192 22.8646C254.192 16.3423 251.575 11.1538 245.165 11.1538C243.129 11.1538 240.892 12.1651 239.046 14.0119V2.05195H239.071H239.084ZM54.1832 3.26846C51.0478 3.26846 48.3676 3.67885 44.8529 4.27978V36.7739H55.4475C61.2126 36.7739 66.295 32.8459 66.295 26.9685C66.295 22.4982 64.6262 19.728 60.7195 18.4089C63.2607 17.251 64.6767 15.1258 64.6767 11.9746C64.6515 6.43433 59.9989 3.26846 54.1832 3.26846ZM54.1832 9.58554C56.8888 9.58554 58.1404 11.0512 58.1404 13.1032C58.1404 15.2724 56.9267 16.5329 54.3602 16.5329H51.4271V9.84936C52.3247 9.70279 53.273 9.58554 54.1832 9.58554ZM126.31 11.0512C119.521 11.0512 114.249 15.6681 114.249 24.4915C114.249 32.626 118.598 37.2869 125.236 37.2869C127.17 37.2869 129.635 36.7739 131.999 35.6746L130.836 29.6214C129.243 30.2809 127.954 30.5154 126.829 30.5154C122.745 30.5154 121.089 28.0384 121.089 24.0225C121.089 20.0065 122.859 17.4269 127.208 17.4269C127.903 17.4269 129.117 17.6321 129.825 17.8813C130.798 16.6355 131.734 14.4223 131.987 11.8867C129.901 11.3444 128.181 11.0512 126.298 11.0512H126.31ZM144.465 11.0512C137.878 11.0512 133.226 16.0932 133.226 24.1397C133.226 32.1863 137.626 37.2869 144.465 37.2869C151.305 37.2869 155.705 32.2449 155.705 24.1397C155.679 16.2983 151.305 11.0512 144.465 11.0512ZM180.725 11.0512C174.138 11.0512 169.485 16.0932 169.485 24.1397C169.485 32.1863 173.885 37.2869 180.725 37.2869C187.564 37.2869 191.964 32.2449 191.964 24.1397C191.964 16.0345 187.564 11.0512 180.725 11.0512ZM102.314 11.1098C98.7364 11.1098 94.362 12.2677 91.6438 14.393L91.5932 36.7885H98.1042V17.9106C98.926 17.6761 99.8742 17.5002 100.86 17.5002C103.477 17.5002 104.995 18.8779 104.995 21.5308V36.7885H111.455V18.8779C111.455 13.9826 107.283 11.1245 102.327 11.1245L102.314 11.1098ZM205.252 11.1098C201.863 11.1098 197.818 12.2677 195.226 14.393L195.175 36.7885H201.686V17.9106C202.508 17.6761 203.456 17.5002 204.443 17.5002C207.009 17.5002 208.476 18.8779 208.476 21.5308V36.7885H214.873V21.8826C214.873 20.5781 214.696 19.3763 214.355 18.277C215.303 17.8227 216.466 17.5295 217.667 17.5295C220.233 17.5295 221.7 18.9073 221.7 21.5601V36.8179H228.097V18.8779C228.097 14.0412 224.443 11.1245 219.74 11.1245C217.174 11.1245 214.114 12.2238 211.902 13.8946C210.258 12.1651 207.945 11.1245 205.239 11.1245L205.252 11.1098ZM261.133 11.1098C259.868 11.1098 258.769 11.3737 257.871 11.828V36.7739H264.382V11.8427C263.459 11.359 262.397 11.1245 261.145 11.1245L261.133 11.1098ZM77.939 11.1685C75.107 11.1685 72.49 11.9746 69.8097 13.1325L70.3281 14.9499C71.0234 17.1631 71.8452 17.9253 72.8693 17.9253C73.3117 17.9253 76.6242 17.2657 77.8631 17.2657C80.2273 17.2657 81.3146 18.0718 81.4411 21.1937C74.3485 21.4282 68.3558 23.2164 68.3558 30.4128C68.3558 35.1763 72.1107 37.3602 76.6115 37.3602C81.6813 37.3602 85.4362 36.2609 87.7498 34.1943V20.9006C87.7751 13.8653 84.1466 11.1538 77.9516 11.1538L77.939 11.1685ZM277.189 11.1685C274.357 11.1685 271.74 11.9746 269.06 13.1325L269.578 14.9499C270.273 17.1631 271.095 17.9253 272.119 17.9253C272.562 17.9253 275.874 17.2657 277.113 17.2657C279.477 17.2657 280.565 18.0718 280.691 21.1937C273.599 21.4282 267.606 23.2164 267.606 30.4128C267.606 35.1763 271.361 37.3602 275.862 37.3602C280.931 37.3602 284.686 36.2609 287 34.1943V20.9006C287.025 13.8653 283.397 11.1538 277.202 11.1538L277.189 11.1685ZM32.0457 14.1291C21.35 15.7121 10.9323 18.7753 1.03303 23.8759C0.312391 24.257 -0.130106 25.3416 0.0342496 26.265C0.426176 28.654 0.62846 29.8119 1.00774 32.201C1.18474 33.2123 1.98124 33.696 2.80302 33.2123C12.854 27.8772 23.4487 24.4768 34.3341 22.4542C35.0294 22.3369 35.3834 21.4136 35.1053 20.4609C34.5617 18.4969 34.2835 17.5149 33.7146 15.5655C33.4617 14.6421 32.7664 14.0412 32.0457 14.1291ZM242.421 17.5002C245.734 17.5002 247.795 19.1711 247.795 23.788C247.795 27.8186 246.151 31.2483 242.371 31.2483C241.347 31.2483 240.209 31.1603 239.058 30.9551V18.321C240.032 17.808 241.094 17.5149 242.421 17.5149V17.5002ZM144.465 17.6175C147.474 17.6175 149.194 20.0358 149.194 24.169C149.194 28.3023 147.474 30.7646 144.465 30.7646C141.456 30.7646 139.737 28.4928 139.737 24.169C139.737 20.0212 141.532 17.6175 144.465 17.6175ZM180.725 17.6175C183.734 17.6175 185.453 20.0358 185.453 24.169C185.453 28.3023 183.734 30.7646 180.725 30.7646C177.716 30.7646 175.996 28.4928 175.996 24.169C175.996 20.0212 177.792 17.6175 180.725 17.6175ZM51.4271 22.8353H54.8786C57.7611 22.8353 59.2277 23.9345 59.2277 26.6167C59.2277 29.0937 57.6347 30.3982 54.828 30.3982H51.4398V22.8206L51.4271 22.8353ZM80.1768 26.0305H81.4411V30.3542C80.7963 31.0138 79.4056 31.6 77.7367 31.6C75.6254 31.6 74.6013 30.9405 74.6013 29.123C74.6013 26.7633 77.2816 26.0158 80.1768 26.0158V26.0305ZM279.427 26.0305H280.691V30.3542C280.046 31.0138 278.656 31.6 276.987 31.6C274.875 31.6 273.851 30.9405 273.851 29.123C273.851 26.7633 276.506 26.0158 279.427 26.0158V26.0305ZM31.9193 27.3789C25.2313 29.0498 18.7076 31.0724 12.2219 33.6666C11.4001 34.0184 10.9323 35.0151 11.1725 35.9384C11.6909 38.1516 11.9437 39.2509 12.4621 41.4494C12.7149 42.49 13.7264 43.0323 14.6493 42.6073C21.135 39.9251 27.6587 37.5653 34.3214 35.6893C34.9662 35.5134 35.2696 34.6486 35.0421 33.7546C34.5237 31.7613 34.2456 30.7793 33.7019 28.8006C33.4491 27.8186 32.6779 27.1883 31.932 27.3642L31.9193 27.3789Z" fill="black"/>
</svg>
