<svg width="129" height="119" viewBox="0 0 129 119" fill="none" xmlns="http://www.w3.org/2000/svg">
<mask id="mask0_468_2662" style="mask-type:luminance" maskUnits="userSpaceOnUse" x="20" y="77" width="92" height="30">
<path d="M20.1516 77.0221H111.937V106.25H20.1516V77.0221Z" fill="white"/>
</mask>
<g mask="url(#mask0_468_2662)">
<path d="M102.906 85.9577L102.593 85.4847C102.561 85.4334 99.0549 80.2444 91.2394 78.0297C83.6193 75.8686 78.6458 77.6825 66.627 82.0746C66.0078 82.3018 65.3429 82.5337 64.6512 82.7748C61.1232 84.0027 56.9937 85.4427 53.8906 87.8671C53.8169 87.9394 53.7326 88.0046 53.646 88.0617C52.4404 89.0426 51.4021 90.1809 50.6343 91.5265C50.5266 91.7164 50.5921 91.883 50.6659 91.9901C50.7349 92.0822 50.9105 92.2336 51.1399 92.1929C52.4123 91.9727 53.852 91.7257 55.3901 91.4321C69.8283 88.6838 78.6493 91.4426 77.8054 91.4426C72.3332 91.4449 62.8579 93.1633 55.9379 94.4192C54.3881 94.7 52.9425 94.9621 51.6655 95.1846C50.3182 95.4083 48.971 94.8666 48.1727 93.7377C47.3826 92.6227 47.3112 91.2014 47.9807 90.0259C48.5297 89.0636 49.1852 88.1898 49.9191 87.3965C45.3857 85.9029 35.331 82.8703 28.3406 82.8703C28.2505 82.8703 28.1639 82.8703 28.0785 82.8715C23.7955 82.9193 21.4744 84.8719 20.2828 86.5017C20.1365 86.6986 20.1658 86.899 20.1962 87.0003C20.2266 87.104 20.3133 87.2904 20.5509 87.3813L58.9987 102.273C59.4213 102.437 59.8544 102.471 60.2887 102.38C66.991 100.961 82.9217 97.6603 86.0985 97.6603C89.4005 97.6603 104.646 103.642 110.835 106.128L111.935 88.5731L102.906 85.9577Z" fill="white"/>
</g>
<path d="M24.0048 38.709C25.2233 39.0608 26.484 38.3513 26.8328 37.1432C30.8043 23.2736 44.1131 14.5197 58.4823 16.3278C71.2269 17.9227 81.3495 27.8568 83.5079 40.1828L80.5851 38.01C79.5691 37.2597 78.1329 37.4683 77.3814 38.4737C76.6253 39.4791 76.8336 40.9074 77.8438 41.66L85.0916 47.0459C85.4908 47.3406 85.9695 47.4979 86.4623 47.4979C86.5723 47.4979 86.68 47.4909 86.79 47.4746C87.3917 47.3884 87.9313 47.068 88.2941 46.5834L93.7054 39.3742C94.4627 38.3665 94.2544 36.9405 93.2442 36.1867C92.2317 35.4341 90.7944 35.6438 90.0405 36.6504L88.0191 39.3416C85.554 24.9361 74.0408 13.6843 59.0547 11.8098C42.4393 9.72209 27.0259 19.8473 22.427 35.8955C22.0828 37.1048 22.7887 38.3653 24.0048 38.709Z" fill="white"/>
<path d="M50.8061 78.5294C52.2575 78.7111 53.6996 78.8008 55.1276 78.8008C70.0388 78.8008 83.2375 69.0811 87.4327 54.4402C87.7791 53.2309 87.0733 51.9704 85.8571 51.6267C84.6351 51.2807 83.378 51.9867 83.0292 53.1925C79.06 67.0598 65.7337 75.8056 51.3785 74.0103C38.6655 72.4177 28.5593 62.5278 26.3693 50.2427L29.168 52.4143C30.1641 53.189 31.6003 53.0096 32.381 52.0205C33.1559 51.0291 32.9804 49.5984 31.9819 48.8248L24.8511 43.291C23.8527 42.5127 22.4165 42.6957 21.6381 43.6848L16.0746 50.7797C15.2997 51.7723 15.4753 53.203 16.4738 53.9766C16.8916 54.3004 17.3856 54.4577 17.8772 54.4577C18.5596 54.4577 19.2338 54.1571 19.6857 53.5816L21.8195 50.8601C24.2354 65.3309 35.7732 76.6467 50.8061 78.5294Z" fill="white"/>
<path d="M49.8031 39.1646C49.844 39.5886 49.9389 40.0139 50.0945 40.4601C50.2221 40.7933 50.4609 41.1381 50.7828 41.4398C51.1878 41.836 51.7391 42.2041 52.4964 42.5909C52.8324 42.7575 53.2409 42.9043 53.7243 43.0289V34.4614C52.5912 34.7037 51.7134 35.1592 51.0567 35.8373C50.1507 36.7879 49.7364 37.8784 49.8031 39.1646Z" fill="white"/>
<path d="M58.5491 48.3507V55.9152C58.8042 55.8395 59.0278 55.7521 59.2128 55.6508C59.8799 55.2943 60.244 54.9483 60.4348 54.7199C60.67 54.4205 60.8515 54.0908 60.9475 53.7786C61.1195 53.259 61.1265 53.0434 61.1265 53.0213C61.1265 53.0097 61.1265 52.9992 61.1265 52.9875C61.1617 51.388 60.8515 50.195 60.2018 49.4412C59.8179 49.0066 59.2631 48.6408 58.5491 48.3507Z" fill="white"/>
<path d="M65.4716 53.1658C65.3546 54.847 64.6253 56.4524 63.3073 57.8982C62.2047 59.1133 60.607 59.909 58.5492 60.269V61.0495C58.5492 61.8406 58.2238 62.5117 57.6339 62.9404C57.175 63.2782 56.6413 63.4611 56.0993 63.4611C55.5386 63.4611 55.0002 63.2666 54.546 62.9008C54.1621 62.5792 53.7302 62.0165 53.7302 61.0495V60.3435C51.6081 60.0977 49.727 59.4686 48.1281 58.469C46.0505 57.1456 44.7629 55.2233 44.3017 52.7476C44.0863 51.9065 44.4504 51.2948 44.6856 51.0129C44.9232 50.7275 45.4687 50.2568 46.4531 50.3278C47.6213 50.3616 48.5027 51.1072 48.6408 52.2268C48.8784 53.1775 49.507 54.0967 50.5382 54.8703C51.3107 55.4516 52.3794 55.8442 53.7302 56.0458L53.7243 47.4549C51.5168 47.1124 49.6744 46.3388 48.2381 45.1458C46.5327 43.6697 45.5436 41.7603 45.2779 39.45C45.1597 38.1708 45.3294 36.9429 45.7847 35.7674C46.2682 34.5989 46.9471 33.6063 47.8203 32.7838C48.6701 31.9601 49.7399 31.3054 51.072 30.7986C51.9241 30.4864 52.7996 30.2685 53.7243 30.1403V29.2934C53.7243 28.401 54.1235 27.8383 54.4594 27.5237C55.4672 26.6534 56.7361 26.6919 57.6819 27.441C58.2659 27.9571 58.5492 28.5944 58.5492 29.2934V30.392C60.2289 30.8009 61.6593 31.5803 62.8122 32.7209C64.3245 34.2028 65.1251 36.1903 65.1907 38.6264C65.1942 38.7464 65.1813 38.8687 65.1556 38.9887C64.9109 40.1059 64.1571 40.8446 63.1376 40.9681C61.9039 41.123 60.9616 40.3005 60.8106 39.0376C60.7626 38.5017 60.6526 37.9844 60.4794 37.4474C60.3214 36.9779 60.0744 36.5293 59.77 36.1728C59.4189 35.7476 59.0139 35.3748 58.5492 35.0521V43.82C59.7759 44.1334 60.7861 44.5493 61.6171 45.0818C62.6612 45.7283 63.5215 46.531 64.1536 47.4549C64.7681 48.4184 65.1556 49.397 65.3218 50.4047C65.5067 51.3589 65.5547 52.2723 65.4716 53.1658ZM54.6701 23.5603C42.6759 23.6756 33.046 33.4409 33.1619 45.3765C33.2755 57.3087 43.0926 66.8886 55.0856 66.7756C67.0799 66.6615 76.7109 56.8962 76.595 44.9618C76.4815 33.0284 66.6644 23.4496 54.6701 23.5603Z" fill="white"/>
</svg>
