<svg width="116" height="164" viewBox="0 0 116 164" fill="none" xmlns="http://www.w3.org/2000/svg">
<mask id="mask0_468_2613" style="mask-type:luminance" maskUnits="userSpaceOnUse" x="11" y="73" width="84" height="85">
<path d="M11.3276 73.8478H94.5137V157.322H11.3276V73.8478Z" fill="white"/>
</mask>
<g mask="url(#mask0_468_2613)">
<path d="M52.9612 152.214C32.8737 152.214 16.5328 135.878 16.5328 115.799C16.5328 95.7202 32.8737 79.3862 52.9612 79.3862C73.0486 79.3862 89.3911 95.7202 89.3911 115.799C89.3911 135.878 73.0486 152.214 52.9612 152.214ZM52.9612 74.1833C30.0043 74.1833 11.3276 92.8535 11.3276 115.799C11.3276 138.746 30.0043 157.415 52.9612 157.415C75.918 157.415 94.5947 138.746 94.5947 115.799C94.5947 92.8535 75.918 74.1833 52.9612 74.1833Z" fill="#E0E0E0"/>
</g>
<path d="M52.9612 89.7892C54.3974 89.7892 55.5638 88.6264 55.5638 87.1893C55.5638 85.7507 54.3974 84.5878 52.9612 84.5878C51.5235 84.5878 50.3586 85.7507 50.3586 87.1893C50.3586 88.6264 51.5235 89.7892 52.9612 89.7892Z" fill="#E0E0E0"/>
<path d="M37.349 88.7691C36.1032 89.4884 35.6774 91.0784 36.3955 92.3222C37.1151 93.5674 38.7057 93.9945 39.9515 93.2752C41.1958 92.5559 41.6231 90.966 40.9035 89.7222C40.1854 88.4769 38.5948 88.0498 37.349 88.7691Z" fill="#E0E0E0"/>
<path d="M29.4738 99.2423C28.2295 98.523 26.6389 98.95 25.9193 100.194C25.2027 101.439 25.627 103.029 26.8713 103.747C28.1171 104.466 29.7077 104.039 30.4273 102.795C31.1454 101.55 30.7196 99.9601 29.4738 99.2423Z" fill="#E0E0E0"/>
<path d="M26.9402 115.8C26.9402 114.362 25.7738 113.2 24.3391 113.2C22.8999 113.2 21.7366 114.362 21.7366 115.8C21.7366 117.238 22.8999 118.401 24.3391 118.401C25.7738 118.401 26.9402 117.238 26.9402 115.8Z" fill="#E0E0E0"/>
<path d="M26.8713 127.852C25.627 128.572 25.2027 130.162 25.9193 131.405C26.6389 132.651 28.2295 133.078 29.4738 132.358C30.7196 131.639 31.1454 130.049 30.4273 128.805C29.7077 127.56 28.1171 127.133 26.8713 127.852Z" fill="#E0E0E0"/>
<path d="M39.9515 138.325C38.7057 137.606 37.1151 138.033 36.3955 139.277C35.6774 140.522 36.1032 142.112 37.349 142.832C38.5948 143.548 40.1854 143.122 40.9035 141.878C41.6231 140.633 41.1958 139.043 39.9515 138.325Z" fill="#E0E0E0"/>
<path d="M52.9612 141.81C51.5235 141.81 50.3586 142.972 50.3586 144.411C50.3586 145.848 51.5235 147.013 52.9612 147.013C54.3974 147.013 55.5638 145.848 55.5638 144.411C55.5638 142.972 54.3974 141.81 52.9612 141.81Z" fill="#E0E0E0"/>
<path d="M65.9727 138.325C64.7269 139.043 64.2996 140.633 65.0192 141.878C65.7388 143.122 67.3294 143.548 68.5737 142.832C69.8196 142.112 70.2468 140.522 69.5272 139.277C68.8076 138.033 67.217 137.606 65.9727 138.325Z" fill="#E0E0E0"/>
<path d="M79.0513 127.852C77.8055 127.133 76.2149 127.56 75.4953 128.805C74.7772 130.049 75.2044 131.639 76.4487 132.358C77.6945 133.078 79.2852 132.651 80.0033 131.405C80.7229 130.162 80.2956 128.572 79.0513 127.852Z" fill="#E0E0E0"/>
<path d="M81.585 113.2C80.1458 113.2 78.9824 114.362 78.9824 115.8C78.9824 117.238 80.1458 118.401 81.585 118.401C83.0227 118.401 84.1861 117.238 84.1861 115.8C84.1861 114.362 83.0227 113.2 81.585 113.2Z" fill="#E0E0E0"/>
<path d="M79.0513 103.747C80.2956 103.029 80.7229 101.439 80.0033 100.194C79.2852 98.95 77.6945 98.523 76.4487 99.2423C75.2044 99.9601 74.7772 101.55 75.4953 102.795C76.2149 104.039 77.8055 104.466 79.0513 103.747Z" fill="#E0E0E0"/>
<path d="M68.5737 88.7691C67.3294 88.0498 65.7388 88.4769 65.0192 89.7222C64.2996 90.966 64.7269 92.5559 65.9727 93.2752C67.217 93.9945 68.8076 93.5674 69.5272 92.3222C70.2468 91.0784 69.8196 89.4884 68.5737 88.7691Z" fill="#E0E0E0"/>
<path d="M67.812 130.644C68.8285 129.628 68.8285 127.983 67.812 126.967L55.5638 114.724V97.5923C55.5638 96.1552 54.4004 94.9923 52.9612 94.9923C51.5235 94.9923 50.3586 96.1552 50.3586 97.5923V115.8C50.3586 116.49 50.633 117.151 51.1217 117.638L64.1315 130.644C64.6398 131.152 65.3054 131.405 65.9725 131.405C66.6382 131.405 67.3038 131.152 67.812 130.644Z" fill="#E0E0E0"/>
<path d="M52.9612 68.982C54.4004 68.982 55.5638 67.8191 55.5638 66.3805V40.3704C55.5638 38.9333 54.4004 37.7704 52.9612 37.7704C51.5235 37.7704 50.3586 38.9333 50.3586 40.3704V66.3805C50.3586 67.8191 51.5235 68.982 52.9612 68.982Z" fill="#E0E0E0"/>
<mask id="mask1_468_2613" style="mask-type:luminance" maskUnits="userSpaceOnUse" x="50" y="11" width="6" height="22">
<path d="M50.2764 11.7364H55.6494V32.7998H50.2764V11.7364Z" fill="white"/>
</mask>
<g mask="url(#mask1_468_2613)">
<path d="M52.9615 32.5677C54.4007 32.5677 55.564 31.4049 55.564 29.9678V14.3605C55.564 12.9234 54.4007 11.7605 52.9615 11.7605C51.5237 11.7605 50.3589 12.9234 50.3589 14.3605V29.9678C50.3589 31.4049 51.5237 32.5677 52.9615 32.5677Z" fill="#E0E0E0"/>
</g>
<mask id="mask2_468_2613" style="mask-type:luminance" maskUnits="userSpaceOnUse" x="63" y="11" width="6" height="48">
<path d="M63.325 11.7364H68.698V58.8864H63.325V11.7364Z" fill="white"/>
</mask>
<g mask="url(#mask2_468_2613)">
<path d="M65.9724 58.5779C67.4101 58.5779 68.5735 57.415 68.5735 55.9764V14.3605C68.5735 12.9234 67.4101 11.7605 65.9724 11.7605C64.5332 11.7605 63.3699 12.9234 63.3699 14.3605V55.9764C63.3699 57.415 64.5332 58.5779 65.9724 58.5779Z" fill="#E0E0E0"/>
</g>
<path d="M76.3799 74.1834C77.8191 74.1834 78.9824 73.0206 78.9824 71.5835V50.7748C78.9824 49.3377 77.8191 48.1733 76.3799 48.1733C74.9422 48.1733 73.7788 49.3377 73.7788 50.7748V71.5835C73.7788 73.0206 74.9422 74.1834 76.3799 74.1834Z" fill="#E0E0E0"/>
<path d="M76.3799 42.9723C77.8191 42.9723 78.9824 41.8094 78.9824 40.3708V35.1694C78.9824 33.7323 77.8191 32.5679 76.3799 32.5679C74.9422 32.5679 73.7788 33.7323 73.7788 35.1694V40.3708C73.7788 41.8094 74.9422 42.9723 76.3799 42.9723Z" fill="#E0E0E0"/>
<mask id="mask3_468_2613" style="mask-type:luminance" maskUnits="userSpaceOnUse" x="73" y="11" width="7" height="17">
<path d="M73.6873 11.7364H79.0603V27.429H73.6873V11.7364Z" fill="white"/>
</mask>
<g mask="url(#mask3_468_2613)">
<path d="M76.3796 27.3663C77.8188 27.3663 78.9822 26.2034 78.9822 24.7648V14.3605C78.9822 12.9234 77.8188 11.7605 76.3796 11.7605C74.9419 11.7605 73.7786 12.9234 73.7786 14.3605V24.7648C73.7786 26.2034 74.9419 27.3663 76.3796 27.3663Z" fill="#E0E0E0"/>
</g>
<mask id="mask4_468_2613" style="mask-type:luminance" maskUnits="userSpaceOnUse" x="37" y="11" width="6" height="38">
<path d="M37.2275 11.7364H42.6006V48.5285H37.2275V11.7364Z" fill="white"/>
</mask>
<g mask="url(#mask4_468_2613)">
<path d="M39.9514 48.1735C41.3891 48.1735 42.5525 47.0106 42.5525 45.5735V14.3605C42.5525 12.9234 41.3891 11.7605 39.9514 11.7605C38.5122 11.7605 37.3489 12.9234 37.3489 14.3605V45.5735C37.3489 47.0106 38.5122 48.1735 39.9514 48.1735Z" fill="#E0E0E0"/>
</g>
<path d="M39.9514 68.9822C41.3891 68.9822 42.5525 67.8193 42.5525 66.3807V55.9764C42.5525 54.5393 41.3891 53.3764 39.9514 53.3764C38.5122 53.3764 37.3489 54.5393 37.3489 55.9764V66.3807C37.3489 67.8193 38.5122 68.9822 39.9514 68.9822Z" fill="#E0E0E0"/>
<path d="M29.5427 74.1838C30.9805 74.1838 32.1453 73.0209 32.1453 71.5838V35.1694C32.1453 33.7323 30.9805 32.5679 29.5427 32.5679C28.105 32.5679 26.9402 33.7323 26.9402 35.1694V71.5838C26.9402 73.0209 28.105 74.1838 29.5427 74.1838Z" fill="#E0E0E0"/>
<mask id="mask5_468_2613" style="mask-type:luminance" maskUnits="userSpaceOnUse" x="26" y="11" width="7" height="17">
<path d="M26.8652 11.7364H32.2383V27.429H26.8652V11.7364Z" fill="white"/>
</mask>
<g mask="url(#mask5_468_2613)">
<path d="M29.5427 27.3663C30.9805 27.3663 32.1453 26.2034 32.1453 24.7648V14.3605C32.1453 12.9234 30.9805 11.7605 29.5427 11.7605C28.105 11.7605 26.9402 12.9234 26.9402 14.3605V24.7648C26.9402 26.2034 28.105 27.3663 29.5427 27.3663Z" fill="#E0E0E0"/>
</g>
</svg>
