<svg width="186" height="176" viewBox="0 0 186 176" fill="none" xmlns="http://www.w3.org/2000/svg">
<mask id="mask0_468_2583" style="mask-type:luminance" maskUnits="userSpaceOnUse" x="31" y="19" width="119" height="129">
<path d="M49.1545 19.8204L149.967 35.9485L132.148 147.332L31.3352 131.204L49.1545 19.8204Z" fill="white"/>
</mask>
<g mask="url(#mask0_468_2583)">
<path d="M144.752 54.3589L137.858 53.2559L138.961 46.3629C139.156 45.1422 138.324 43.9942 137.104 43.7989L130.209 42.6959L131.395 35.2833C131.591 34.0612 130.759 32.9132 129.539 32.7179L78.6424 24.5755C78.6384 24.5748 78.633 24.5739 78.629 24.5733C78.6006 24.5701 78.5737 24.5658 78.5453 24.5627C78.5372 24.5614 78.5292 24.5601 78.5196 24.5599C78.4885 24.5563 78.4572 24.5541 78.4245 24.5516C78.4122 24.551 78.3986 24.5502 78.3849 24.5494C78.367 24.5493 78.3478 24.549 78.3301 24.5475C78.3122 24.5474 78.2957 24.5475 78.2778 24.5474C78.2668 24.547 78.2543 24.5478 78.2432 24.5488C78.2018 24.549 78.1602 24.5506 78.1184 24.5536C78.1155 24.5545 78.1115 24.5539 78.1086 24.5548C78.0849 24.5565 78.061 24.5596 78.0373 24.5613C78.0317 24.5618 78.0261 24.5623 78.0219 24.5629C77.9475 24.5717 77.8738 24.5847 77.8024 24.6008C77.7981 24.6015 77.7937 24.6036 77.7894 24.6043C77.7667 24.6089 77.7437 24.6148 77.7207 24.6208C77.7149 24.6226 77.7077 24.6242 77.7019 24.6261C77.6372 24.6433 77.5718 24.6645 77.5089 24.6875C77.4958 24.6923 77.4826 24.697 77.4694 24.7018C77.4547 24.7077 77.4385 24.7148 77.4237 24.7207C77.4075 24.7277 77.3912 24.7347 77.3749 24.7418C77.3629 24.7481 77.3511 24.7531 77.3377 24.7592C77.3109 24.7715 77.284 24.7851 77.257 24.7987C77.2479 24.8041 77.239 24.8082 77.2298 24.8136C77.2102 24.8242 77.1893 24.8347 77.1695 24.8466C77.1603 24.8521 77.1496 24.8586 77.1405 24.864C77.1207 24.876 77.1009 24.888 77.0824 24.9002C77.0733 24.9056 77.0655 24.9113 77.0577 24.9169C77.0546 24.9192 77.0503 24.9198 77.0472 24.9221L45.7244 45.7992C45.6734 45.8337 45.6235 45.8698 45.5746 45.9088C45.5684 45.9133 45.5604 45.9203 45.5541 45.9248C45.535 45.941 45.5161 45.9559 45.4983 45.9723C45.4905 45.978 45.4825 45.985 45.4743 45.9933C45.4568 46.0084 45.439 46.0248 45.4225 46.0415C45.4161 46.0473 45.4081 46.0543 45.4014 46.0615C45.3788 46.0827 45.3572 46.1054 45.3357 46.1281C45.3275 46.1364 45.319 46.1461 45.3122 46.1546C45.2988 46.169 45.2855 46.1834 45.272 46.1992C45.2618 46.2113 45.2502 46.2232 45.2398 46.2367C45.2312 46.2477 45.2225 46.2587 45.2139 46.2698C45.2019 46.2844 45.1897 46.3003 45.1777 46.3149C45.1724 46.3223 45.1686 46.3286 45.1633 46.336C45.1194 46.3951 45.0794 46.4562 45.0415 46.5204C45.0382 46.524 45.0362 46.5278 45.0342 46.5316C44.9814 46.6209 44.9362 46.7143 44.8957 46.8124C44.8932 46.8189 44.8908 46.8254 44.8871 46.8317C44.8796 46.8526 44.8708 46.8732 44.8633 46.894C44.8603 46.9046 44.8559 46.9149 44.8528 46.9254C44.8429 46.9527 44.8342 46.9816 44.8256 47.0092C44.8184 47.0287 44.8138 47.0486 44.8079 47.0683C44.8044 47.0816 44.8011 47.0934 44.7976 47.1066C44.7926 47.1293 44.7861 47.153 44.7809 47.177C44.7796 47.185 44.7767 47.1942 44.7752 47.2036C44.7683 47.2383 44.7616 47.2717 44.756 47.3066L44.7558 47.3079L31.6936 128.956C31.4983 130.177 32.3297 131.325 33.5517 131.52L83.5349 139.517C84.7556 139.712 85.9036 138.881 86.0989 137.66C86.2942 136.439 85.4631 135.29 84.2424 135.095L36.4695 127.452L48.8241 50.2271L73.8969 54.2383C75.1176 54.4336 76.267 53.6024 76.4623 52.3817L80.1467 29.3514L126.62 36.7862L118.697 86.3075C118.502 87.5295 119.333 88.6775 120.555 88.873C121.776 89.0683 122.924 88.237 123.119 87.0149L129.502 47.118L134.185 47.8672L127.063 92.3849C126.867 93.6056 127.7 94.7538 128.921 94.9491C130.141 95.1444 131.291 94.3133 131.486 93.0926L137.152 57.6782L141.834 58.4273L134.627 103.476C134.432 104.696 135.263 105.846 136.484 106.041C137.706 106.236 138.854 105.404 139.05 104.183L146.61 56.9244C146.804 55.7022 145.973 54.5541 144.752 54.3589ZM72.3927 49.4623L52.9666 46.3545L75.2678 31.4906L72.3927 49.4623Z" fill="#F5F5F5"/>
</g>
<path d="M130.079 100.363C128.026 97.528 125.486 95.1535 122.53 93.3048C119.469 91.391 116.095 90.1296 112.503 89.5549C108.91 88.98 105.311 89.126 101.806 89.9892C98.4204 90.8235 95.2679 92.2873 92.4315 94.3401C89.598 96.392 87.2222 98.9317 85.375 101.886C83.4612 104.948 82.1985 108.321 81.6238 111.913C81.0491 115.505 81.1964 119.104 82.0597 122.61C82.8929 125.993 84.3578 129.147 86.4094 131.982C88.4627 134.816 91.0026 137.19 93.9585 139.039C97.0197 140.953 100.393 142.214 103.987 142.789C107.579 143.364 111.178 143.218 114.683 142.355C118.068 141.52 121.222 140.057 124.057 138.005C126.892 135.952 129.266 133.412 131.114 130.457C133.029 127.397 134.29 124.023 134.865 120.431C135.44 116.839 135.294 113.24 134.429 109.734C133.596 106.351 132.132 103.197 130.079 100.363ZM127.316 128.083C125.776 130.547 123.796 132.665 121.43 134.377C119.065 136.09 116.435 137.311 113.613 138.006C110.693 138.725 107.692 138.847 104.694 138.367C101.697 137.888 98.8835 136.836 96.333 135.242C93.8692 133.7 91.7511 131.72 90.0387 129.355C88.325 126.99 87.1041 124.36 86.4083 121.538C85.6897 118.618 85.5678 115.618 86.0473 112.621C86.5268 109.624 87.5785 106.811 89.1724 104.261C90.7138 101.797 92.6941 99.6804 95.0603 97.9669C97.4249 96.2545 100.055 95.0336 102.877 94.3378C105.797 93.6192 108.799 93.4975 111.796 93.977C114.793 94.4565 117.607 95.5085 120.157 97.1023C122.621 98.6437 124.739 100.624 126.451 102.989C128.165 105.355 129.386 107.984 130.08 110.806C130.8 113.726 130.922 116.726 130.443 119.723C129.963 122.721 128.912 125.533 127.316 128.083Z" fill="#F5F5F5"/>
<path d="M86.3368 45.6432L112.816 49.8793C114.036 50.0746 115.184 49.2432 115.38 48.0225C115.575 46.8019 114.744 45.6525 113.523 45.4572L87.0442 41.2211C85.8236 41.0258 84.674 41.8583 84.4787 43.079C84.2834 44.2996 85.1161 45.4479 86.3368 45.6432Z" fill="#F5F5F5"/>
<path d="M84.3177 58.2639L110.797 62.5001C112.017 62.6953 113.165 61.864 113.361 60.6433C113.556 59.4226 112.725 58.2732 111.504 58.078L85.0252 53.8418C83.8045 53.6466 82.6549 54.479 82.4596 55.6997C82.2644 56.9204 83.0971 58.0687 84.3177 58.2639Z" fill="#F5F5F5"/>
<path d="M56.4528 64.4815C56.2575 65.7022 57.0889 66.8502 58.3095 67.0455L108.778 75.1195C109.998 75.3147 111.146 74.4834 111.342 73.2627C111.537 72.042 110.705 70.894 109.485 70.6987L59.0168 62.6248C57.7961 62.4295 56.6481 63.2608 56.4528 64.4815Z" fill="#F5F5F5"/>
<path d="M56.2905 79.6657L100.775 86.7823C101.997 86.9778 103.145 86.1465 103.34 84.9258C103.535 83.7051 102.704 82.5557 101.482 82.3602L56.998 75.2436C55.7773 75.0483 54.629 75.881 54.4338 77.1017C54.2385 78.3224 55.0698 79.4704 56.2905 79.6657Z" fill="#F5F5F5"/>
<path d="M85.7906 95.0626C85.9859 93.8419 85.1531 92.6937 83.9325 92.4984L54.9787 87.8663C53.758 87.671 52.61 88.5024 52.4147 89.7231C52.2194 90.9437 53.0508 92.0918 54.2714 92.2871L83.2252 96.9191C84.4459 97.1144 85.5953 96.2833 85.7906 95.0626Z" fill="#F5F5F5"/>
<path d="M52.2524 104.908L76.5518 108.795C77.7724 108.991 78.9205 108.159 79.1158 106.939C79.3111 105.718 78.4797 104.57 77.259 104.375L52.9596 100.487C51.739 100.292 50.5909 101.123 50.3956 102.344C50.2004 103.565 51.0317 104.713 52.2524 104.908Z" fill="#F5F5F5"/>
<path d="M50.2334 117.528L75.4674 121.565C76.6881 121.76 77.8375 120.929 78.0327 119.708C78.228 118.488 77.3955 117.338 76.1749 117.143L50.9408 113.106C49.7202 112.911 48.5719 113.743 48.3766 114.964C48.1813 116.185 49.0127 117.333 50.2334 117.528Z" fill="#F5F5F5"/>
<path d="M101.896 121.02L95.9059 112.748L90.8278 116.426L100.495 129.774L125.375 111.759L121.697 106.681L101.896 121.02Z" fill="#F5F5F5"/>
<mask id="mask1_468_2583" style="mask-type:luminance" maskUnits="userSpaceOnUse" x="85" y="94" width="47" height="46">
<path d="M92.2087 94L131.02 100.209L124.811 139.02L85.9998 132.81L92.2087 94Z" fill="white"/>
</mask>
<g mask="url(#mask1_468_2583)">
<mask id="mask2_468_2583" style="mask-type:luminance" maskUnits="userSpaceOnUse" x="88" y="96" width="41" height="41">
<path d="M111.615 97.1046C100.897 95.39 90.8189 102.687 89.1042 113.406C87.3896 124.123 94.6883 134.2 105.406 135.915C116.123 137.63 126.201 130.332 127.916 119.615C129.631 108.896 122.332 98.8192 111.615 97.1046Z" fill="white"/>
</mask>
<g mask="url(#mask2_468_2583)">
<path d="M92.2087 94L131.02 100.209L124.811 139.02L85.9998 132.81L92.2087 94Z" fill="#F5F3EF"/>
</g>
</g>
<mask id="mask3_468_2583" style="mask-type:luminance" maskUnits="userSpaceOnUse" x="92" y="101" width="29" height="29">
<path d="M96.7373 101.654L120.974 105.531L117.096 129.767L92.86 125.89L96.7373 101.654Z" fill="white"/>
</mask>
<g mask="url(#mask3_468_2583)">
<path d="M117.656 126.252L113.582 129.203L96.1741 105.165L100.248 102.213L117.656 126.252Z" fill="#CAA55E"/>
<path d="M96.3704 126.45L93.4207 122.375L117.459 104.967L120.409 109.042L96.3704 126.45Z" fill="#CAA55E"/>
</g>
</svg>
