<svg width="81" height="68" viewBox="0 0 81 68" fill="none" xmlns="http://www.w3.org/2000/svg">
<mask id="mask0_465_2392" style="mask-type:luminance" maskUnits="userSpaceOnUse" x="9" y="45" width="59" height="20">
<path d="M9.90125 45.8096H67.0169V64.0192H9.90125V45.8096Z" fill="white"/>
</mask>
<g mask="url(#mask0_465_2392)">
<path d="M61.3967 51.3753L61.2022 51.0806C61.1818 51.0487 59.0004 47.8158 54.137 46.436C49.3953 45.0896 46.3004 46.2197 38.8214 48.9561C38.4361 49.0977 38.0224 49.2421 37.5919 49.3923C35.3966 50.1574 32.8269 51.0545 30.8959 52.5649C30.8501 52.6099 30.7976 52.6506 30.7437 52.6862C29.9935 53.2973 29.3474 54.0064 28.8696 54.8448C28.8026 54.9631 28.8434 55.0669 28.8893 55.1337C28.9322 55.191 29.0415 55.2854 29.1843 55.2599C29.976 55.1228 30.8719 54.9689 31.829 54.786C40.8135 53.0737 46.3026 54.7925 45.7774 54.7925C42.3722 54.794 36.476 55.8646 32.1699 56.647C31.2055 56.8219 30.306 56.9852 29.5113 57.1239C28.6729 57.2632 27.8346 56.9257 27.3378 56.2224C26.8462 55.5278 26.8017 54.6423 27.2184 53.9099C27.56 53.3104 27.9679 52.766 28.4246 52.2717C25.6036 51.3412 19.3468 49.4519 14.9969 49.4519C14.9409 49.4519 14.887 49.4519 14.8338 49.4526C12.1687 49.4823 10.7243 50.6988 9.9828 51.7143C9.89175 51.8369 9.90996 51.9618 9.9289 52.0249C9.94784 52.0895 10.0017 52.2057 10.1496 52.2623L34.0746 61.5398C34.3375 61.6422 34.607 61.6632 34.8773 61.6066C39.0479 60.7225 48.9611 58.6663 50.938 58.6663C52.9927 58.6663 62.4798 62.3927 66.3307 63.9416L67.0154 53.0048L61.3967 51.3753Z" fill="white"/>
</g>
<path d="M12.299 21.9407C13.0573 22.1599 13.8417 21.7178 14.0588 20.9652C16.5302 12.3241 24.8118 6.87026 33.7533 7.99675C41.6839 8.99041 47.9829 15.1796 49.326 22.8588L47.5073 21.5052C46.875 21.0377 45.9813 21.1677 45.5137 21.7941C45.0432 22.4204 45.1728 23.3103 45.8014 23.7792L50.3115 27.1347C50.5599 27.3183 50.8578 27.4163 51.1645 27.4163C51.2329 27.4163 51.2999 27.412 51.3684 27.4018C51.7428 27.3481 52.0786 27.1485 52.3044 26.8466L55.6716 22.3551C56.1429 21.7273 56.0133 20.8389 55.3847 20.3692C54.7546 19.9004 53.8602 20.031 53.3911 20.6581L52.1332 22.3348C50.5992 13.3599 43.4349 6.34984 34.1095 5.18198C23.7702 3.8813 14.179 10.1895 11.3172 20.1878C11.103 20.9412 11.5422 21.7265 12.299 21.9407Z" fill="white"/>
<path d="M28.9767 46.7495C29.8799 46.8627 30.7772 46.9186 31.6658 46.9186C40.9446 46.9186 49.1578 40.863 51.7683 31.7415C51.9839 30.9881 51.5447 30.2028 50.7879 29.9886C50.0275 29.7731 49.2452 30.2129 49.0282 30.9641C46.5582 39.6037 38.2657 45.0525 29.3329 43.934C21.422 42.9418 15.1332 36.7802 13.7704 29.1263L15.5119 30.4793C16.1318 30.962 17.0255 30.8502 17.5113 30.234C17.9935 29.6163 17.8842 28.725 17.2629 28.243L12.8257 24.7953C12.2043 24.3105 11.3106 24.4244 10.8263 25.0407L7.36429 29.461C6.8821 30.0794 6.99136 30.9707 7.61266 31.4526C7.87269 31.6544 8.18007 31.7524 8.48599 31.7524C8.91063 31.7524 9.33018 31.5651 9.61133 31.2066L10.9392 29.511C12.4425 38.5266 19.6221 45.5766 28.9767 46.7495Z" fill="white"/>
<path d="M28.3525 22.2251C28.378 22.4893 28.437 22.7542 28.5338 23.0322C28.6132 23.2398 28.7618 23.4547 28.9621 23.6426C29.2141 23.8894 29.5572 24.1188 30.0285 24.3598C30.2375 24.4636 30.4917 24.555 30.7925 24.6327V19.2949C30.0875 19.4459 29.5412 19.7297 29.1326 20.1521C28.5688 20.7444 28.3109 21.4238 28.3525 22.2251Z" fill="white"/>
<path d="M33.7949 27.9482V32.6611C33.9537 32.6139 34.0928 32.5594 34.2079 32.4963C34.6231 32.2742 34.8496 32.0586 34.9683 31.9164C35.1147 31.7298 35.2276 31.5244 35.2874 31.3299C35.3944 31.0062 35.3988 30.8719 35.3988 30.8581C35.3988 30.8508 35.3988 30.8443 35.3988 30.837C35.4207 29.8405 35.2276 29.0972 34.8234 28.6276C34.5845 28.3569 34.2392 28.129 33.7949 27.9482Z" fill="white"/>
<path d="M38.1025 30.9483C38.0296 31.9957 37.5759 32.9959 36.7557 33.8966C36.0696 34.6537 35.0753 35.1494 33.7949 35.3737V35.86C33.7949 36.3528 33.5924 36.7709 33.2253 37.038C32.9397 37.2485 32.6076 37.3625 32.2704 37.3625C31.9215 37.3625 31.5864 37.2413 31.3038 37.0133C31.0649 36.813 30.7961 36.4624 30.7961 35.86V35.4201C29.4756 35.267 28.3051 34.875 27.3101 34.2523C26.0173 33.4277 25.216 32.2301 24.9291 30.6877C24.795 30.1637 25.0216 29.7826 25.168 29.607C25.3158 29.4291 25.6553 29.1359 26.2678 29.1802C26.9947 29.2012 27.5432 29.6658 27.6292 30.3633C27.777 30.9556 28.1682 31.5282 28.8099 32.0102C29.2906 32.3724 29.9556 32.617 30.7961 32.7426L30.7925 27.3903C29.4188 27.1769 28.2723 26.6949 27.3786 25.9517C26.3173 25.0321 25.7019 23.8424 25.5365 22.4031C25.463 21.6062 25.5686 20.8411 25.8519 20.1088C26.1527 19.3808 26.5752 18.7624 27.1186 18.2499C27.6474 17.7368 28.3131 17.3288 29.142 17.0131C29.6723 16.8186 30.2171 16.6828 30.7925 16.603V16.0753C30.7925 15.5193 31.0409 15.1688 31.2499 14.9728C31.877 14.4306 32.6666 14.4546 33.2551 14.9213C33.6186 15.2428 33.7949 15.6398 33.7949 16.0753V16.7598C34.8401 17.0146 35.7302 17.5001 36.4476 18.2107C37.3887 19.134 37.8869 20.3722 37.9277 21.89C37.9299 21.9647 37.9218 22.0409 37.9058 22.1157C37.7536 22.8118 37.2845 23.2719 36.6501 23.3489C35.8824 23.4454 35.296 22.933 35.2021 22.1462C35.1722 21.8123 35.1038 21.49 34.996 21.1554C34.8976 20.8629 34.7439 20.5835 34.5546 20.3614C34.336 20.0964 34.084 19.8642 33.7949 19.6631V25.1257C34.5582 25.3209 35.1868 25.5801 35.7039 25.9118C36.3537 26.3146 36.889 26.8147 37.2823 27.3903C37.6647 27.9906 37.9058 28.6002 38.0093 29.2281C38.1243 29.8225 38.1542 30.3916 38.1025 30.9483ZM31.381 12.5035C23.9173 12.5754 17.925 18.6593 17.9971 26.0954C18.0678 33.5294 24.1767 39.4979 31.6396 39.4275C39.1033 39.3563 45.0964 33.2724 45.0242 25.837C44.9536 18.4023 38.8447 12.4346 31.381 12.5035Z" fill="white"/>
</svg>
