<svg width="96" height="88" viewBox="0 0 96 88" fill="none" xmlns="http://www.w3.org/2000/svg">
<path d="M62.5626 23.2275C64.7583 24.6913 66.954 26.1558 68.6615 28.1071C71.3446 30.7908 73.5403 34.2058 75.004 37.8655L78.6627 36.4018L76.7115 48.1116L67.1977 41.0368L70.8564 39.5731C69.6371 36.4018 67.6859 33.4744 65.4902 31.0346C64.5146 30.0585 63.5382 29.3271 62.5626 28.5948C62.5626 28.1071 62.5626 27.3749 62.5626 26.6434C63.0508 25.6673 62.8071 24.4474 62.5626 23.2275ZM61.8307 75.4354C59.3913 76.6553 56.952 77.6306 54.5126 78.3628C50.6102 79.3389 46.707 79.5827 42.8039 78.8505L42.3157 82.754L33.0463 75.1916L44.0231 70.5558L43.5358 74.4593C46.9507 74.9469 50.3657 74.7031 53.537 73.9717C54.7571 73.7279 55.9764 73.2394 57.1965 72.7518C58.6594 73.9717 60.1232 74.7031 61.8307 75.4354ZM17.1899 48.8438C17.1899 46.1602 17.6781 43.4766 18.41 41.0368C19.3856 37.3779 21.3376 33.7182 23.777 30.547L20.6057 28.1071L31.5825 23.9598L30.1188 35.6696L26.9475 33.2306C24.7526 35.9142 23.2888 38.8416 22.3132 42.2567C22.0687 43.4766 21.825 44.6965 21.5813 45.9164C19.8738 46.6479 18.41 47.6239 17.1899 48.8438Z" fill="white"/>
<mask id="mask0_465_2385" style="mask-type:luminance" maskUnits="userSpaceOnUse" x="15" y="14" width="65" height="60">
<path d="M15.2355 14.2012H79.1534V73.021H15.2355V14.2012Z" fill="white"/>
</mask>
<g mask="url(#mask0_465_2385)">
<path fill-rule="evenodd" clip-rule="evenodd" d="M66.4659 47.6237C73.5404 47.6237 79.151 53.2347 79.151 60.3095C79.151 67.3843 73.5404 72.9954 66.4659 72.9954C59.3915 72.9954 53.7808 67.3843 53.7808 60.3095C53.7808 53.2347 59.636 47.6237 66.4659 47.6237ZM27.924 47.6237C34.9976 47.6237 40.6083 53.2347 40.6083 60.3095C40.6083 67.3843 34.9976 72.9954 27.924 72.9954C20.8496 72.9954 15.2389 67.3843 15.2389 60.3095C15.2389 53.2347 20.8496 47.6237 27.924 47.6237ZM33.5347 67.6281V65.6768C33.5347 65.1883 33.2902 64.9445 32.8028 64.9445H26.2165C26.9476 64.4569 27.4358 63.7246 27.6795 63.237C27.924 62.5055 27.924 62.0171 27.924 61.5294H30.6071C31.0953 61.5294 31.339 61.2856 31.339 60.7972V59.3334C31.339 58.8458 31.0953 58.602 30.6071 58.602H27.4358C27.1921 57.8697 27.1921 57.1383 27.1921 56.406C27.1921 55.1861 27.6795 53.9662 29.6315 53.9662C30.3634 53.9662 30.8508 53.9662 31.339 54.2108C31.5827 54.2108 31.8264 54.2108 31.8264 54.2108C32.0709 54.2108 32.0709 53.9662 32.0709 53.7224L32.5583 52.0148C32.5583 51.771 32.5583 51.2834 32.0709 51.2834C31.339 51.0388 30.6071 50.7949 29.387 50.7949C25.7283 50.7949 23.2889 52.9909 23.2889 56.406C23.2889 57.1383 23.2889 58.1135 23.5326 58.602H22.3133C21.8251 58.602 21.5815 58.8458 21.5815 59.3334V60.7972C21.5815 61.2856 21.8251 61.5294 22.3133 61.5294H24.2645C24.2645 61.7732 24.2645 62.0171 24.2645 62.5055C24.2645 64.213 23.0452 65.6768 21.5815 66.1644C21.3378 66.1644 21.3378 66.4082 21.3378 66.652V67.6281C21.3378 68.1166 21.5815 68.3604 22.0688 68.3604H33.0465C33.0465 68.3604 33.5347 68.1166 33.5347 67.6281ZM47.1946 14.2012C54.269 14.2012 59.8797 19.8122 59.8797 26.887C59.8797 33.9618 54.269 39.5728 47.1946 39.5728C40.1209 39.5728 34.5103 33.9618 34.5103 26.887C34.5103 19.8122 40.1209 14.2012 47.1946 14.2012ZM46.219 28.1069C43.5359 27.1308 41.5839 25.9109 41.5839 23.4719C41.5839 21.2759 43.0477 19.5684 45.4871 19.08C45.7316 19.08 45.9753 18.5923 45.9753 18.3485V17.6162C45.9753 17.3724 46.219 16.8848 46.7072 16.8848H47.9264C48.171 16.8848 48.6583 17.1286 48.6583 17.6162V17.8609C48.6583 18.1047 48.902 18.5923 49.1466 18.5923C50.1221 18.5923 51.0977 18.8361 51.8296 19.08C51.8296 19.3246 52.0733 19.5684 52.0733 19.8122L51.5859 21.5198C51.5859 21.7636 51.3414 21.7636 51.3414 22.0082C51.0977 22.0082 51.0977 22.0082 50.854 22.0082C50.1221 21.7636 49.1466 21.5198 47.9264 21.5198C46.219 21.5198 45.7316 22.252 45.7316 22.9835C45.7316 23.7158 46.7072 24.4472 48.902 25.1795C51.8296 26.1556 53.0497 27.6193 53.0497 30.0583C53.0497 32.2542 51.5859 34.2056 49.1466 34.694C48.902 34.694 48.6583 34.9379 48.6583 35.4255V36.1578C48.6583 36.4016 48.4147 36.8892 47.9264 36.8892H46.7072C46.4627 36.8892 45.9753 36.6454 45.9753 36.1578V35.6693C45.9753 35.4255 45.7316 35.1817 45.2434 34.9379C44.0233 34.694 42.804 34.4494 42.0721 34.2056C41.8284 33.9618 41.5839 33.718 41.8284 33.4741L42.0721 31.522C42.0721 31.2782 42.3158 31.2782 42.3158 31.0343C42.5603 31.0343 42.5603 31.0343 42.804 31.0343C43.7796 31.522 44.9997 31.7666 46.4627 31.7666C47.9264 31.7666 48.902 31.2782 48.902 30.0583C48.902 29.3268 48.171 28.5945 46.219 28.1069ZM65.0021 55.9184C65.734 54.9423 66.9541 54.4547 68.1734 54.4547C68.9053 54.4547 69.8809 54.6985 70.3691 54.9423C70.6128 54.9423 70.6128 54.9423 70.8565 54.9423C71.101 54.9423 71.101 54.6985 71.101 54.4547L71.5884 52.7471C71.5884 52.5025 71.5884 52.0148 71.101 52.0148C70.1254 51.771 68.9053 51.5272 67.686 51.5272C65.2466 51.5272 63.0509 52.5025 61.5872 54.2108C60.8553 55.1861 60.3679 56.1622 59.8797 57.3821H58.1722C57.9285 57.3821 57.4403 57.6259 57.4403 58.1135V58.8458C57.4403 59.3334 57.684 59.5773 58.1722 59.5773H59.3915C59.3915 60.0657 59.3915 60.5533 59.3915 61.041H58.1722C57.9285 61.041 57.4403 61.2856 57.4403 61.7732V62.5055C57.4403 62.9931 57.684 63.237 58.1722 63.237H59.636C59.8797 64.4569 60.3679 65.6768 61.0989 66.4082C62.5627 68.3604 65.0021 69.3356 67.686 69.3356C69.149 69.3356 70.3691 69.0918 71.3447 68.6042C71.5884 68.3604 71.8329 68.1166 71.8329 67.8719L71.5884 65.9206C71.5884 65.6768 71.3447 65.6768 71.3447 65.4329C71.101 65.4329 71.101 65.4329 70.8565 65.4329C70.1254 65.6768 69.3935 65.9206 68.4171 65.9206C67.1978 65.9206 65.734 65.4329 65.0021 64.4569C64.5147 63.9692 64.2702 63.4808 64.2702 62.7493H69.8809C70.1254 62.7493 70.6128 62.5055 70.6128 62.0171V61.2856C70.6128 60.7972 70.3691 60.5533 69.8809 60.5533H64.0265C64.0265 60.0657 64.0265 59.5773 64.0265 59.0896H69.8809C70.1254 59.0896 70.6128 58.8458 70.6128 58.3582V57.6259C70.6128 57.1383 70.3691 56.8945 69.8809 56.8945H64.2702C64.5147 56.6498 64.7584 56.1622 65.0021 55.9184Z" fill="white"/>
</g>
</svg>
