<svg width="51" height="53" viewBox="0 0 51 53" fill="none" xmlns="http://www.w3.org/2000/svg">
<g filter="url(#filter0_d_465_2368)">
<circle cx="26.6903" cy="22.9817" r="22.0188" fill="white"/>
</g>
<path d="M26.8529 25.5354H26.245C26.0701 25.5354 25.9112 25.4631 25.7959 25.347L25.7775 25.3294C25.6733 25.2156 25.6084 25.063 25.6084 24.895C25.6084 24.6632 25.422 24.4745 25.191 24.4745C24.9599 24.4745 24.7736 24.6625 24.7736 24.895C24.7736 25.2871 24.9286 25.6461 25.1799 25.9129L25.2059 25.9413C25.4472 26.1842 25.7722 26.3426 26.1319 26.3703V26.8458C26.1319 27.0772 26.3183 27.2659 26.5493 27.2659C26.78 27.2659 26.9667 27.0779 26.9667 26.8458V26.3703C27.3265 26.3426 27.6515 26.1842 27.8924 25.9413V25.9398C28.159 25.6719 28.3243 25.3017 28.3243 24.895C28.3243 24.4883 28.1582 24.1182 27.8924 23.8499L27.8909 23.8483C27.6243 23.58 27.257 23.4136 26.8529 23.4136H26.245C26.0701 23.4136 25.9112 23.3413 25.7959 23.2253L25.7775 23.2076C25.6733 23.0938 25.6084 22.9412 25.6084 22.7732C25.6084 22.5964 25.6794 22.4365 25.7943 22.3212H25.7959C25.9112 22.2047 26.0701 22.1325 26.245 22.1325H26.8529C27.0282 22.1325 27.1871 22.2047 27.3028 22.3204C27.4174 22.4365 27.4892 22.5972 27.4892 22.7732C27.4892 23.0046 27.6759 23.1933 27.9066 23.1933C28.1376 23.1933 28.3243 23.0054 28.3243 22.7732C28.3243 22.3665 28.1582 21.9964 27.8924 21.7281L27.8909 21.7265C27.6499 21.4836 27.3257 21.3264 26.9667 21.2976V20.8225C26.9667 20.5899 26.78 20.4023 26.5493 20.4023C26.3183 20.4023 26.1319 20.5899 26.1319 20.8225V21.2976C25.7722 21.3252 25.4472 21.4836 25.2066 21.7273C24.9397 21.9964 24.7736 22.3665 24.7736 22.7724C24.7736 23.1645 24.9286 23.5235 25.1799 23.7903L25.2059 23.8187C25.4724 24.087 25.8409 24.2535 26.2457 24.2535H26.8537C27.029 24.2535 27.1882 24.3257 27.3036 24.4414C27.4181 24.5575 27.4899 24.7182 27.4899 24.8942C27.4899 25.0707 27.4181 25.2306 27.3028 25.3463C27.1863 25.4631 27.0275 25.5354 26.8529 25.5354Z" fill="#2A3F77"/>
<path d="M26.5493 29.1625C28.0112 29.1625 29.3344 28.5655 30.2918 27.6019C31.2503 26.6379 31.8423 25.3056 31.8423 23.8342C31.8423 22.3624 31.2496 21.0301 30.2918 20.0665C29.3344 19.1017 28.0112 18.5059 26.5493 18.5059C25.0875 18.5059 23.7638 19.1028 22.8064 20.0665C21.8483 21.0309 21.256 22.3631 21.256 23.8342C21.256 25.3056 21.8491 26.6379 22.8064 27.6019C23.7638 28.5663 25.0875 29.1625 26.5493 29.1625ZM23.4751 20.7399C24.2618 19.9477 25.349 19.4584 26.5493 19.4584C27.7492 19.4584 28.8364 19.9484 29.6231 20.7399C30.4098 21.5317 30.896 22.6261 30.896 23.8342C30.896 25.0423 30.409 26.1366 29.6231 26.9285C28.8364 27.7203 27.7492 28.2096 26.5493 28.2096C25.349 28.2096 24.2618 27.7195 23.4751 26.9285C22.6888 26.1366 22.2023 25.0423 22.2023 23.8342C22.2015 22.6261 22.6888 21.5317 23.4751 20.7399Z" fill="#2A3F77"/>
<mask id="mask0_465_2368" style="mask-type:luminance" maskUnits="userSpaceOnUse" x="11" y="13" width="33" height="22">
<path d="M11.873 13.3516H43.5483V34.1636H11.873V13.3516Z" fill="white"/>
</mask>
<g mask="url(#mask0_465_2368)">
<path d="M43.4936 27.7666L41.2199 16.6883V16.686C41.2199 16.6183 41.2057 16.5538 41.1801 16.4957L40.6207 13.7704C40.5684 13.5133 40.3194 13.348 40.0646 13.4003L26.5581 16.2097H12.3515C12.0903 16.2097 11.8787 16.4231 11.8787 16.686V30.9781C11.8787 31.2407 12.0903 31.454 12.3515 31.454H14.2922L14.762 33.7407C14.8139 33.9974 15.0633 34.1631 15.3176 34.1105L28.0894 31.454H40.7463C41.0071 31.454 41.2191 31.2407 41.2191 30.9781V28.7233L43.1251 28.327C43.3806 28.2744 43.5459 28.0237 43.4936 27.7666ZM39.7927 14.4262L40.159 16.2097H31.2171L39.7927 14.4262ZM15.5903 33.0849L15.2561 31.454H23.4312L15.5903 33.0849ZM40.2735 30.5023H12.825V17.1626H40.2735V30.5023ZM41.2199 27.7539V21.3781L42.4747 27.4929L41.2199 27.7539Z" fill="#2A3F77"/>
</g>
<path d="M14.7834 21.7412C15.0442 21.7412 15.2562 21.5283 15.2562 21.2653V19.481H17.0285C17.2897 19.481 17.5013 19.2677 17.5013 19.0052C17.5013 18.7426 17.2897 18.5293 17.0285 18.5293H14.7834C14.5226 18.5293 14.3106 18.7426 14.3106 19.0052V21.2653C14.3098 21.5283 14.5214 21.7412 14.7834 21.7412Z" fill="#2A3F77"/>
<path d="M17.0285 28.185H15.2562V26.4007C15.2562 26.1381 15.0442 25.9248 14.7834 25.9248C14.5226 25.9248 14.3106 26.1381 14.3106 26.4007V28.6608C14.3106 28.9238 14.5226 29.1371 14.7834 29.1371H17.0285C17.2897 29.1371 17.5013 28.9238 17.5013 28.6608C17.5013 28.3983 17.2897 28.185 17.0285 28.185Z" fill="#2A3F77"/>
<path d="M36.069 19.481H37.8417V21.2653C37.8417 21.5283 38.0533 21.7412 38.3145 21.7412C38.5754 21.7412 38.7873 21.5283 38.7873 21.2653V19.0052C38.7873 18.7426 38.5754 18.5293 38.3145 18.5293H36.069C35.8082 18.5293 35.5963 18.7426 35.5963 19.0052C35.5963 19.2677 35.8082 19.481 36.069 19.481Z" fill="#2A3F77"/>
<path d="M36.069 29.1371H38.3145C38.5754 29.1371 38.7873 28.9238 38.7873 28.6612V26.4007C38.7873 26.1381 38.5754 25.9248 38.3145 25.9248C38.0533 25.9248 37.8417 26.1381 37.8417 26.4007V28.185H36.069C35.8082 28.185 35.5963 28.3983 35.5963 28.6612C35.5963 28.9238 35.8082 29.1371 36.069 29.1371Z" fill="#2A3F77"/>
<defs>
<filter id="filter0_d_465_2368" x="0.671509" y="0.962891" width="52.0375" height="52.0371" filterUnits="userSpaceOnUse" color-interpolation-filters="sRGB">
<feFlood flood-opacity="0" result="BackgroundImageFix"/>
<feColorMatrix in="SourceAlpha" type="matrix" values="0 0 0 0 0 0 0 0 0 0 0 0 0 0 0 0 0 0 127 0" result="hardAlpha"/>
<feOffset dy="4"/>
<feGaussianBlur stdDeviation="2"/>
<feComposite in2="hardAlpha" operator="out"/>
<feColorMatrix type="matrix" values="0 0 0 0 0 0 0 0 0 0 0 0 0 0 0 0 0 0 0.25 0"/>
<feBlend mode="normal" in2="BackgroundImageFix" result="effect1_dropShadow_465_2368"/>
<feBlend mode="normal" in="SourceGraphic" in2="effect1_dropShadow_465_2368" result="shape"/>
</filter>
</defs>
</svg>
