<svg width="354" height="125" viewBox="0 0 354 125" fill="none" xmlns="http://www.w3.org/2000/svg">
<g filter="url(#filter0_d_930_58)">
<path d="M344 36V75.8293C344 88.8784 334.404 99.8881 321.451 101.472C264.96 108.382 123.602 124.329 148.258 107.636C170.785 92.3848 88.9485 94.6753 43.8462 96.971C28.7685 97.7384 16 85.7852 16 70.688V36C16 21.6406 27.6406 10 42 10L318 10C332.359 10 344 21.6406 344 36Z" fill="white"/>
<path d="M343.5 75.8293V36C343.5 21.9167 332.083 10.5 318 10.5L42 10.5C27.9167 10.5 16.5 21.9167 16.5 36V70.688C16.5 85.4945 29.0243 97.2247 43.8208 96.4716C66.3728 95.3238 98.1284 94.1759 121.436 95.2239C133.068 95.747 142.67 96.8188 147.961 98.7428C149.288 99.2255 150.377 99.7728 151.164 100.401C151.953 101.03 152.479 101.774 152.586 102.644C152.692 103.515 152.365 104.399 151.691 105.281C151.018 106.162 149.969 107.082 148.538 108.05C147.008 109.086 146.232 109.928 145.986 110.572C145.872 110.872 145.878 111.112 145.96 111.323C146.047 111.545 146.239 111.788 146.594 112.04C147.313 112.551 148.562 113.001 150.345 113.368C152.114 113.732 154.353 114.003 157.008 114.188C167.637 114.93 184.729 114.288 204.389 112.906C243.694 110.143 293.146 104.431 321.39 100.976C334.088 99.423 343.5 88.6298 343.5 75.8293Z" stroke="#CAA55E"/>
</g>
<path d="M50.5 52.7104C50.5 71.6071 35.2748 86.9207 16.5 86.9207C-2.27482 86.9207 -17.5 71.6071 -17.5 52.7104C-17.5 33.8136 -2.27482 18.5 16.5 18.5C35.2748 18.5 50.5 33.8136 50.5 52.7104Z" fill="#2A3F77" stroke="#CAA55E"/>
<mask id="path-4-outside-1_930_58" maskUnits="userSpaceOnUse" x="11" y="41" width="10" height="21" fill="black">
<rect fill="white" x="11" y="41" width="10" height="21"/>
<path d="M16.056 61V44.1L17.538 45.634H12.208V42.8H19.436V61H16.056Z"/>
</mask>
<path d="M16.056 61V44.1L17.538 45.634H12.208V42.8H19.436V61H16.056Z" fill="#CAA55E"/>
<path d="M16.056 61H15.056V62H16.056V61ZM16.056 44.1L16.7752 43.4052L15.056 41.6257V44.1H16.056ZM17.538 45.634V46.634H19.8946L18.2572 44.9392L17.538 45.634ZM12.208 45.634H11.208V46.634H12.208V45.634ZM12.208 42.8V41.8H11.208V42.8H12.208ZM19.436 42.8H20.436V41.8H19.436V42.8ZM19.436 61V62H20.436V61H19.436ZM17.056 61V44.1H15.056V61H17.056ZM15.3368 44.7948L16.8188 46.3288L18.2572 44.9392L16.7752 43.4052L15.3368 44.7948ZM17.538 44.634H12.208V46.634H17.538V44.634ZM13.208 45.634V42.8H11.208V45.634H13.208ZM12.208 43.8H19.436V41.8H12.208V43.8ZM18.436 42.8V61H20.436V42.8H18.436ZM19.436 60H16.056V62H19.436V60Z" fill="#CAA55E" mask="url(#path-4-outside-1_930_58)"/>
<defs>
<filter id="filter0_d_930_58" x="6.22" y="0.22" width="347.56" height="124.56" filterUnits="userSpaceOnUse" color-interpolation-filters="sRGB">
<feFlood flood-opacity="0" result="BackgroundImageFix"/>
<feColorMatrix in="SourceAlpha" type="matrix" values="0 0 0 0 0 0 0 0 0 0 0 0 0 0 0 0 0 0 127 0" result="hardAlpha"/>
<feOffset/>
<feGaussianBlur stdDeviation="4.89"/>
<feColorMatrix type="matrix" values="0 0 0 0 0.576471 0 0 0 0 0.572549 0 0 0 0 0.572549 0 0 0 0.72 0"/>
<feBlend mode="normal" in2="BackgroundImageFix" result="effect1_dropShadow_930_58"/>
<feBlend mode="normal" in="SourceGraphic" in2="effect1_dropShadow_930_58" result="shape"/>
</filter>
</defs>
</svg>
