<svg width="357" height="125" viewBox="0 0 357 125" fill="none" xmlns="http://www.w3.org/2000/svg">
<g filter="url(#filter0_d_931_61)">
<path d="M10 36L10 75.8293C10 88.8784 19.5964 99.8881 32.549 101.472C89.0399 108.382 230.398 124.329 205.742 107.636C183.215 92.3848 265.052 94.6753 310.154 96.971C325.232 97.7384 338 85.7852 338 70.688V36C338 21.6406 326.359 10 312 10L36 10C21.6406 10 10 21.6406 10 36Z" fill="white"/>
<path d="M10.5 75.8293L10.5 36C10.5 21.9167 21.9167 10.5 36 10.5L312 10.5C326.083 10.5 337.5 21.9167 337.5 36V70.688C337.5 85.4945 324.976 97.2247 310.179 96.4716C287.627 95.3238 255.872 94.1759 232.564 95.2239C220.932 95.747 211.33 96.8188 206.039 98.7428C204.712 99.2255 203.623 99.7728 202.836 100.401C202.047 101.03 201.521 101.774 201.414 102.644C201.308 103.515 201.635 104.399 202.309 105.281C202.982 106.162 204.031 107.082 205.462 108.05C206.992 109.086 207.768 109.928 208.014 110.572C208.128 110.872 208.122 111.112 208.04 111.323C207.953 111.545 207.761 111.788 207.406 112.04C206.687 112.551 205.438 113.001 203.655 113.368C201.886 113.732 199.647 114.003 196.992 114.188C186.363 114.93 169.271 114.288 149.611 112.906C110.306 110.143 60.8542 104.431 32.6097 100.976C19.912 99.423 10.5 88.6298 10.5 75.8293Z" stroke="#CAA55E"/>
</g>
<path d="M371.5 52.7104C371.5 71.6071 356.275 86.9207 337.5 86.9207C318.725 86.9207 303.5 71.6071 303.5 52.7104C303.5 33.8136 318.725 18.5 337.5 18.5C356.275 18.5 371.5 33.8136 371.5 52.7104Z" fill="#2A3F77" stroke="#CAA55E"/>
<mask id="path-4-outside-1_931_61" maskUnits="userSpaceOnUse" x="327" y="41" width="20" height="21" fill="black">
<rect fill="white" x="327" y="41" width="20" height="21"/>
<path d="M328.884 56.866V54.526L337.854 42.8H341.468L332.628 54.526L330.938 54.006H345.368V56.866H328.884ZM338.868 61V56.866L338.972 54.006V50.34H342.144V61H338.868Z"/>
</mask>
<path d="M328.884 56.866V54.526L337.854 42.8H341.468L332.628 54.526L330.938 54.006H345.368V56.866H328.884ZM338.868 61V56.866L338.972 54.006V50.34H342.144V61H338.868Z" fill="#CAA55E"/>
<path d="M328.884 56.866H327.884V57.866H328.884V56.866ZM328.884 54.526L328.09 53.9184L327.884 54.1874V54.526H328.884ZM337.854 42.8V41.8H337.36L337.06 42.1924L337.854 42.8ZM341.468 42.8L342.267 43.402L343.474 41.8H341.468V42.8ZM332.628 54.526L332.334 55.4818L333.004 55.688L333.427 55.128L332.628 54.526ZM330.938 54.006V53.006L330.644 54.9618L330.938 54.006ZM345.368 54.006H346.368V53.006H345.368V54.006ZM345.368 56.866V57.866H346.368V56.866H345.368ZM338.868 61H337.868V62H338.868V61ZM338.868 56.866L337.869 56.8297L337.868 56.8478V56.866H338.868ZM338.972 54.006L339.971 54.0423L339.972 54.0242V54.006H338.972ZM338.972 50.34V49.34H337.972V50.34H338.972ZM342.144 50.34H343.144V49.34H342.144V50.34ZM342.144 61V62H343.144V61H342.144ZM329.884 56.866V54.526H327.884V56.866H329.884ZM329.678 55.1336L338.648 43.4076L337.06 42.1924L328.09 53.9184L329.678 55.1336ZM337.854 43.8H341.468V41.8H337.854V43.8ZM340.669 42.198L331.829 53.924L333.427 55.128L342.267 43.402L340.669 42.198ZM332.922 53.5702L331.232 53.0502L330.644 54.9618L332.334 55.4818L332.922 53.5702ZM330.938 55.006H345.368V53.006H330.938V55.006ZM344.368 54.006V56.866H346.368V54.006H344.368ZM345.368 55.866H328.884V57.866H345.368V55.866ZM339.868 61V56.866H337.868V61H339.868ZM339.867 56.9023L339.971 54.0423L337.973 53.9697L337.869 56.8297L339.867 56.9023ZM339.972 54.006V50.34H337.972V54.006H339.972ZM338.972 51.34H342.144V49.34H338.972V51.34ZM341.144 50.34V61H343.144V50.34H341.144ZM342.144 60H338.868V62H342.144V60Z" fill="#CAA55E" mask="url(#path-4-outside-1_931_61)"/>
<defs>
<filter id="filter0_d_931_61" x="0.22" y="0.22" width="347.56" height="124.56" filterUnits="userSpaceOnUse" color-interpolation-filters="sRGB">
<feFlood flood-opacity="0" result="BackgroundImageFix"/>
<feColorMatrix in="SourceAlpha" type="matrix" values="0 0 0 0 0 0 0 0 0 0 0 0 0 0 0 0 0 0 127 0" result="hardAlpha"/>
<feOffset/>
<feGaussianBlur stdDeviation="4.89"/>
<feColorMatrix type="matrix" values="0 0 0 0 0.576471 0 0 0 0 0.572549 0 0 0 0 0.572549 0 0 0 0.72 0"/>
<feBlend mode="normal" in2="BackgroundImageFix" result="effect1_dropShadow_931_61"/>
<feBlend mode="normal" in="SourceGraphic" in2="effect1_dropShadow_931_61" result="shape"/>
</filter>
</defs>
</svg>
