<svg width="354" height="125" viewBox="0 0 354 125" fill="none" xmlns="http://www.w3.org/2000/svg">
<g filter="url(#filter0_d_931_60)">
<path d="M344 36V75.8293C344 88.8784 334.404 99.8881 321.451 101.472C264.96 108.382 123.602 124.329 148.258 107.636C170.785 92.3848 88.9485 94.6753 43.8462 96.971C28.7685 97.7384 16 85.7852 16 70.688V36C16 21.6406 27.6406 10 42 10L318 10C332.359 10 344 21.6406 344 36Z" fill="white"/>
<path d="M343.5 75.8293V36C343.5 21.9167 332.083 10.5 318 10.5L42 10.5C27.9167 10.5 16.5 21.9167 16.5 36V70.688C16.5 85.4945 29.0243 97.2247 43.8208 96.4716C66.3728 95.3238 98.1284 94.1759 121.436 95.2239C133.068 95.747 142.67 96.8188 147.961 98.7428C149.288 99.2255 150.377 99.7728 151.164 100.401C151.953 101.03 152.479 101.774 152.586 102.644C152.692 103.515 152.365 104.399 151.691 105.281C151.018 106.162 149.969 107.082 148.538 108.05C147.008 109.086 146.232 109.928 145.986 110.572C145.872 110.872 145.878 111.112 145.96 111.323C146.047 111.545 146.239 111.788 146.594 112.04C147.313 112.551 148.562 113.001 150.345 113.368C152.114 113.732 154.353 114.003 157.008 114.188C167.637 114.93 184.729 114.288 204.389 112.906C243.694 110.143 293.146 104.431 321.39 100.976C334.088 99.423 343.5 88.6298 343.5 75.8293Z" stroke="#CAA55E"/>
</g>
<path d="M50.5 52.7104C50.5 71.6071 35.2748 86.9207 16.5 86.9207C-2.27482 86.9207 -17.5 71.6071 -17.5 52.7104C-17.5 33.8136 -2.27482 18.5 16.5 18.5C35.2748 18.5 50.5 33.8136 50.5 52.7104Z" fill="#2A3F77" stroke="#CAA55E"/>
<mask id="path-4-outside-1_931_60" maskUnits="userSpaceOnUse" x="10" y="41" width="18" height="22" fill="black">
<rect fill="white" x="10" y="41" width="18" height="22"/>
<path d="M18.864 61.26C17.5813 61.26 16.3247 61.078 15.094 60.714C13.8807 60.3327 12.858 59.8127 12.026 59.154L13.482 56.528C14.1407 57.0653 14.938 57.4987 15.874 57.828C16.81 58.1573 17.7893 58.322 18.812 58.322C20.0253 58.322 20.97 58.0793 21.646 57.594C22.322 57.0913 22.66 56.4153 22.66 55.566C22.66 54.734 22.348 54.0753 21.724 53.59C21.1 53.1047 20.0947 52.862 18.708 52.862H17.044V50.548L22.244 44.36L22.686 45.634H12.91V42.8H25.312V45.062L20.112 51.25L18.344 50.21H19.358C21.594 50.21 23.2667 50.7127 24.376 51.718C25.5027 52.706 26.066 53.98 26.066 55.54C26.066 56.5627 25.806 57.5073 25.286 58.374C24.766 59.2407 23.9687 59.9427 22.894 60.48C21.8367 61 20.4933 61.26 18.864 61.26Z"/>
</mask>
<path d="M18.864 61.26C17.5813 61.26 16.3247 61.078 15.094 60.714C13.8807 60.3327 12.858 59.8127 12.026 59.154L13.482 56.528C14.1407 57.0653 14.938 57.4987 15.874 57.828C16.81 58.1573 17.7893 58.322 18.812 58.322C20.0253 58.322 20.97 58.0793 21.646 57.594C22.322 57.0913 22.66 56.4153 22.66 55.566C22.66 54.734 22.348 54.0753 21.724 53.59C21.1 53.1047 20.0947 52.862 18.708 52.862H17.044V50.548L22.244 44.36L22.686 45.634H12.91V42.8H25.312V45.062L20.112 51.25L18.344 50.21H19.358C21.594 50.21 23.2667 50.7127 24.376 51.718C25.5027 52.706 26.066 53.98 26.066 55.54C26.066 56.5627 25.806 57.5073 25.286 58.374C24.766 59.2407 23.9687 59.9427 22.894 60.48C21.8367 61 20.4933 61.26 18.864 61.26Z" fill="#CAA55E"/>
<path d="M15.094 60.714L14.7942 61.668L14.8023 61.6705L14.8104 61.6729L15.094 60.714ZM12.026 59.154L11.1514 58.6691L10.7399 59.4113L11.4053 59.938L12.026 59.154ZM13.482 56.528L14.1141 55.7531L13.1874 54.9971L12.6074 56.0431L13.482 56.528ZM15.874 57.828L16.2059 56.8847L15.874 57.828ZM21.646 57.594L22.2292 58.4063L22.236 58.4014L22.2427 58.3965L21.646 57.594ZM21.724 53.59L22.3379 52.8006L21.724 53.59ZM17.044 52.862H16.044V53.862H17.044V52.862ZM17.044 50.548L16.2784 49.9047L16.044 50.1836V50.548H17.044ZM22.244 44.36L23.1888 44.0322L22.6115 42.3683L21.4784 43.7167L22.244 44.36ZM22.686 45.634V46.634H24.0914L23.6308 45.3062L22.686 45.634ZM12.91 45.634H11.91V46.634H12.91V45.634ZM12.91 42.8V41.8H11.91V42.8H12.91ZM25.312 42.8H26.312V41.8H25.312V42.8ZM25.312 45.062L26.0776 45.7053L26.312 45.4264V45.062H25.312ZM20.112 51.25L19.605 52.1119L20.3337 52.5406L20.8776 51.8933L20.112 51.25ZM18.344 50.21V49.21H14.6717L17.837 51.0719L18.344 50.21ZM24.376 51.718L23.7045 52.459L23.7105 52.4645L23.7167 52.4699L24.376 51.718ZM25.286 58.374L26.1435 58.8885L26.1435 58.8885L25.286 58.374ZM22.894 60.48L23.3353 61.3774L23.3412 61.3744L22.894 60.48ZM18.864 60.26C17.6774 60.26 16.5163 60.0918 15.3776 59.7551L14.8104 61.6729C16.1331 62.0642 17.4853 62.26 18.864 62.26V60.26ZM15.3938 59.76C14.2744 59.4082 13.3661 58.9395 12.6467 58.37L11.4053 59.938C12.3499 60.6859 13.4869 61.2571 14.7942 61.668L15.3938 59.76ZM12.9006 59.6389L14.3566 57.0129L12.6074 56.0431L11.1514 58.6691L12.9006 59.6389ZM12.8499 57.3029C13.6117 57.9244 14.5149 58.4099 15.5421 58.7713L16.2059 56.8847C15.3611 56.5874 14.6696 56.2063 14.1141 55.7531L12.8499 57.3029ZM15.5421 58.7713C16.588 59.1393 17.6798 59.322 18.812 59.322V57.322C17.8989 57.322 17.032 57.1754 16.2059 56.8847L15.5421 58.7713ZM18.812 59.322C20.1429 59.322 21.3215 59.058 22.2292 58.4063L21.0628 56.7817C20.6185 57.1006 19.9077 57.322 18.812 57.322V59.322ZM22.2427 58.3965C23.1749 57.7033 23.66 56.7285 23.66 55.566H21.66C21.66 56.1022 21.4691 56.4794 21.0493 56.7915L22.2427 58.3965ZM23.66 55.566C23.66 54.4442 23.22 53.4867 22.3379 52.8006L21.1101 54.3794C21.476 54.664 21.66 55.0238 21.66 55.566H23.66ZM22.3379 52.8006C21.4485 52.1089 20.1672 51.862 18.708 51.862V53.862C20.0222 53.862 20.7515 54.1004 21.1101 54.3794L22.3379 52.8006ZM18.708 51.862H17.044V53.862H18.708V51.862ZM18.044 52.862V50.548H16.044V52.862H18.044ZM17.8096 51.1913L23.0096 45.0033L21.4784 43.7167L16.2784 49.9047L17.8096 51.1913ZM21.2992 44.6878L21.7412 45.9618L23.6308 45.3062L23.1888 44.0322L21.2992 44.6878ZM22.686 44.634H12.91V46.634H22.686V44.634ZM13.91 45.634V42.8H11.91V45.634H13.91ZM12.91 43.8H25.312V41.8H12.91V43.8ZM24.312 42.8V45.062H26.312V42.8H24.312ZM24.5464 44.4187L19.3464 50.6067L20.8776 51.8933L26.0776 45.7053L24.5464 44.4187ZM20.619 50.3881L18.851 49.3481L17.837 51.0719L19.605 52.1119L20.619 50.3881ZM18.344 51.21H19.358V49.21H18.344V51.21ZM19.358 51.21C21.4653 51.21 22.8517 51.6862 23.7045 52.459L25.0475 50.977C23.6816 49.7392 21.7227 49.21 19.358 49.21V51.21ZM23.7167 52.4699C24.6169 53.2593 25.066 54.2545 25.066 55.54H27.066C27.066 53.7055 26.3884 52.1527 25.0353 50.9661L23.7167 52.4699ZM25.066 55.54C25.066 56.3837 24.8541 57.1502 24.4285 57.8595L26.1435 58.8885C26.7579 57.8645 27.066 56.7416 27.066 55.54H25.066ZM24.4285 57.8595C24.0235 58.5345 23.3839 59.117 22.4468 59.5856L23.3412 61.3744C24.5535 60.7683 25.5085 59.9469 26.1435 58.8885L24.4285 57.8595ZM22.4527 59.5826C21.5748 60.0144 20.3955 60.26 18.864 60.26V62.26C20.5911 62.26 22.0985 61.9856 23.3353 61.3773L22.4527 59.5826Z" fill="#CAA55E" mask="url(#path-4-outside-1_931_60)"/>
<defs>
<filter id="filter0_d_931_60" x="6.22" y="0.22" width="347.56" height="124.56" filterUnits="userSpaceOnUse" color-interpolation-filters="sRGB">
<feFlood flood-opacity="0" result="BackgroundImageFix"/>
<feColorMatrix in="SourceAlpha" type="matrix" values="0 0 0 0 0 0 0 0 0 0 0 0 0 0 0 0 0 0 127 0" result="hardAlpha"/>
<feOffset/>
<feGaussianBlur stdDeviation="4.89"/>
<feColorMatrix type="matrix" values="0 0 0 0 0.576471 0 0 0 0 0.572549 0 0 0 0 0.572549 0 0 0 0.72 0"/>
<feBlend mode="normal" in2="BackgroundImageFix" result="effect1_dropShadow_931_60"/>
<feBlend mode="normal" in="SourceGraphic" in2="effect1_dropShadow_931_60" result="shape"/>
</filter>
</defs>
</svg>
