<svg width="357" height="125" viewBox="0 0 357 125" fill="none" xmlns="http://www.w3.org/2000/svg">
<g filter="url(#filter0_d_930_59)">
<path d="M10 36L10 75.8293C10 88.8784 19.5964 99.8881 32.549 101.472C89.0399 108.382 230.398 124.329 205.742 107.636C183.215 92.3848 265.052 94.6753 310.154 96.971C325.232 97.7384 338 85.7852 338 70.688V36C338 21.6406 326.359 10 312 10L36 10C21.6406 10 10 21.6406 10 36Z" fill="white"/>
<path d="M10.5 75.8293L10.5 36C10.5 21.9167 21.9167 10.5 36 10.5L312 10.5C326.083 10.5 337.5 21.9167 337.5 36V70.688C337.5 85.4945 324.976 97.2247 310.179 96.4716C287.627 95.3238 255.872 94.1759 232.564 95.2239C220.932 95.747 211.33 96.8188 206.039 98.7428C204.712 99.2255 203.623 99.7728 202.836 100.401C202.047 101.03 201.521 101.774 201.414 102.644C201.308 103.515 201.635 104.399 202.309 105.281C202.982 106.162 204.031 107.082 205.462 108.05C206.992 109.086 207.768 109.928 208.014 110.572C208.128 110.872 208.122 111.112 208.04 111.323C207.953 111.545 207.761 111.788 207.406 112.04C206.687 112.551 205.438 113.001 203.655 113.368C201.886 113.732 199.647 114.003 196.992 114.188C186.363 114.93 169.271 114.288 149.611 112.906C110.306 110.143 60.8542 104.431 32.6097 100.976C19.912 99.423 10.5 88.6298 10.5 75.8293Z" stroke="#CAA55E"/>
</g>
<path d="M371.5 52.7104C371.5 71.6071 356.275 86.9207 337.5 86.9207C318.725 86.9207 303.5 71.6071 303.5 52.7104C303.5 33.8136 318.725 18.5 337.5 18.5C356.275 18.5 371.5 33.8136 371.5 52.7104Z" fill="#2A3F77" stroke="#CAA55E"/>
<mask id="path-4-outside-1_930_59" maskUnits="userSpaceOnUse" x="328" y="41" width="18" height="21" fill="black">
<rect fill="white" x="328" y="41" width="18" height="21"/>
<path d="M330.91 61V58.738L338.138 51.874C338.745 51.302 339.195 50.7993 339.49 50.366C339.785 49.9327 339.975 49.534 340.062 49.17C340.166 48.7887 340.218 48.4333 340.218 48.104C340.218 47.272 339.932 46.6307 339.36 46.18C338.788 45.712 337.947 45.478 336.838 45.478C335.954 45.478 335.148 45.634 334.42 45.946C333.709 46.258 333.094 46.7347 332.574 47.376L330.208 45.556C330.919 44.6027 331.872 43.866 333.068 43.346C334.281 42.8087 335.633 42.54 337.124 42.54C338.441 42.54 339.585 42.7567 340.556 43.19C341.544 43.606 342.298 44.204 342.818 44.984C343.355 45.764 343.624 46.6913 343.624 47.766C343.624 48.3553 343.546 48.9447 343.39 49.534C343.234 50.106 342.939 50.7127 342.506 51.354C342.073 51.9953 341.44 52.7147 340.608 53.512L334.394 59.414L333.692 58.14H344.326V61H330.91Z"/>
</mask>
<path d="M330.91 61V58.738L338.138 51.874C338.745 51.302 339.195 50.7993 339.49 50.366C339.785 49.9327 339.975 49.534 340.062 49.17C340.166 48.7887 340.218 48.4333 340.218 48.104C340.218 47.272 339.932 46.6307 339.36 46.18C338.788 45.712 337.947 45.478 336.838 45.478C335.954 45.478 335.148 45.634 334.42 45.946C333.709 46.258 333.094 46.7347 332.574 47.376L330.208 45.556C330.919 44.6027 331.872 43.866 333.068 43.346C334.281 42.8087 335.633 42.54 337.124 42.54C338.441 42.54 339.585 42.7567 340.556 43.19C341.544 43.606 342.298 44.204 342.818 44.984C343.355 45.764 343.624 46.6913 343.624 47.766C343.624 48.3553 343.546 48.9447 343.39 49.534C343.234 50.106 342.939 50.7127 342.506 51.354C342.073 51.9953 341.44 52.7147 340.608 53.512L334.394 59.414L333.692 58.14H344.326V61H330.91Z" fill="#CAA55E"/>
<path d="M330.91 61H329.91V62H330.91V61ZM330.91 58.738L330.221 58.0129L329.91 58.3086V58.738H330.91ZM338.138 51.874L337.452 51.1464L337.449 51.1489L338.138 51.874ZM339.49 50.366L338.663 49.8037L338.663 49.8037L339.49 50.366ZM340.062 49.17L339.097 48.9069L339.093 48.9226L339.089 48.9384L340.062 49.17ZM339.36 46.18L338.727 46.954L338.734 46.9598L338.741 46.9655L339.36 46.18ZM334.42 45.946L334.026 45.0268L334.018 45.0304L334.42 45.946ZM332.574 47.376L331.964 48.1686L332.737 48.7629L333.351 48.0058L332.574 47.376ZM330.208 45.556L329.406 44.9583L328.818 45.7481L329.598 46.3486L330.208 45.556ZM333.068 43.346L333.467 44.2631L333.473 44.2603L333.068 43.346ZM340.556 43.19L340.148 44.1031L340.158 44.1075L340.168 44.1116L340.556 43.19ZM342.818 44.984L341.986 45.5387L341.99 45.545L341.994 45.5513L342.818 44.984ZM343.39 49.534L344.355 49.7971L344.357 49.7899L343.39 49.534ZM340.608 53.512L341.297 54.2371L341.3 54.234L340.608 53.512ZM334.394 59.414L333.518 59.8966L334.143 61.0312L335.083 60.1391L334.394 59.414ZM333.692 58.14V57.14H331.999L332.816 58.6226L333.692 58.14ZM344.326 58.14H345.326V57.14H344.326V58.14ZM344.326 61V62H345.326V61H344.326ZM331.91 61V58.738H329.91V61H331.91ZM331.599 59.4631L338.827 52.5991L337.449 51.1489L330.221 58.0129L331.599 59.4631ZM338.824 52.6016C339.456 52.0053 339.965 51.4462 340.317 50.9283L338.663 49.8037C338.426 50.1525 338.033 50.5987 337.452 51.1464L338.824 52.6016ZM340.317 50.9283C340.655 50.4317 340.911 49.9208 341.035 49.4016L339.089 48.9384C339.039 49.1472 338.915 49.4336 338.663 49.8037L340.317 50.9283ZM341.027 49.4331C341.15 48.9826 341.218 48.5379 341.218 48.104H339.218C339.218 48.3288 339.182 48.5948 339.097 48.9069L341.027 49.4331ZM341.218 48.104C341.218 47.015 340.828 46.0634 339.979 45.3945L338.741 46.9655C339.036 47.1979 339.218 47.529 339.218 48.104H341.218ZM339.993 45.406C339.172 44.7343 338.067 44.478 336.838 44.478V46.478C337.828 46.478 338.404 46.6897 338.727 46.954L339.993 45.406ZM336.838 44.478C335.834 44.478 334.892 44.6556 334.026 45.0269L334.814 46.8651C335.404 46.6124 336.074 46.478 336.838 46.478V44.478ZM334.018 45.0304C333.152 45.4105 332.411 45.9892 331.797 46.7462L333.351 48.0058C333.777 47.4801 334.267 47.1055 334.822 46.8616L334.018 45.0304ZM333.184 46.5834L330.818 44.7634L329.598 46.3486L331.964 48.1686L333.184 46.5834ZM331.01 46.1537C331.606 45.3534 332.415 44.7205 333.467 44.2631L332.669 42.4289C331.329 43.0115 330.231 43.8519 329.406 44.9583L331.01 46.1537ZM333.473 44.2603C334.544 43.7861 335.756 43.54 337.124 43.54V41.54C335.511 41.54 334.019 41.8313 332.663 42.4317L333.473 44.2603ZM337.124 43.54C338.334 43.54 339.333 43.739 340.148 44.1031L340.964 42.2769C339.838 41.7743 338.549 41.54 337.124 41.54V43.54ZM340.168 44.1116C341.002 44.4628 341.59 44.9445 341.986 45.5387L343.65 44.4293C343.006 43.4635 342.086 42.7492 340.944 42.2684L340.168 44.1116ZM341.994 45.5513C342.402 46.1426 342.624 46.8657 342.624 47.766H344.624C344.624 46.517 344.309 45.3854 343.642 44.4167L341.994 45.5513ZM342.624 47.766C342.624 48.266 342.558 48.7694 342.423 49.2781L344.357 49.7899C344.534 49.1199 344.624 48.4446 344.624 47.766H342.624ZM342.425 49.2709C342.305 49.7105 342.067 50.2174 341.677 50.7941L343.335 51.9139C343.812 51.2079 344.163 50.5015 344.355 49.7971L342.425 49.2709ZM341.677 50.7941C341.298 51.3558 340.719 52.0204 339.916 52.79L341.3 54.234C342.161 53.4089 342.847 52.6349 343.335 51.9139L341.677 50.7941ZM339.919 52.7869L333.705 58.6889L335.083 60.1391L341.297 54.2371L339.919 52.7869ZM335.27 58.9314L334.568 57.6574L332.816 58.6226L333.518 59.8966L335.27 58.9314ZM333.692 59.14H344.326V57.14H333.692V59.14ZM343.326 58.14V61H345.326V58.14H343.326ZM344.326 60H330.91V62H344.326V60Z" fill="#CAA55E" mask="url(#path-4-outside-1_930_59)"/>
<defs>
<filter id="filter0_d_930_59" x="0.22" y="0.22" width="347.56" height="124.56" filterUnits="userSpaceOnUse" color-interpolation-filters="sRGB">
<feFlood flood-opacity="0" result="BackgroundImageFix"/>
<feColorMatrix in="SourceAlpha" type="matrix" values="0 0 0 0 0 0 0 0 0 0 0 0 0 0 0 0 0 0 127 0" result="hardAlpha"/>
<feOffset/>
<feGaussianBlur stdDeviation="4.89"/>
<feColorMatrix type="matrix" values="0 0 0 0 0.576471 0 0 0 0 0.572549 0 0 0 0 0.572549 0 0 0 0.72 0"/>
<feBlend mode="normal" in2="BackgroundImageFix" result="effect1_dropShadow_930_59"/>
<feBlend mode="normal" in="SourceGraphic" in2="effect1_dropShadow_930_59" result="shape"/>
</filter>
</defs>
</svg>
